<?xml version="1.0" standalone="no"?>
<!DOCTYPE svg PUBLIC "-//W3C//DTD SVG 1.1//EN" "http://www.w3.org/Graphics/SVG/1.1/DTD/svg11.dtd" >
<svg xmlns="http://www.w3.org/2000/svg" xmlns:xlink="http://www.w3.org/1999/xlink" version="1.1">
<metadata>
Created by FontForge 20170910 at Mon Jan 29 17:05:31 2018
 By Jimmy Wärting
Copyright (c) 2018 Design210. All rights reserved.
Tel : 02-376-0210 / www.design210.com
webmaster@design210.com
</metadata>
<defs>
<font id="TTCrackerR" horiz-adv-x="920" >
  <font-face 
    font-family="210 Cracker R"
    font-weight="400"
    font-stretch="normal"
    units-per-em="1000"
    panose-1="2 2 6 3 2 1 1 2 1 1"
    ascent="800"
    descent="-200"
    x-height="417"
    cap-height="680"
    bbox="-29 -258 955 800"
    underline-thickness="25"
    underline-position="-157"
    unicode-range="U+0020-FFE6"
  />
<missing-glyph horiz-adv-x="900" 
d="M50 -150v900h800v-900h-800zM115 -114h670l-335 385zM424 301l-334 384v-768zM783 714h-667l333 -384zM476 300l334 -384v770z" />
    <glyph glyph-name=".notdef" horiz-adv-x="900" 
d="M50 -150v900h800v-900h-800zM115 -114h670l-335 385zM424 301l-334 384v-768zM783 714h-667l333 -384zM476 300l334 -384v770z" />
    <glyph glyph-name="glyph1" horiz-adv-x="0" 
 />
    <glyph glyph-name="glyph2" horiz-adv-x="1024" 
 />
    <glyph glyph-name="space" unicode=" " horiz-adv-x="280" 
 />
    <glyph glyph-name="exclam" unicode="!" horiz-adv-x="320" 
d="M263 639q-12 -71 -18.5 -135t-8.5 -125t0 -120t7 -120l-186 -4q7 74 10.5 134t3.5 117.5t-3 117.5t-10 135h205zM58 0q0 34 26.5 58t75.5 24t76 -24t27 -58q0 -35 -27 -59t-76 -24t-75.5 24t-26.5 59z" />
    <glyph glyph-name="quotedbl" unicode="&#x22;" horiz-adv-x="340" 
d="M153 719q-10 -59 -11 -105.5t2 -90.5l-103 -1q3 32 5 56.5t2 47t-1.5 44.5t-5.5 49h112zM298 719q-10 -59 -11 -105.5t2 -90.5l-103 -1q3 32 5 56.5t2 47t-1.5 44.5t-5.5 49h112z" />
    <glyph glyph-name="numbersign" unicode="#" horiz-adv-x="700" 
d="M31 496q17 -5 45.5 -8.5t65.5 -5.5q-2 38 -4 75.5t-6 76.5h166q-4 -38 -7 -77.5t-5 -80.5q28 -1 56 -1h57q-1 41 -2 81.5t-2 81.5h180q-13 -76 -21 -161q35 2 63 3t47 3q-6 -32 -12.5 -66.5t-19.5 -68.5q-20 2 -41.5 4.5t-44.5 4.5q-2 -35 -3 -70l-2 -70q39 2 71 3t52 3
q-6 -32 -12.5 -66.5t-19.5 -68.5q-21 3 -43.5 5.5t-47.5 4.5q1 -89 6 -162l-165 -3q5 42 8.5 85t5.5 88q-29 1 -59 1h-60q1 -48 1.5 -90t2.5 -80h-166q10 76 18 162q-25 -2 -48.5 -4.5t-45.5 -6.5q-1 31 -2 71.5t-6 76.5q17 -5 45 -8.5t65 -5.5q3 67 3 138q-28 -2 -54.5 -5
t-50.5 -7q-1 31 -2 71.5t-6 76.5zM281 367q-3 -77 -3 -151q30 -1 60.5 -1h61.5q2 74 0 151q-29 1 -59 1h-60z" />
    <glyph glyph-name="dollar" unicode="$" horiz-adv-x="580" 
d="M493 386q-25 21 -51 34t-50.5 20t-46.5 9t-39 2q-38 0 -54.5 -13t-16.5 -33t11 -34t28 -24.5t38.5 -18.5t41.5 -16q29 -11 61.5 -23.5t60 -31t45.5 -44t18 -62.5q0 -66 -39.5 -113t-130.5 -61q1 -11 1 -20.5t1 -19.5h-156q2 11 2.5 22.5t2.5 23.5q-51 12 -102.5 36
t-90.5 59l101 129q9 -20 27.5 -40.5t42 -36.5t50 -26t51.5 -10q45 0 62.5 11t17.5 33q0 14 -6.5 25t-21 21.5t-37 21.5t-54.5 25q-33 14 -67 29.5t-62 36t-45.5 48t-17.5 65.5q0 66 39.5 109.5t129.5 55.5q-2 15 -3 30t-2 29h156q-2 -14 -3 -30t-2 -33q74 -13 160 -44z" />
    <glyph glyph-name="percent" unicode="%" horiz-adv-x="770" 
d="M658 562q-59 -74 -116 -156t-110 -166t-100.5 -165t-88.5 -152l-133 75q103 143 198.5 307t199.5 346zM180 372q-62 0 -98 31t-36 87q0 57 36 88.5t98 31.5t98 -31.5t36 -88.5q0 -56 -36 -87t-98 -31zM180 448q16 0 29.5 10t13.5 32q0 23 -13.5 33t-29.5 10t-29.5 -10
t-13.5 -33q0 -22 13.5 -32t29.5 -10zM590 -18q-62 0 -98 31t-36 87q0 57 36 88.5t98 31.5t98 -31.5t36 -88.5q0 -56 -36 -87t-98 -31zM590 58q16 0 29.5 10t13.5 32q0 23 -13.5 33t-29.5 10t-29.5 -10t-13.5 -33q0 -22 13.5 -32t29.5 -10z" />
    <glyph glyph-name="ampersand" unicode="&#x26;" horiz-adv-x="733" 
d="M47 103q0 51 33.5 96t114.5 96q-14 18 -28.5 38.5t-26 44t-18.5 49.5t-7 55q0 42 17.5 73.5t46 52.5t65.5 31t76 10q32 0 67 -8t64.5 -27.5t49 -52t19.5 -81.5q0 -31 -14 -61t-36.5 -57t-49.5 -50.5t-53 -41.5q29 -30 59 -59t62 -57q20 25 38 52.5t33 56.5l118 -73
q-19 -32 -41 -60.5t-46 -54.5q20 -13 39.5 -25t39.5 -23l-98 -127q-21 20 -44 42.5t-47 46.5q-41 -23 -84.5 -36t-89.5 -13q-54 0 -101 9.5t-82.5 29.5t-55.5 51t-20 73zM244 474q0 -32 15 -62t35 -57q16 10 32.5 23.5t30 29.5t22 33.5t8.5 35.5q0 31 -19.5 45.5t-53.5 14.5
q-30 0 -50 -16t-20 -47zM307 54q45 0 87 22q-34 35 -66 68t-59 64q-37 -25 -55.5 -45t-18.5 -44q0 -19 10.5 -31.5t27 -20t36 -10.5t38.5 -3z" />
    <glyph glyph-name="quotesingle" unicode="'" horiz-adv-x="220" 
d="M171 719q-10 -59 -11 -105.5t2 -90.5l-113 -1q3 32 5 56.5t2 47t-1.5 44.5t-5.5 49h122v0z" />
    <glyph glyph-name="parenleft" unicode="(" horiz-adv-x="430" 
d="M75 282q0 68 17.5 131.5t47 118t66.5 97t76 69.5l85 -75q-29 -27 -53.5 -63.5t-43 -80t-29 -93.5t-10.5 -104q0 -111 38.5 -195t95.5 -139l-85 -75q-39 26 -76 67.5t-65.5 94.5t-46 115.5t-17.5 131.5z" />
    <glyph glyph-name="parenright" unicode=")" horiz-adv-x="430" 
d="M356 282q0 -69 -17.5 -131.5t-46 -115.5t-65.5 -94.5t-76 -67.5l-85 75q57 55 95.5 139t38.5 195q0 54 -10.5 104t-29 93.5t-43.5 80t-53 63.5l85 75q39 -27 76 -69.5t66.5 -97t47 -118t17.5 -131.5z" />
    <glyph glyph-name="asterisk" unicode="*" horiz-adv-x="480" 
d="M70 207q25 16 46 37t31 35q-16 11 -47.5 24t-63.5 24l56 112q10 -6 23 -13t26 -13t24 -11t17 -8q0 9 -0.5 24.5t-1 31.5t-1 30.5t-0.5 21.5l133 -2q-2 -11 -4 -27t-3.5 -31t-2.5 -28t-1 -18q8 3 20.5 7.5t26.5 10.5t27.5 12.5t23.5 12.5l46 -119q-14 -3 -30 -8
t-31.5 -10.5t-28.5 -11t-20 -9.5q12 -14 36.5 -36.5t47.5 -39.5l-98 -94q-17 28 -41.5 54.5t-40.5 42.5q-9 -8 -20 -19.5t-22.5 -24.5t-23 -26.5t-20.5 -25.5z" />
    <glyph glyph-name="plus" unicode="+" horiz-adv-x="570" 
d="M368 504q-5 -45 -8.5 -81.5t-5.5 -71.5q57 4 106.5 11t77.5 21q-26 -29 -38.5 -62t-22.5 -74q-30 2 -62.5 1.5t-66.5 -2.5q-2 -36 -2.5 -78t-2.5 -94l-163 -1q7 39 12 76.5t8 75.5q-43 -9 -83 -21.5t-75 -28.5q6 50 11.5 92.5t11.5 93.5q-1 -2 9.5 -4.5t29 -4t44.5 -3
t56 -1.5q0 35 -2.5 73.5t-7.5 82.5h174z" />
    <glyph glyph-name="comma" unicode="," horiz-adv-x="300" 
d="M69 5q0 36 21.5 61.5t65.5 25.5t66.5 -25.5t22.5 -61.5q0 -27 -9 -55t-25.5 -53.5t-39 -46.5t-50.5 -35l-62 53q34 9 54 26t28 34q-27 9 -49.5 29t-22.5 48z" />
    <glyph glyph-name="hyphen" unicode="-" horiz-adv-x="570" 
d="M53 365q40 -15 101 -20t127.5 -5t129 4t105.5 8q-8 -32 -14.5 -69t-19.5 -71q-47 6 -100 9t-108.5 3t-110.5 -3t-104 -9q-1 31 -1 74t-5 79z" />
    <glyph glyph-name="period" unicode="." horiz-adv-x="300" 
d="M61 5q0 36 22 61.5t66 25.5q43 0 65.5 -25.5t22.5 -61.5q0 -37 -22.5 -63t-65.5 -26q-44 0 -66 26t-22 63z" />
    <glyph glyph-name="slash" unicode="/" horiz-adv-x="550" 
d="M490 609q-47 -88 -87 -178.5t-75.5 -180.5t-66.5 -178t-59 -169l-142 50q39 85 72 168t64.5 169.5t63 179.5t67.5 197z" />
    <glyph glyph-name="zero" unicode="0" horiz-adv-x="640" 
d="M59 291q0 99 20.5 167.5t55.5 110.5t81.5 61t99.5 19t100.5 -19t83 -61t56.5 -110.5t21 -167.5q0 -100 -21 -168.5t-56.5 -111t-83 -61t-100.5 -18.5t-99.5 18.5t-81.5 61t-55.5 111t-20.5 168.5zM212 291q0 -61 7.5 -102t21 -66t33 -36t42.5 -11q24 0 43.5 11t33.5 36
t21.5 66t7.5 102q0 60 -7.5 101t-21.5 66.5t-33.5 36.5t-43.5 11q-23 0 -42.5 -11t-33 -36.5t-21 -66.5t-7.5 -101z" />
    <glyph glyph-name="one" unicode="1" horiz-adv-x="440" 
d="M363 633q-13 -73 -21 -165t-11 -185.5t0 -181t13 -151.5l-180 -3q7 55 12 120t7 133.5t1.5 138.5t-3.5 136l-138 -42q5 32 -1 58t-20 58l180 86z" />
    <glyph glyph-name="two" unicode="2" horiz-adv-x="615" 
d="M113 -62q-2 32 -9.5 72.5t-16.5 85.5q38 22 80.5 62.5t81.5 88.5t70 98.5t46 92.5q13 35 -12 50t-72 8q-51 -8 -108 -22t-120 -46l-26 175q33 3 65 10t63.5 14t64 13t66.5 8q66 2 121.5 -11.5t91 -43t45 -74.5t-17.5 -105q-17 -41 -45.5 -89.5t-61.5 -96t-68 -88
t-65 -65.5q42 0 87.5 0.5t87.5 2t78 5t59 8.5q-15 -35 -29.5 -70t-28.5 -70q-40 -3 -96 -4t-115.5 -2t-116.5 -2.5t-99 -4.5z" />
    <glyph glyph-name="three" unicode="3" horiz-adv-x="630" 
d="M72 105q47 -32 104.5 -44t120.5 -7q57 5 88.5 25.5t31.5 71.5q0 45 -22 66t-70 23q-30 1 -64 -2t-65.5 -9t-58.5 -15.5t-42 -19.5q-14 39 -27.5 72.5t-29.5 74.5q28 -6 59.5 -5.5t66 4t70.5 8.5t73 8q16 17 32.5 39.5t26.5 43.5q15 32 1 50.5t-55 20.5q-26 2 -57.5 -0.5
t-62.5 -9.5t-58.5 -17.5t-44.5 -23.5l-39 166q41 -4 75 0.5t66 10.5t65.5 11t74.5 2q33 -2 70 -9t68 -23t51 -43t20 -70q0 -39 -17 -85.5t-49 -79.5q48 -21 75.5 -67.5t27.5 -125.5q-1 -99 -56.5 -148.5t-151.5 -58.5q-32 -3 -73 -5t-84 -2t-84 2t-72 8z" />
    <glyph glyph-name="four" unicode="4" horiz-adv-x="670" 
d="M582 639q-18 -128 -22.5 -248.5t-3.5 -236.5q29 5 53.5 11t40.5 14q-10 -29 -18.5 -64.5t-29.5 -80.5q-9 -2 -20 -2.5t-24 -1.5v-45t1 -45h-170q2 22 3 43t3 42q-59 -1 -110.5 0t-77.5 3q-41 4 -66.5 12.5t-40 23.5t-21 36.5t-9.5 51.5q-3 45 -3 102.5t3 120.5t9.5 128
t15.5 125q30 -2 54.5 -2t48.5 1.5t48.5 4.5t53.5 6q-18 -54 -30 -112.5t-20 -116.5t-12 -113.5t-6 -102.5q-2 -32 10.5 -45.5t46.5 -14.5q14 -1 44 0t68 4q2 58 3 116t0.5 119t-2 127t-3.5 140h183z" />
    <glyph glyph-name="five" unicode="5" horiz-adv-x="630" 
d="M61 154q22 -24 52.5 -43.5t65 -33t69.5 -21t67 -6.5q29 1 48.5 8t31 18.5t16.5 27t6 32.5q2 36 -20.5 59t-82.5 28q-15 1 -34.5 3t-40.5 4t-42.5 5.5t-39.5 7.5q-22 4 -40.5 13.5t-30.5 24.5t-17 36t0 50q5 32 14.5 69.5t17.5 66.5q-12 -1 -22.5 -2t-20.5 -2
q0 14 -0.5 34t-1.5 41.5t-2.5 43t-3.5 37.5q24 -9 64.5 -14t89.5 -7t102 -1.5t102.5 2t91 4t67.5 4.5q-3 -14 -6.5 -32.5t-7.5 -38t-8.5 -39t-10.5 -34.5q-48 6 -121.5 9t-150.5 2q-5 -13 -11 -28t-11 -30.5t-9.5 -30t-6.5 -24.5q-6 -29 11 -39.5t58 -14.5q18 -2 38 -3
t40.5 -2t40 -2.5t36.5 -5.5q69 -16 99 -60t30 -129q0 -50 -15 -86.5t-41.5 -62t-63.5 -39.5t-80 -18q-32 -3 -76 -2t-90 5.5t-90 12t-76 17.5z" />
    <glyph glyph-name="six" unicode="6" horiz-adv-x="670" 
d="M561 417q-17 26 -42.5 45.5t-53.5 33t-57 20t-53 6.5q-34 0 -59 -16.5t-42.5 -46t-27 -70t-12.5 -88.5q38 40 80 58.5t93 18.5q50 0 90.5 -16t69.5 -45t45 -69.5t16 -90.5q0 -47 -19 -88.5t-53.5 -73t-84 -50t-109.5 -18.5q-59 0 -110 20.5t-89 64t-60 110.5t-22 161
q0 27 4.5 65.5t16.5 79.5t32.5 81.5t53 72t78 51.5t107.5 20q37 0 73 -9.5t71 -24t69 -32.5l68 -36zM354 251q-35 0 -70 -17t-56 -49q3 -27 11 -51t22.5 -41t36.5 -27t53 -10q51 0 81.5 27.5t30.5 74.5q0 41 -26 67t-83 26z" />
    <glyph glyph-name="seven" unicode="7" horiz-adv-x="610" 
d="M165 14q54 43 91.5 96t62 106.5t37.5 102.5t19 84q4 26 2.5 43.5t-11 27t-28.5 12.5t-50 0q-56 -5 -114.5 -18.5t-103.5 -30.5q-3 59 -8.5 107.5t-13.5 90.5q76 -20 161.5 -17.5t168.5 17.5q30 6 61 6t55.5 -10.5t40 -34t15.5 -64.5q0 -105 -20.5 -201t-52 -176
t-70 -140.5t-74.5 -94.5z" />
    <glyph glyph-name="eight" unicode="8" horiz-adv-x="680" 
d="M340 653q48 0 95.5 -10.5t84.5 -33t60 -58t23 -85.5q0 -48 -23.5 -91t-80.5 -77q42 -12 68 -32.5t41 -44.5t20.5 -48.5t5.5 -44.5q0 -46 -21 -82.5t-59 -62t-92.5 -39.5t-121.5 -14q-60 0 -113.5 12t-94 36t-64 60.5t-23.5 84.5q0 20 4 42.5t17.5 46t39 46.5t68.5 44
q-52 26 -75 68.5t-23 99.5q0 48 23.5 83t61 57t84.5 32.5t95 10.5zM211 144q0 -29 10.5 -48.5t28 -31.5t41 -17t49.5 -5q25 0 48 5t41 17t28.5 31.5t10.5 47.5q0 43 -30.5 71.5t-98.5 28.5t-98 -29t-30 -70zM340 540q-46 0 -75 -20t-29 -63q0 -33 23.5 -59.5t75.5 -26.5
q26 0 46.5 7.5t34 19.5t20.5 27t7 30q0 42 -27.5 63.5t-75.5 21.5z" />
    <glyph glyph-name="nine" unicode="9" horiz-adv-x="670" 
d="M122 169q17 -26 42 -46.5t53 -35t56.5 -22t52.5 -7.5q69 0 103.5 52t39.5 149q-39 -38 -81.5 -57.5t-93.5 -19.5q-50 0 -90.5 17.5t-69.5 48t-45 73t-16 92.5q0 51 19 95t53.5 76t84 50.5t109.5 18.5q59 0 110 -20.5t89 -64t60 -110.5t22 -161q0 -27 -4.5 -65.5
t-16.5 -79.5t-32.5 -81.5t-53 -72t-78 -51.5t-107.5 -20q-38 0 -74 10t-71.5 25t-69.5 33t-67 35zM327 305q36 0 70.5 20.5t57.5 59.5q-2 29 -10 54.5t-23 44t-38 29t-54 10.5q-51 0 -81 -32t-30 -79q0 -20 6.5 -39t19.5 -34t33.5 -24.5t48.5 -9.5z" />
    <glyph glyph-name="colon" unicode=":" horiz-adv-x="300" 
d="M61 455q0 36 22 61.5t66 25.5q43 0 65.5 -25.5t22.5 -61.5q0 -37 -22.5 -63t-65.5 -26q-44 0 -66 26t-22 63zM61 105q0 36 22 61.5t66 25.5q43 0 65.5 -25.5t22.5 -61.5q0 -37 -22.5 -63t-65.5 -26q-44 0 -66 26t-22 63z" />
    <glyph glyph-name="semicolon" unicode=";" horiz-adv-x="300" 
d="M61 455q0 36 22 61.5t66 25.5q43 0 65.5 -25.5t22.5 -61.5q0 -37 -22.5 -63t-65.5 -26q-44 0 -66 26t-22 63zM61 105q0 36 21.5 61.5t65.5 25.5t66.5 -25.5t22.5 -61.5q0 -27 -9 -55t-25.5 -53.5t-39 -46.5t-50.5 -35l-62 53q34 9 54 26t28 34q-27 9 -49.5 29t-22.5 48z
" />
    <glyph glyph-name="less" unicode="&#x3c;" horiz-adv-x="500" 
d="M304 -127q-28 50 -59 103t-64.5 106t-69 105t-72.5 99q37 47 72.5 99t68.5 105t64 106t59 103l146 -87q-65 -73 -124 -157t-111 -169q24 -38 52 -79.5t58 -84.5t61.5 -84.5t64.5 -77.5z" />
    <glyph glyph-name="equal" unicode="=" horiz-adv-x="570" 
d="M59 338q-1 26 -2 59.5t-4 63.5q48 -14 106.5 -19t120.5 -4.5t122.5 4.5t111.5 8q-5 -25 -11.5 -54t-16.5 -58q-103 13 -212 12t-215 -12zM59 143q-1 26 -2 59.5t-4 63.5q48 -14 106.5 -19t120.5 -4.5t122.5 4.5t111.5 8q-5 -25 -12 -54t-17 -58q-103 13 -211.5 12
t-214.5 -12z" />
    <glyph glyph-name="greater" unicode="&#x3e;" horiz-adv-x="500" 
d="M49 -40q33 36 64.5 77.5t61.5 84.5t58 84.5t52 79.5q-52 85 -111 169t-124 157l146 87q28 -50 59 -103t64 -106t68.5 -105t72.5 -99q-37 -47 -72.5 -99t-69 -105t-64.5 -106t-59 -103z" />
    <glyph glyph-name="question" unicode="?" horiz-adv-x="600" 
d="M193 0q0 34 26.5 58t75.5 24t76 -24t27 -58q0 -35 -27 -59t-76 -24t-75.5 24t-26.5 59zM238 130q-2 34 -4.5 63t-8.5 59q43 36 80.5 79t59.5 91q22 46 -1.5 66t-73.5 13q-56 -8 -109 -34.5t-104 -53.5q-6 49 -12 95t-12 94q30 0 59.5 7t59.5 15.5t61 15.5t64 9
q56 2 102 -6.5t78.5 -27t50.5 -47.5t18 -69q0 -39 -13 -76.5t-34.5 -71.5t-51 -63t-62.5 -51q-3 -23 -7.5 -51.5t-8.5 -51.5z" />
    <glyph glyph-name="at" unicode="@" horiz-adv-x="680" 
d="M210 341q12 0 27 4.5t33.5 9.5t41 8t49.5 2q23 0 43.5 -5.5t35.5 -18t23.5 -32.5t8.5 -48q-2 -34 -1 -70t3 -69q12 -1 23.5 2.5t21 14t15 29t5.5 47.5q0 94 -49.5 144t-151.5 50q-89 0 -143.5 -47t-57.5 -149q-3 -95 50 -145t168 -50q35 0 65 2t55 8t45.5 17.5t38.5 31.5
l29 -93q-53 -18 -115.5 -30.5t-116.5 -12.5q-64 0 -119 15.5t-96 48.5t-64.5 84.5t-23.5 123.5q0 58 19.5 108.5t57 87.5t90.5 58.5t121 21.5q60 0 112 -17.5t90.5 -51t60 -83t21.5 -112.5q0 -42 -13.5 -72t-35.5 -49.5t-50 -28t-58 -7.5h-71.5h-44.5t-25.5 0.5t-14.5 0.5
q-51 1 -84 18t-34 62q0 25 8.5 43.5t24 30.5t36.5 18t45 6q27 1 45.5 0t34.5 -3v15q-1 20 -18 29t-43 8q-28 -2 -53.5 -11t-45.5 -32zM316 129q20 -2 34.5 -1.5t32.5 2.5q1 9 1 26t2 27q-17 2 -32.5 3.5t-32.5 -0.5q-14 -2 -22.5 -10.5t-8.5 -19.5t6.5 -18.5t19.5 -8.5z" />
    <glyph glyph-name="A" unicode="A" horiz-adv-x="770" 
d="M31 -27q38 69 71 147t64 162t62 173t65 181l203 4q30 -93 58.5 -179.5t58 -168.5t60.5 -161.5t66 -157.5l-184 -43q-12 45 -24 88t-23 85q-62 8 -122 6.5t-121 -11.5q-12 -40 -24 -81t-26 -86zM389 465q-25 -57 -43.5 -109.5t-35.5 -105.5q37 -7 79.5 -11.5t80.5 -6.5
q-38 128 -81 233z" />
    <glyph glyph-name="B" unicode="B" horiz-adv-x="660" 
d="M59 -60q10 79 16 157.5t6.5 162t-3.5 175t-14 197.5h128q32 4 73.5 7t106.5 -1q36 -2 73 -9t66.5 -23.5t48 -44t18.5 -70.5q0 -39 -18 -84t-55 -77q25 -8 45 -21t34 -34.5t22 -52.5t8 -74q0 -54 -16 -90.5t-44.5 -59.5t-67.5 -33.5t-87 -13.5q-62 -3 -102.5 -5
t-67.5 -2.5t-44.5 -0.5h-33.5zM228 207q-1 -41 0.5 -80t3.5 -76q31 -2 66 1.5t73 11.5q48 9 64.5 32t14.5 57q-2 37 -26 58t-67 19q-37 -2 -70 -7t-59 -16zM247 507q-11 -87 -15 -177q28 2 56.5 6.5t69.5 6.5q21 19 36.5 47t15.5 55q0 29 -15 49.5t-57 23.5q-49 3 -91 -11z
" />
    <glyph glyph-name="C" unicode="C" horiz-adv-x="610" 
d="M547 -63q-80 -9 -158 -7.5t-138 20.5q-88 28 -142.5 113.5t-54.5 231.5q0 63 12 119t33.5 101t51 76t65.5 44q42 15 87 11.5t92.5 -11.5t98.5 -14.5t105 1.5q-8 -21 -15.5 -39t-14.5 -35.5l-14 -35t-15 -38.5q-33 10 -60.5 20t-52.5 17t-49.5 8t-51.5 -7
q-18 -5 -35.5 -23t-31.5 -47t-23 -68.5t-9 -88.5q0 -48 10 -82t26 -57.5t37 -38t44 -22.5q21 -8 46 -10t51.5 0.5t52 10t47.5 18.5z" />
    <glyph glyph-name="D" unicode="D" horiz-adv-x="660" 
d="M408 -45q-51 -15 -109 -14t-121 2l-119 -3q10 79 16 157.5t6.5 162t-3.5 175t-14 197.5h142q56 5 108 4.5t97 -10t81.5 -31t63 -60t40.5 -96t14 -138.5q0 -75 -14.5 -133t-41.5 -100.5t-64 -70.5t-82 -42zM438 291q0 72 -14 119t-39 73.5t-60 34.5t-77 1
q-14 -111 -18.5 -226.5t1.5 -219.5q29 -2 57.5 0.5t50.5 10.5q47 16 73 72.5t26 134.5z" />
    <glyph glyph-name="E" unicode="E" horiz-adv-x="600" 
d="M304 59q16 1 49 4.5t70.5 10.5t74 16.5t59.5 21.5q-1 -9 -7 -28.5t-13.5 -43t-15.5 -47.5t-14 -40q-31 -5 -71.5 -7.5t-83 -3.5t-83.5 0.5t-73 5.5q-39 4 -64 16t-40 31.5t-21.5 47.5t-9.5 65q-5 67 -5 127.5t4 122t11 128.5t16 147q50 -5 110 -6.5t122.5 1t124.5 8
t116 13.5q-7 -38 -10 -78t-5 -83q-27 5 -63.5 7.5t-77 3t-80 -0.5t-72.5 -3q-8 -39 -12.5 -73t-8.5 -66q39 -3 82 -4t85.5 0t82.5 5t74 12q-1 -15 -2.5 -34t-3 -39t-4 -40t-4.5 -37q-33 4 -71.5 7t-79.5 4.5t-83 1.5t-82 -2q0 -22 0.5 -44.5t1.5 -47.5q1 -50 16.5 -65.5
t60.5 -13.5z" />
    <glyph glyph-name="F" unicode="F" horiz-adv-x="590" 
d="M53 -60q26 173 24 345t-16 350q115 -12 240 -6.5t250 23.5q-7 -38 -10 -78t-5 -83q-66 11 -140 11.5t-144 -4.5q-8 -38 -12 -76t-6 -77q38 -2 79.5 -3t82 0.5t79 5t70.5 11.5q-1 -15 -2.5 -34t-3 -39t-4 -40t-4.5 -37q-32 4 -68 7t-75 4.5t-78.5 1.5t-77.5 -1
q1 -67 5.5 -136.5t9.5 -144.5h-194z" />
    <glyph glyph-name="G" unicode="G" horiz-adv-x="690" 
d="M657 214q-3 -31 -11 -70t-18 -78t-21 -74t-20 -57q-55 -4 -101 -4.5t-84 -0.5q-93 0 -159 24t-108 70.5t-61.5 114.5t-19.5 156q0 62 12 117.5t33.5 100t50.5 75.5t63 44q44 17 92 14t97 -11t99 -15t98 2q-14 -35 -28 -73.5t-29 -76.5q-23 6 -49.5 16t-55 18.5
t-56.5 11.5t-53 -4q-20 -6 -38.5 -26.5t-33 -51.5t-23 -70t-8.5 -82q0 -123 45.5 -179t140.5 -56q31 0 66 9q8 23 14 47t10 50q5 35 -7 51.5t-44 10.5q-21 -4 -47 -16t-44 -24q10 37 10 73.5t-11 74.5q46 0 96.5 7t97.5 3q34 -3 55.5 -14t33 -27.5t15 -37t1.5 -42.5z" />
    <glyph glyph-name="H" unicode="H" horiz-adv-x="710" 
d="M671 639q-29 -171 -37 -346.5t3 -352.5l-181 -4q8 72 12 144.5t6 146.5q-58 5 -117 6t-119 -2q-2 -72 -1.5 -144.5t3.5 -144.5l-182 -1q23 171 29.5 343t-9.5 355h184q-7 -70 -12 -141t-8 -143q56 -4 116 -4.5t117 4.5q0 72 -1.5 142.5t-3.5 141.5h201z" />
    <glyph glyph-name="I" unicode="I" horiz-adv-x="450" 
d="M49 -57q-1 35 -2.5 75t-4.5 71q22 -8 45.5 -12.5t48.5 -6.5q10 110 11.5 215.5t-5.5 227.5q-23 -1 -46.5 -3t-46.5 -4q-1 35 -2.5 75t-4.5 71q41 -13 86 -17.5t91.5 -4t93.5 4.5t92 8q-10 -53 -16.5 -85.5t-12.5 -52.5q-17 2 -35 3.5t-36 3.5q-8 -108 -9.5 -217t1.5 -225
q28 2 55 5t53 5q-7 -34 -12.5 -68t-16.5 -70q-75 10 -157 10.5t-170 -9.5z" />
    <glyph glyph-name="J" unicode="J" horiz-adv-x="640" 
d="M136 185q9 -24 19 -46t22 -39.5t26.5 -28.5t31.5 -12q18 -1 30 2t21 14.5t15.5 33t12.5 57.5q6 39 8.5 82.5t2 88.5t-3.5 90.5t-8 88.5q-55 -1 -109 -4.5t-106 -8.5q-1 35 -2.5 75t-4.5 72q51 -11 118.5 -15t139.5 -4t141.5 3t125.5 7q-7 -33 -11.5 -68t-15.5 -71
q-49 6 -101 9q-4 -97 -6.5 -194t-14.5 -199q-5 -44 -18 -78.5t-36.5 -59t-59 -37t-85.5 -12.5q-81 1 -142.5 32t-109.5 100z" />
    <glyph glyph-name="K" unicode="K" horiz-adv-x="660" 
d="M262 639q-5 -58 -9.5 -116.5t-7.5 -118.5q67 52 136.5 109.5t133.5 129.5l118 -147q-85 -50 -158.5 -103.5t-143.5 -108.5q70 -55 144.5 -108t159.5 -103l-118 -147q-66 74 -138.5 132t-141.5 111q-2 -113 3 -227l-182 -1q23 171 29.5 343t-9.5 355h184z" />
    <glyph glyph-name="L" unicode="L" horiz-adv-x="600" 
d="M303 59q16 0 49.5 3t72.5 8.5t78 13t66 17.5q-10 -35 -20.5 -73t-27.5 -76q-77 -8 -160.5 -10.5t-161.5 6.5q-65 8 -95.5 39t-33.5 88q-8 134 -1.5 273.5t26.5 279.5q46 -3 94.5 0t111.5 10q-17 -60 -28.5 -128.5t-19.5 -137t-12.5 -132.5t-6.5 -115q-1 -21 1.5 -34
t10.5 -20.5t21.5 -10t35.5 -1.5z" />
    <glyph glyph-name="M" unicode="M" horiz-adv-x="840" 
d="M793 639q-15 -104 -20.5 -194t-5.5 -173.5t3.5 -165t7.5 -168.5l-189 -2q6 66 9.5 123t5 110t2 106t-0.5 111q-35 -53 -66.5 -107t-58.5 -106l-138 -3q-26 51 -56 103.5t-62 105.5q-1 -58 -2 -112.5t-1.5 -108l-1 -107t-0.5 -109.5l-180 -1q8 61 15 113.5t11.5 103.5
t7 102t2.5 108t-4 123.5t-11 147.5h171q18 -37 39 -78.5t44 -83.5t47.5 -82.5t48.5 -75.5q24 35 50 75.5t51.5 82.5t48 83.5t40.5 78.5h193z" />
    <glyph glyph-name="N" unicode="N" horiz-adv-x="690" 
d="M663 639q-29 -171 -37 -346.5t3 -352.5l-181 -4q-49 116 -100.5 226t-106.5 215q-5 -108 -6.5 -216.5t3.5 -218.5l-182 -1q23 171 29.5 343t-9.5 355h184q10 -29 32 -80t50 -112.5t60 -127t63 -123.5q4 111 2 221.5t-5 221.5h201z" />
    <glyph glyph-name="O" unicode="O" horiz-adv-x="660" 
d="M54 290q0 95 21.5 163t59 112t87.5 64.5t106 20.5q57 0 107.5 -20.5t88.5 -64.5t60 -112t22 -163q0 -96 -22 -164t-60 -111.5t-88.5 -64t-107.5 -20.5q-56 0 -106 20.5t-87.5 64t-59 111.5t-21.5 164zM214 290q0 -62 9 -103.5t24.5 -66.5t36.5 -35t44 -10q24 0 44.5 10
t36.5 35t25 66.5t9 103.5q0 61 -9 102.5t-25 66.5t-36.5 35.5t-44.5 10.5q-23 0 -44 -10.5t-36.5 -35.5t-24.5 -66.5t-9 -102.5z" />
    <glyph glyph-name="P" unicode="P" horiz-adv-x="670" 
d="M258 639q32 1 70 1.5t89 -1.5q43 -2 81 -14.5t66.5 -39.5t44.5 -68.5t16 -101.5q0 -53 -17 -90.5t-46 -63t-68.5 -40t-85.5 -21.5q-43 -7 -86.5 -10t-86.5 -3q-1 -122 3 -245l-182 -1q23 171 29.5 343t-9.5 355h182zM372 515q-35 2 -66 -1t-57 -9q-4 -50 -6.5 -100
t-4.5 -101q33 -3 70.5 -2t76.5 9q42 8 62 33t18 76q-4 91 -93 95z" />
    <glyph glyph-name="Q" unicode="Q" horiz-adv-x="660" 
d="M403 -110q-4 11 -7.5 22t-8.5 24q-29 -6 -59 -6q-56 0 -106 20.5t-87.5 64t-59 111.5t-21.5 164q0 95 21.5 163t59 112t87.5 64.5t106 20.5q57 0 107.5 -20.5t88.5 -64.5t60 -112t22 -163q0 -128 -38.5 -206.5t-100.5 -116.5q5 -11 10 -21l10 -20zM214 290q0 -62 9 -103
t24 -66t35.5 -35.5t43.5 -10.5q-13 28 -25.5 53l-21.5 43l90 36q6 -21 15 -45t20 -50q18 24 28.5 67t10.5 111q0 61 -9 102.5t-25 66.5t-36.5 35.5t-44.5 10.5q-23 0 -44 -10.5t-36.5 -35.5t-24.5 -66.5t-9 -102.5z" />
    <glyph glyph-name="R" unicode="R" horiz-adv-x="670" 
d="M260 639q32 1 69.5 1.5t87.5 -1.5q43 -2 81 -14.5t66.5 -39.5t44.5 -68.5t16 -101.5q-1 -61 -22.5 -101.5t-59.5 -66.5q19 -67 43 -138t53 -143l-168 -42q-8 72 -23 142.5t-32 134.5q-2 0 -4 -0.5t-4 -0.5q-43 -7 -86.5 -10t-86.5 -3q-1 -122 3 -245l-182 -1
q23 171 29.5 343t-9.5 355h184zM372 515q-35 2 -66 -1t-57 -9q-4 -50 -6.5 -100t-4.5 -101q33 -3 70.5 -2t76.5 9q42 8 62 33t18 76q-4 91 -93 95z" />
    <glyph glyph-name="S" unicode="S" horiz-adv-x="660" 
d="M561 445q-26 23 -54.5 39t-55.5 25.5t-50.5 14t-41.5 4.5q-39 0 -58.5 -19.5t-19.5 -50.5q0 -26 11 -45.5t29 -34.5t40.5 -26.5t45.5 -20.5q28 -14 64.5 -30t68.5 -38t54 -52.5t22 -73.5q0 -96 -64 -154t-197 -58q-43 0 -89 9t-89.5 26t-83 40t-68.5 52l96 146
q16 -33 44 -61.5t61 -49.5t66.5 -33t59.5 -12q55 0 75.5 17t20.5 45q0 23 -8 41t-24.5 33t-42 29t-59.5 30t-70.5 35.5t-66.5 45t-49.5 58t-19.5 76.5q0 40 14.5 76.5t44.5 64t76 43.5t110 16q52 0 119.5 -15.5t136.5 -44.5z" />
    <glyph glyph-name="T" unicode="T" horiz-adv-x="650" 
d="M38 503q-1 35 -2.5 75t-4.5 72q34 -7 80.5 -11t99 -6t108.5 -2t109.5 1.5t102 3.5t85.5 5q-7 -33 -11.5 -68t-15.5 -71q-39 5 -83.5 7.5t-92.5 4.5q-12 -81 -18 -151.5t-7.5 -138t0.5 -136.5t7 -148l-194 -4q10 85 15 153t6.5 133.5t0 134.5t-3.5 157q-49 -2 -95 -4.5
t-86 -6.5z" />
    <glyph glyph-name="U" unicode="U" horiz-adv-x="670" 
d="M632 639q-11 -69 -17.5 -127.5t-9.5 -111.5t-4 -102t-1 -97q0 -51 -7.5 -100t-34.5 -87t-80 -61t-143 -23q-80 0 -131.5 17t-81 46t-39 68t-6.5 84q4 63 7 122t3 118.5t-3 122t-11 131.5h189q-8 -78 -13 -140t-8 -115t-4 -100.5t-1 -96.5q0 -30 3.5 -54t14 -40.5
t30 -25.5t53.5 -9t54.5 9t31.5 25.5t14.5 39.5t5.5 51q5 110 1 225t-8 231h196z" />
    <glyph glyph-name="V" unicode="V" horiz-adv-x="770" 
d="M215 646q23 -75 42 -141.5t38.5 -131t41.5 -128.5t52 -133q46 112 85 245t81 290l184 -43q-35 -78 -66 -157.5t-60.5 -161.5t-58 -168.5t-58.5 -179.5l-203 4q-34 91 -65 180.5t-62 173.5t-64 162t-71 147z" />
    <glyph glyph-name="W" unicode="W" horiz-adv-x="900" 
d="M876 602q-27 -69 -50.5 -150.5t-44.5 -168.5t-41 -175.5t-41 -172.5l-154 -4q-9 46 -21.5 98.5t-25 105.5t-25.5 105.5t-23 98.5q-11 -46 -23.5 -98.5t-25.5 -105.5t-25 -105.5t-21 -98.5l-154 4q-21 84 -41 172.5t-41 175.5t-44.5 168.5t-50.5 150.5l155 43
q18 -75 31.5 -136t25.5 -119t23.5 -116.5t24.5 -127.5q13 66 27 125.5t27 119t25.5 120t22.5 128.5h128q13 -81 27 -149t27 -128t25.5 -113t22.5 -103q13 69 24.5 127.5t23.5 116.5t25.5 119t31.5 136l155 -43v0z" />
    <glyph glyph-name="X" unicode="X" horiz-adv-x="650" 
d="M177 642q35 -57 70.5 -113t73.5 -111q37 54 73.5 110.5t72.5 117.5l147 -88q-54 -66 -105.5 -132t-100.5 -133q51 -70 103.5 -138t106.5 -136l-127 -85q-43 63 -84.5 122.5t-83.5 117.5q-44 -63 -83.5 -124.5t-74.5 -121.5l-132 90q49 69 99.5 137t101.5 140
q-52 70 -102.5 136t-101.5 129z" />
    <glyph glyph-name="Y" unicode="Y" horiz-adv-x="660" 
d="M226 -64q10 78 14.5 144.5t6.5 131.5q-56 85 -111.5 172.5t-123.5 176.5l148 88q42 -73 80.5 -144t81.5 -143q43 62 85.5 129.5t93.5 156.5l147 -88q-60 -75 -118.5 -154t-117.5 -160h1q-2 -75 0 -150t7 -156l-194 -4v0z" />
    <glyph glyph-name="Z" unicode="Z" horiz-adv-x="580" 
d="M39 -62q-1 30 -2.5 67t-5.5 70q94 107 166.5 218t128.5 219q-104 0 -172.5 -2.5t-115.5 -7.5q-1 35 -2 75t-4 72q51 -14 117 -19t136.5 -4.5t139 4.5t123.5 8q-8 -32 -11.5 -66t-15.5 -78q-83 -109 -157.5 -217t-132.5 -213q61 0 109 1t85.5 2.5t66 3t51.5 3.5
q-7 -33 -12.5 -67t-16.5 -70q-29 4 -66.5 6.5t-80 3.5t-87.5 1t-88 -1t-82.5 -3.5t-70.5 -5.5z" />
    <glyph glyph-name="bracketleft" unicode="[" horiz-adv-x="500" 
d="M404 -113q-72 13 -157.5 12t-163.5 -8q18 97 25 197t6.5 201.5t-7 203.5t-15.5 204q80 -18 167.5 -19t173.5 7q-7 -33 -12.5 -67t-16.5 -69q-24 5 -60 7t-74 3q-5 -62 -8.5 -123.5t-5.5 -127t-3 -138t-1 -154.5q46 -1 94.5 0.5t86.5 6.5q-7 -33 -12.5 -67t-16.5 -69z" />
    <glyph glyph-name="backslash" unicode="\" horiz-adv-x="950" 
d="M639 158q13 52 24 103.5t23 103t25.5 103.5t30.5 107l143 -34q-20 -45 -38 -90.5t-33 -93.5q33 2 61 4.5t56 5.5q-8 -32 -14.5 -59t-19.5 -61q-32 4 -58 6.5t-56 4.5q-18 -63 -35.5 -126.5t-35.5 -127.5l-148 -4q-9 38 -21 79.5t-24 84l-24 85t-22 81.5q-29 -93 -50 -172
t-40 -158l-148 4q-19 63 -36 126.5t-36 127.5q-37 -2 -72 -4.5t-67 -6.5q-1 31 -2 64t-6 69q22 -8 51 -13t64 -8q-16 46 -33 91.5t-37 90.5l143 34q33 -105 57 -206.5t48 -213.5q19 61 34 112.5t27 100t22.5 97t20.5 104.5h121q13 -62 24.5 -114.5t23.5 -100.5t26 -95.5
t31 -100.5z" />
    <glyph glyph-name="bracketright" unicode="]" horiz-adv-x="500" 
d="M63 23q38 -5 81.5 -6.5t89.5 -0.5q8 137 6 272t-14 271q-38 -1 -74 -3t-60 -7q-11 35 -16.5 69t-12.5 67q86 -8 173.5 -7t167.5 19q-19 -204 -24 -407.5t16 -398.5q-78 7 -162 8t-156 -12q-6 32 -9.5 66.5t-5.5 69.5z" />
    <glyph glyph-name="asciicircum" unicode="^" horiz-adv-x="450" 
d="M294 446q-14 37 -30 74.5t-38 75.5q-24 -44 -40 -81t-33 -75l-116 53q42 48 75 108.5t54 126.5l129 -2q18 -66 51 -123.5t68 -109.5z" />
    <glyph glyph-name="underscore" unicode="_" horiz-adv-x="570" 
d="M59 -69q-1 35 -2.5 75t-4.5 72q49 -14 108 -19t121 -4.5t122.5 4.5t111.5 8q-7 -33 -12.5 -67t-16.5 -70q-102 13 -211.5 12.5t-215.5 -11.5z" />
    <glyph glyph-name="grave" unicode="`" horiz-adv-x="300" 
d="M146 506q-21 57 -41 96.5t-47 81.5l103 51q17 -52 38 -98.5t42 -82.5q-27 -14 -48 -24t-47 -24z" />
    <glyph glyph-name="a" unicode="a" horiz-adv-x="610" 
d="M80 378q38 4 67.5 12t59.5 15.5t64 12.5t82 4q44 -2 81.5 -13t64.5 -33.5t41.5 -55.5t13.5 -78q-2 -73 1 -149.5t13 -152.5h-91.5h-98.5t-81.5 0.5t-40.5 0.5q-45 1 -83 7.5t-66 21t-43.5 38.5t-15.5 61q-1 42 14.5 70.5t42.5 46.5t64 26t79 9q40 2 82 -0.5t82 -8.5v25
q-1 42 -36.5 62t-87.5 16q-50 -3 -96.5 -18.5t-83.5 -53.5zM270 35q32 -4 64.5 -2.5t66.5 6.5q2 17 4 39t4 37q-34 6 -66 8.5t-67 -0.5q-28 -2 -47 -10t-19 -33q0 -23 14.5 -33t45.5 -12z" />
    <glyph glyph-name="b" unicode="b" horiz-adv-x="660" 
d="M256 627q-10 -54 -17 -112.5t-12 -118.5q19 1 38 3.5t41 5t47.5 4t58.5 0.5q43 -2 80 -16t64.5 -42.5t43 -72t15.5 -103.5q0 -53 -16 -93.5t-44 -69t-67 -44t-85 -17.5q-58 -3 -96 -5t-64 -2.5t-43.5 -0.5h-32.5l-112 -3q10 79 16 156.5t6.5 160t-3.5 173.5t-14 197h196z
M220 258q-3 -105 3 -200q29 -3 64.5 -0.5t77.5 9.5q50 8 76 33.5t24 79.5q-2 57 -31.5 82t-82.5 23q-79 -3 -131 -27z" />
    <glyph glyph-name="c" unicode="c" horiz-adv-x="540" 
d="M512 -49q-65 -5 -122.5 -10t-123.5 -3q-46 1 -85 17t-68 45t-45.5 71t-16.5 95q0 61 15.5 106t43.5 74.5t65.5 44t81.5 15.5q39 1 74 -3t67.5 -7.5t64 -4.5t64.5 5q-14 -41 -27 -81t-28 -82q-31 15 -75 23.5t-92 10.5q-31 1 -50.5 -5.5t-31 -19.5t-16.5 -31.5t-5 -40.5
q-1 -39 18 -67.5t69 -38.5q53 -9 104.5 -2t102.5 37z" />
    <glyph glyph-name="d" unicode="d" horiz-adv-x="640" 
d="M610 627q-14 -81 -23 -172t-12 -181.5t0 -176.5t14 -157l-112 3h-28.5t-38.5 1h-1q-26 2 -62 3.5t-87 3.5q-47 2 -85.5 17.5t-66.5 44t-44 69t-16 93.5q0 60 15.5 103.5t43 72t64.5 42.5t80 16q31 1 56 -0.5t46 -3.5t39.5 -4.5t36.5 -3.5q-2 53 -6 110t-9 120h196z
M422 57q5 51 7 101.5t3 104.5q-52 19 -120 22q-53 2 -82.5 -23t-31.5 -82q-2 -54 24 -79.5t76 -33.5q35 -6 66 -9t58 -1z" />
    <glyph glyph-name="e" unicode="e" horiz-adv-x="600" 
d="M512 -47q-47 -11 -102.5 -16.5t-109.5 -2.5q-132 5 -190 63.5t-59 168.5q0 71 21.5 120t56.5 79t80.5 43.5t92.5 13.5q56 0 102 -17t79 -54t50 -94.5t14 -139.5l-337 -1q6 -38 40 -55t78.5 -19t91 8.5t76.5 28.5zM307 303q-28 0 -46 -8t-29.5 -21t-16.5 -30t-7 -35
q27 -2 50 -2t46.5 0.5t48 2t53.5 2.5q-2 19 -7 35.5t-16.5 29t-30 19.5t-45.5 7z" />
    <glyph glyph-name="f" unicode="f" horiz-adv-x="530" 
d="M387 425q-8 42 -23 66.5t-36 26.5q-11 1 -21 -3t-18 -17t-13.5 -37t-6.5 -61q-1 -11 -1.5 -20.5t-0.5 -20.5q69 1 132.5 4.5t105.5 7.5q-8 -32 -13.5 -64t-16.5 -66q-44 5 -98 8t-111 4q1 -77 6.5 -156t14.5 -153l-183 -4q8 73 12 151t5 159q-57 -3 -103 -9q-1 31 -2 69
t-6 74q20 -8 48.5 -13t61.5 -8q0 27 -0.5 53.5t-1.5 52.5q-1 38 10.5 69t36 53t62 33.5t89.5 11.5q37 0 65.5 -8t51 -26t41.5 -48t39 -75z" />
    <glyph glyph-name="g" unicode="g" horiz-adv-x="640" 
d="M430 6q-31 1 -70 2.5t-96 4.5q-48 2 -87.5 12.5t-68 33t-44.5 58.5t-16 90q0 61 15.5 99.5t43.5 61t65.5 31.5t81.5 12q49 3 89 -3t81 -9q-1 7 -1 13t-1 13h162q-8 -97 -10 -195t0 -198q2 -53 -8.5 -94t-38.5 -68.5t-76 -41.5t-120 -14q-27 0 -59 3t-63 8t-57.5 11
t-42.5 13l3 129q16 -9 40.5 -18.5t52 -17.5t57 -13t55.5 -5q64 0 88.5 18t24.5 55v9zM430 111q0 50 -0.5 90.5t-0.5 70.5q-28 8 -60.5 12.5t-66.5 6.5q-44 2 -72.5 -16t-30.5 -63q-2 -39 18.5 -59t68.5 -29q34 -7 70.5 -11t73.5 -2z" />
    <glyph glyph-name="h" unicode="h" horiz-adv-x="650" 
d="M256 627q-11 -62 -18.5 -128t-12.5 -135q35 23 78 37.5t96 14.5q95 0 146.5 -54t48.5 -164v-130.5t9 -132.5q-48 1 -89.5 2t-87.5 2q8 26 11 54.5t4 57.5t0 58t-2 56q-2 49 -25 74t-81 24q-34 -1 -62 -12.5t-52 -32.5q-2 -75 2.5 -144.5t13.5 -129.5l-180 -4
q10 79 16 156.5t6.5 160t-3.5 173.5t-14 197h196v0z" />
    <glyph glyph-name="i" unicode="i" horiz-adv-x="320" 
d="M252 404q-12 -71 -17.5 -129.5t-6.5 -112.5t1.5 -107.5t7.5 -114.5l-174 -4q7 74 11.5 128.5t5.5 105t-1.5 105t-9.5 129.5h183zM57 560q0 34 26.5 58t75.5 24t76 -24t27 -58q0 -35 -27 -59t-76 -24t-75.5 24t-26.5 59z" />
    <glyph glyph-name="j" unicode="j" horiz-adv-x="450" 
d="M192 560q0 34 26.5 58t75.5 24t76 -24t27 -58q0 -35 -27 -59t-76 -24t-75.5 24t-26.5 59zM121 29q8 -43 17 -68.5t34 -25.5q10 0 19 4.5t16 17.5t11.5 36.5t6.5 61.5q5 83 0.5 168t-19.5 174l181 2q-13 -94 -18.5 -190t3.5 -196q10 -105 -38.5 -152.5t-153.5 -46.5
q-33 0 -60 7.5t-50 25.5t-44 48.5t-41 75.5z" />
    <glyph glyph-name="k" unicode="k" horiz-adv-x="616" 
d="M256 627q-14 -80 -23 -167.5t-12 -175.5l2 -1q69 35 141 85.5t130 115.5l98 -151q-64 -29 -125 -62t-119 -68q57 -32 118 -63t133 -66l-108 -144q-77 67 -144.5 109t-126.5 76q3 -93 15 -171l-180 -4q10 79 16 156.5t6.5 160t-3.5 173.5t-14 197h196v0z" />
    <glyph glyph-name="l" unicode="l" horiz-adv-x="320" 
d="M260 627q-14 -81 -23 -171.5t-12 -180.5t0 -175t14 -156l-180 -4q10 79 16 156.5t6.5 160t-3.5 173.5t-14 197h196v0z" />
    <glyph glyph-name="m" unicode="m" horiz-adv-x="840" 
d="M220 417q-2 -11 -3.5 -20.5t-2.5 -19.5q22 17 50 27.5t65 10.5q43 0 79 -21t58 -63q24 35 62 59.5t96 24.5q34 0 64 -13.5t52 -40.5t33.5 -67.5t10.5 -95.5v-129t9 -133q-45 1 -83.5 2t-82.5 2q16 52 15 109t-1 116q0 29 -7.5 48t-18.5 30t-25.5 15.5t-29.5 4.5
q-39 0 -69 -32q1 -8 1 -16.5v-16.5v-129t9 -133q-45 1 -83.5 2t-81.5 2q15 52 14 109t-1 116q0 29 -8 48t-20.5 30t-30 15.5t-37.5 4.5q-24 0 -48 -21q-2 -72 3 -145.5t12 -151.5q-42 -1 -82.5 -2.5t-82.5 -2.5q14 118 13 236.5t-9 240.5h161z" />
    <glyph glyph-name="n" unicode="n" horiz-adv-x="650" 
d="M232 417q-2 -14 -3.5 -26.5t-3.5 -26.5q35 23 78 37.5t96 14.5q95 0 146.5 -54t48.5 -164v-130.5t9 -132.5q-48 1 -89.5 2t-87.5 2q8 26 11 54.5t4 57.5t0 58t-2 56q-2 49 -25 74t-81 24q-35 -1 -63 -13t-52 -33q0 -66 4 -134t10 -138q-48 -1 -89 -2.5t-88 -2.5
q14 115 13 236t-9 241h173z" />
    <glyph glyph-name="o" unicode="o" horiz-adv-x="590" 
d="M49 175q0 62 18 108.5t50 77t76 45.5t96 15t96 -15t76.5 -45.5t50.5 -77t18 -108.5q0 -63 -18 -109t-50.5 -76t-76.5 -45t-96 -15t-96 15t-76 45t-50 76t-18 109zM196 175q0 -56 23 -89.5t70 -33.5q48 0 70.5 33.5t22.5 89.5t-22.5 89t-70.5 33q-47 0 -70 -33t-23 -89z
" />
    <glyph glyph-name="p" unicode="p" horiz-adv-x="660" 
d="M256 427q-2 -8 -3 -14.5t-2 -14.5q32 4 69 8.5t92 2.5q43 -2 80 -14.5t64.5 -39t43 -68.5t15.5 -102q0 -53 -16 -92t-44 -65.5t-67 -40.5t-85 -16q-71 -4 -113.5 -5.5t-69.5 -2.5q3 -76 15 -149l-180 1q10 79 16 145t6.5 134.5t-3.5 147.5t-14 185h196zM232 263
q-5 -47 -8 -93t-5 -91q30 -4 66 -1.5t80 9.5q49 7 75 28t25 75q-1 28 -9 46.5t-22.5 29.5t-35.5 15.5t-47 3.5q-71 -3 -119 -22z" />
    <glyph glyph-name="q" unicode="q" horiz-adv-x="650" 
d="M610 427q-28 -164 -35.5 -317t14.5 -296l-180 1q5 41 9.5 77.5t7.5 71.5l-65 2.5t-97 4.5q-47 2 -85.5 16t-66.5 40.5t-44 65.5t-16 92q0 60 15.5 102t43 68.5t64.5 39t80 14.5q55 2 92 -2.5t69 -8.5q-1 8 -1 14.5t-1 14.5h196zM431 77q1 43 0 89t-5 100q-23 8 -51 12.5
t-59 6.5q-53 1 -83 -19t-31 -76q-1 -27 5.5 -45t19 -29.5t31.5 -18t44 -10.5q38 -6 70 -9t59 -1z" />
    <glyph glyph-name="r" unicode="r" horiz-adv-x="580" 
d="M232 417q-2 -14 -4 -28.5t-4 -29.5q29 25 64 41.5t77 16.5q22 0 48 -6.5t51.5 -21.5t49 -40.5t41.5 -63.5l-120 -100q-14 46 -36 63t-60 17q-37 0 -66.5 -13t-54.5 -37q0 -66 4.5 -133.5t9.5 -136.5q-48 -1 -89 -2.5t-88 -2.5q14 115 13 236t-9 241h173z" />
    <glyph glyph-name="s" unicode="s" horiz-adv-x="570" 
d="M485 263q-25 15 -52 27t-53 20t-49.5 12.5t-39.5 4.5q-31 0 -43 -9.5t-12 -28.5q0 -31 29 -47t73 -30t78 -27t57.5 -31t35.5 -42.5t12 -60.5q0 -22 -12.5 -43.5t-40.5 -39t-72.5 -28t-108.5 -10.5q-30 0 -62.5 2t-65 7t-64 14t-59.5 23l18 149q23 -23 50.5 -40.5t56 -30
t56 -19t50.5 -6.5q13 0 26 0.5t23.5 4.5t17 11t6.5 21q0 23 -20.5 35.5t-72.5 31.5q-33 12 -66.5 26t-61 32.5t-45 42t-17.5 53.5q0 63 53.5 99t175.5 36q50 0 111 -10.5t128 -30.5z" />
    <glyph glyph-name="t" unicode="t" horiz-adv-x="580" 
d="M543 98q-20 -45 -39 -75t-41.5 -48t-51 -26t-65.5 -8q-52 0 -89.5 11.5t-62 33.5t-36 53t-10.5 69q1 75 3 153q-34 -2 -65 -4.5t-58 -5.5q-1 31 -2 69t-6 74q23 -9 56.5 -14.5t73.5 -7.5q-2 69 -5.5 135.5t-10.5 129.5l183 -4q-8 -63 -13 -130t-7 -134q64 2 122 5t96 7
q-8 -32 -13.5 -64t-16.5 -66q-40 5 -88.5 8t-100.5 4q0 -46 3 -86q1 -38 6.5 -61.5t13.5 -36.5t18 -17t21 -3q21 2 36 26.5t23 66.5z" />
    <glyph glyph-name="u" unicode="u" horiz-adv-x="650" 
d="M426 -65q2 14 3.5 26.5t3.5 26.5q-35 -23 -78 -37.5t-96 -14.5q-95 0 -146.5 54t-48.5 164v130.5t-9 132.5q48 -1 89.5 -2t87.5 -2q-8 -26 -11 -54.5t-4 -57.5t0 -58t2 -56q2 -49 25 -74t81 -24q34 1 62 12.5t53 33.5q0 66 -4.5 134t-9.5 138q48 1 89 2.5t88 2.5
q-14 -115 -13 -236t9 -241h-173z" />
    <glyph glyph-name="v" unicode="v" horiz-adv-x="630" 
d="M199 429q11 -44 24 -84t29 -80t34 -82.5t39 -91.5q18 50 32.5 93.5t27.5 84t23.5 79.5t19.5 81q46 -8 88 -14t87 -14q-54 -104 -97 -219.5t-91 -242.5q-42 1 -92.5 1.5t-92.5 1.5q-24 56 -46 113t-45.5 114.5t-51 115.5t-61.5 116z" />
    <glyph glyph-name="w" unicode="w" horiz-adv-x="780" 
d="M763 400q-22 -44 -40 -99t-35 -115.5t-34.5 -123t-36.5 -120.5l-138 -3q-9 33 -21 72.5l-24 79t-23.5 76.5t-21.5 67q-9 -30 -21 -67t-24 -76.5t-23.5 -79t-20.5 -72.5l-138 3q-20 58 -36.5 120.5t-33.5 123t-35 116t-40 99.5l153 30q6 -34 15 -73.5t18.5 -80.5t20 -81
t19.5 -74q9 29 20.5 67t23.5 79t22.5 83.5t18.5 80.5h123q7 -34 17.5 -74.5t22.5 -82t23.5 -81t21.5 -72.5q9 32 19 70.5t20 79t19 81.5t16 77z" />
    <glyph glyph-name="x" unicode="x" horiz-adv-x="570" 
d="M163 446q30 -42 60 -82t62 -79q32 39 62.5 79t60.5 82l133 -89q-47 -45 -88.5 -88t-80.5 -86q40 -45 82 -86.5t87 -79.5l-132 -91q-31 41 -61.5 79t-62.5 76q-32 -38 -62 -76t-61 -79l-132 91q45 38 86.5 79.5t81.5 86.5q-38 43 -79.5 86t-88.5 88z" />
    <glyph glyph-name="y" unicode="y" horiz-adv-x="630" 
d="M613 360q-51 -68 -93 -132.5t-81 -129.5t-77.5 -133.5t-82.5 -144.5l-142 71q60 79 118 169q-56 72 -117.5 150t-118.5 149l145 86q42 -70 83 -137t81 -127q36 64 69.5 129.5t65.5 133.5z" />
    <glyph glyph-name="z" unicode="z" horiz-adv-x="590" 
d="M356 321q-55 0 -99 -0.5t-80 -2t-65 -3t-53 -4.5q-1 27 -2 63.5t-4 67.5q43 -11 105 -15.5t130 -5t135 2.5t121 7q-7 -33 -9 -67t-5 -68l-269 -166q87 1 160.5 6t122.5 10q-8 -29 -10.5 -61.5t-8.5 -65.5q-111 11 -229.5 12t-236.5 -11q-1 26 -2.5 53.5t-4.5 56.5z" />
    <glyph glyph-name="braceleft" unicode="{" horiz-adv-x="500" 
d="M222 -129q-33 -2 -52.5 3t-30 17.5t-12 34t1.5 51.5q7 58 8 119t2 123q-22 -2 -47.5 -3.5t-46.5 -4.5q-1 35 -2 75t-4 72q11 -3 21.5 -5.5t21.5 -4.5q30 -6 44 18t12 72q-2 39 -3 81.5t-6 83.5q-3 27 0.5 49.5t15.5 37.5t32.5 21t50.5 0q53 -10 114 -7t119 11
q-7 -33 -12.5 -67t-16.5 -69q-17 4 -40 5.5t-42 4.5q-24 3 -38.5 -0.5t-22 -13.5t-8.5 -26t1 -37q6 -54 3 -117t-27 -118q10 -21 15.5 -46.5t7 -52.5t0.5 -53.5t-3 -49.5q-5 -56 10.5 -73.5t59.5 -12.5q26 3 55 3.5t55 2.5q-7 -33 -12.5 -67t-16.5 -69q-48 8 -102 11.5
t-105 0.5z" />
    <glyph glyph-name="bar" unicode="|" horiz-adv-x="320" 
d="M252 708q-5 -56 -9.5 -124.5t-8 -142.5t-5 -151.5t-1 -152.5t3 -144.5t7.5 -127.5l-182 -4q12 85 18 193.5t7 223.5t-2.5 227t-11.5 203h184z" />
    <glyph glyph-name="braceright" unicode="}" horiz-adv-x="500" 
d="M278 -129q-51 3 -105 -0.5t-102 -11.5q-11 35 -16.5 69t-12.5 67q26 -2 55 -2.5t55 -3.5q44 -5 59.5 12.5t10.5 73.5q-2 23 -3 49.5t0.5 53.5t6.5 52.5t16 46.5q-24 55 -27 118t3 117q2 21 1 37t-8.5 26t-22 13.5t-38.5 0.5q-19 -3 -42 -4.5t-40 -5.5q-11 35 -16.5 69
t-12.5 67q58 -8 119 -11t114 7q30 6 50.5 0t32.5 -21t15.5 -37.5t0.5 -49.5q-5 -41 -6 -83.5t-3 -81.5q-2 -48 12 -72t44 -18q11 2 21.5 4.5t21.5 5.5q-3 -32 -4 -72t-2 -75q-21 3 -46.5 4.5t-47.5 3.5q1 -62 2 -123t8 -119q3 -30 1.5 -51.5t-12 -34t-30 -17.5t-52.5 -3z
" />
    <glyph glyph-name="asciitilde" unicode="~" horiz-adv-x="630" 
d="M39 184q0 57 14.5 97t38.5 66t55 38t64 12q29 0 49.5 -10t36 -24.5t27.5 -32t24.5 -32t26 -24.5t31.5 -10q21 0 30 13.5t10.5 32t-2.5 38.5t-8 33l154 1q1 -42 -7.5 -82t-28 -70.5t-51.5 -49.5t-78 -19q-51 0 -80.5 17t-49 38t-34 38t-34.5 17q-26 0 -37.5 -24.5
t-17.5 -62.5h-133z" />
    <glyph glyph-name="uni3001" unicode="&#x3001;" horiz-adv-x="940" 
d="M55 19v118l251 -99v-179z" />
    <glyph glyph-name="uni3002" unicode="&#x3002;" horiz-adv-x="940" 
d="M317 0q0 -26 -9.5 -48.5t-26 -39t-39 -26t-49.5 -9.5q-25 0 -47.5 9.5t-39.5 26t-27 39t-10 48.5q0 28 10 50.5t27 39t39.5 25.5t47.5 9t47.5 -9.5t39.5 -26t27 -39t10 -49.5zM242 0q0 24 -14 38.5t-35 14.5t-35 -14.5t-14 -38.5t14 -38t35 -14t35 14t14 38z" />
    <glyph glyph-name="periodcentered" unicode="&#xb7;" horiz-adv-x="300" 
d="M225 226h-151v151h151v-151z" />
    <glyph glyph-name="twodotenleader" unicode="&#x2025;" horiz-adv-x="800" 
d="M304 226h-151v151h151v-151zM646 226h-151v151h151v-151z" />
    <glyph glyph-name="ellipsis" unicode="&#x2026;" horiz-adv-x="800" 
d="M207 226h-151v151h151v-151zM473 226h-151v151h151v-151zM742 226h-151v151h151v-151z" />
    <glyph glyph-name="dieresis" unicode="&#xa8;" horiz-adv-x="520" 
d="M222 536h-141v141h141v-141zM437 536h-141v141h141v-141z" />
    <glyph glyph-name="uni3003" unicode="&#x3003;" horiz-adv-x="940" 
d="M346 118h-85l93 344h147zM530 118h-85l93 344h147z" />
    <glyph glyph-name="uni00AD" unicode="&#xad;" horiz-adv-x="500" 
d="M83 360h335v-119h-335v119z" />
    <glyph glyph-name="uniFF3C" unicode="&#xff3c;" horiz-adv-x="940" 
d="M832 -99l-84 -62l-644 859l84 58z" />
    <glyph glyph-name="similar" unicode="&#x223c;" horiz-adv-x="940" 
d="M825 319q-60 -49 -114 -75t-117 -26q-37 0 -77 13t-79 36q-25 14 -50 22.5t-48 8.5q-44 0 -84 -18t-89 -54l-57 67q33 27 62 47t56.5 33.5t55 20.5t56.5 7q35 0 72.5 -11t74.5 -31q31 -17 58 -26.5t49 -9.5q49 0 92 12t90 41z" />
    <glyph glyph-name="quoteleft" unicode="&#x2018;" horiz-adv-x="220" 
d="M171 719q-10 -59 -11 -105.5t2 -90.5l-113 -1q3 32 5 56.5t2 47t-1.5 44.5t-5.5 49h122v0z" />
    <glyph glyph-name="quoteright" unicode="&#x2019;" horiz-adv-x="220" 
d="M171 719q-10 -59 -11 -105.5t2 -90.5l-113 -1q3 32 5 56.5t2 47t-1.5 44.5t-5.5 49h122v0z" />
    <glyph glyph-name="quotedblleft" unicode="&#x201c;" horiz-adv-x="340" 
d="M153 719q-10 -59 -11 -105.5t2 -90.5l-103 -1q3 32 5 56.5t2 47t-1.5 44.5t-5.5 49h112zM298 719q-10 -59 -11 -105.5t2 -90.5l-103 -1q3 32 5 56.5t2 47t-1.5 44.5t-5.5 49h112z" />
    <glyph glyph-name="quotedblright" unicode="&#x201d;" horiz-adv-x="340" 
d="M153 719q-10 -59 -11 -105.5t2 -90.5l-103 -1q3 32 5 56.5t2 47t-1.5 44.5t-5.5 49h112zM298 719q-10 -59 -11 -105.5t2 -90.5l-103 -1q3 32 5 56.5t2 47t-1.5 44.5t-5.5 49h112z" />
    <glyph glyph-name="uni3014" unicode="&#x3014;" horiz-adv-x="500" 
d="M413 -79l-43 -98l-247 105v745l248 105l42 -96l-161 -73v-617z" />
    <glyph glyph-name="uni3015" unicode="&#x3015;" horiz-adv-x="500" 
d="M258 -8v617l-161 73l42 96l248 -105v-745l-247 -105l-43 98z" />
    <glyph glyph-name="uni3008" unicode="&#x3008;" horiz-adv-x="550" 
d="M223 300l297 -362l-89 -70l-354 432l354 430l88 -71z" />
    <glyph glyph-name="uni3009" unicode="&#x3009;" horiz-adv-x="550" 
d="M28 659l88 71l354 -430l-354 -432l-89 70l297 362z" />
    <glyph glyph-name="uni300A" unicode="&#x300a;" horiz-adv-x="600" 
d="M172 300l250 -380l-90 -51l-284 431l283 431l86 -49zM334 300l250 -380l-90 -51l-284 431l283 431l86 -49z" />
    <glyph glyph-name="uni300B" unicode="&#x300b;" horiz-adv-x="600" 
d="M193 682l86 49l283 -431l-284 -431l-90 51l250 380zM31 682l86 49l283 -431l-284 -431l-90 51l250 380z" />
    <glyph glyph-name="uni300C" unicode="&#x300c;" horiz-adv-x="450" 
d="M412 637h-184v-333h-141v447h325v-114z" />
    <glyph glyph-name="uni300D" unicode="&#x300d;" horiz-adv-x="450" 
d="M37 -37h184v343h141v-457h-325v114z" />
    <glyph glyph-name="uni300E" unicode="&#x300e;" horiz-adv-x="450" 
d="M412 600h-158v-296h-166v446h324v-150zM342 662v22h-185v-314h26v292h159z" />
    <glyph glyph-name="uni300F" unicode="&#x300f;" horiz-adv-x="450" 
d="M37 3h158v305h167v-458h-325v153zM107 -62v-22h185v326h-26v-304h-159z" />
    <glyph glyph-name="uni3010" unicode="&#x3010;" horiz-adv-x="460" 
d="M98 -135v871h368q-50 -41 -86 -91t-59.5 -106.5t-35 -116.5t-11.5 -120t11 -120.5t35 -117.5t60.5 -107.5t87.5 -91.5h-370z" />
    <glyph glyph-name="uni3011" unicode="&#x3011;" horiz-adv-x="460" 
d="M-9 -135q51 41 87.5 91.5t60.5 107.5t35 117.5t11 120.5t-11.5 120t-35 116.5t-60 106.5t-85.5 91h368v-871h-370z" />
    <glyph glyph-name="plusminus" unicode="&#xb1;" horiz-adv-x="660" 
d="M399 449h177v-119h-177v-185h-138v185h-175v119h175v184h138v-184zM86 -18v116h488v-116h-488z" />
    <glyph glyph-name="multiply" unicode="&#xd7;" horiz-adv-x="600" 
d="M177 556q30 -42 60 -82t62 -79q32 39 62.5 79t60.5 82l133 -89q-47 -45 -88.5 -88t-80.5 -86q40 -45 82 -86.5t87 -79.5l-132 -91q-31 40 -61.5 78.5t-62.5 76.5q-32 -38 -62 -76.5t-61 -78.5l-132 91q45 38 86.5 79.5t81.5 86.5q-38 43 -79.5 86t-88.5 88z" />
    <glyph glyph-name="divide" unicode="&#xf7;" horiz-adv-x="600" 
d="M197 495q0 34 26.5 58t75.5 24t76 -24t27 -58q0 -35 -27 -59t-76 -24t-75.5 24t-26.5 59zM197 65q0 34 26.5 58t75.5 24t76 -24t27 -58q0 -35 -27 -59t-76 -24t-75.5 24t-26.5 59zM43 365q26 -10 66.5 -15.5t88 -7.5t99 -2t99.5 2t89.5 4.5t70.5 5.5q-8 -32 -14.5 -69
t-19.5 -71q-47 6 -108 9t-126 3t-127.5 -3t-111.5 -9q-1 31 -1 74t-5 79z" />
    <glyph glyph-name="notequal" unicode="&#x2260;" horiz-adv-x="740" 
d="M461 453h208v-112h-237l-21 -82h258v-111h-286l-33 -130h-135l32 130h-177v111h205l21 82h-226v112h254l30 117h137z" />
    <glyph glyph-name="lessequal" unicode="&#x2264;" horiz-adv-x="700" 
d="M79 352v82l544 218v-128l-333 -131l333 -133v-125zM77 2v116h546v-116h-546z" />
    <glyph glyph-name="greaterequal" unicode="&#x2265;" horiz-adv-x="700" 
d="M77 135v125l333 133l-333 131v128l544 -218v-82zM77 2v116h546v-116h-546z" />
    <glyph glyph-name="infinity" unicode="&#x221e;" horiz-adv-x="800" 
d="M743 327q0 -38 -13 -70.5t-36.5 -57t-56 -38.5t-71.5 -14q-45 0 -90.5 24t-74.5 62q-29 -38 -70 -60t-99 -22q-39 0 -72 14t-56.5 38t-36.5 56.5t-13 70.5t14 70.5t38.5 56.5t58.5 37.5t73 13.5q47 0 88 -24t72 -62q29 38 74 62t93 24q40 0 73 -14t56 -38t36 -57t13 -72z
M628 328q0 15 -5 29.5t-13 25.5t-19.5 18t-24.5 7q-29 0 -55.5 -24.5t-46.5 -57.5q19 -34 45 -56t56 -22t46.5 24t16.5 56zM233 250q30 0 55.5 20.5t46.5 55.5q-19 33 -44.5 57.5t-54.5 24.5q-28 0 -46.5 -22.5t-18.5 -54.5t16.5 -56.5t45.5 -24.5z" />
    <glyph glyph-name="therefore" unicode="&#x2234;" horiz-adv-x="940" 
d="M557 516q0 -38 -26 -64t-63 -26t-63 26t-26 64t26 63.5t63 25.5t63 -25.5t26 -63.5zM325 116q0 -38 -26 -64t-63 -26t-63 26t-26 64t26 63.5t63 25.5t63 -25.5t26 -63.5zM791 116q0 -38 -26 -64t-63 -26t-63 26t-26 64t26 63.5t63 25.5t63 -25.5t26 -63.5z" />
    <glyph glyph-name="degree" unicode="&#xb0;" horiz-adv-x="420" 
d="M340 621q0 -27 -10.5 -51t-28.5 -41.5t-41.5 -27.5t-49.5 -10t-49.5 10t-41.5 27.5t-29 41.5t-11 51t11 51t29 41.5t41.5 27.5t49.5 10t49.5 -10t41.5 -27.5t28.5 -41.5t10.5 -51zM249 621q0 20 -11.5 31.5t-27.5 11.5q-17 0 -28.5 -11.5t-11.5 -31.5t11.5 -32t28.5 -12
q16 0 27.5 12t11.5 32z" />
    <glyph glyph-name="minute" unicode="&#x2032;" horiz-adv-x="340" 
d="M154 454h-101l102 266h155z" />
    <glyph glyph-name="second" unicode="&#x2033;" horiz-adv-x="540" 
d="M151 455h-101l102 265h155zM331 455h-101l107 265h153z" />
    <glyph glyph-name="uni2103" unicode="&#x2103;" horiz-adv-x="820" 
d="M749 -62q-37 -4 -76 -8.5t-79 -5.5t-79.5 2.5t-76.5 15.5q-45 14 -79 36.5t-57.5 59t-35 89.5t-11.5 129q0 64 12.5 114t35 86.5t53 61t65.5 36.5q42 15 87.5 12t93.5 -11.5t96.5 -16t96.5 -1.5q-14 -35 -28 -70.5t-29 -73.5q-23 6 -47.5 16t-50 18t-51 11t-51.5 -5
q-20 -6 -39.5 -19.5t-34.5 -36t-24.5 -55t-9.5 -77.5q0 -39 8 -71.5t27 -56t49.5 -37t74.5 -13.5q37 0 78 10t74 25zM163 484q-54 0 -85.5 27t-31.5 75t31.5 75.5t85.5 27.5t85 -27.5t31 -75.5t-31 -75t-85 -27zM163 547q14 0 25.5 9.5t11.5 29.5q0 21 -11.5 30t-25.5 9
t-25.5 -9t-11.5 -30q0 -20 11.5 -29.5t25.5 -9.5z" />
    <glyph glyph-name="uni212B" unicode="&#x212b;" horiz-adv-x="600" 
d="M397 92h-195l-51 -142h-150l229 609h139l229 -610h-149zM399 684q0 -23 -8.5 -41t-22.5 -30t-32 -18t-37 -6t-37 6t-32.5 18t-23 30t-8.5 41t8.5 41t23 30t32.5 18t37 6t37 -6t32 -18t22.5 -30t8.5 -41zM244 207h111l-55 152zM321 684q0 9 -6.5 15t-14.5 6
q-11 0 -16.5 -6t-5.5 -15q0 -21 22 -21q8 0 14.5 5.5t6.5 15.5z" />
    <glyph glyph-name="uniFFE0" unicode="&#xffe0;" horiz-adv-x="480" 
d="M221 37q-41 10 -76 31.5t-60 54.5t-39 78.5t-14 104.5q0 57 14 101.5t39 77.5t59.5 54t76.5 32v93h121v-84q24 -2 49 -9.5t57 -21.5l-32 -115q-20 8 -38 14t-36 9v-299q32 6 83 22l25 -116q-31 -14 -56.5 -22t-51.5 -12v-80h-121v87zM180 311q0 -48 10.5 -79t30.5 -49
v246q-19 -17 -30 -45.5t-11 -72.5z" />
    <glyph glyph-name="uniFFE1" unicode="&#xffe1;" horiz-adv-x="540" 
d="M279 238q-1 -45 -10.5 -88.5t-30.5 -78.5h267v-122h-470v101q30 15 48.5 35.5t29 45t14 52t3.5 55.5h-90v122h90v83q0 118 59 177t169 59q52 0 80.5 -10.5t54.5 -27.5l-35 -118q-26 17 -47.5 25.5t-52.5 8.5q-26 0 -41 -6.5t-23.5 -19.5t-11.5 -33.5t-3 -47.5v-90h156
v-122h-156z" />
    <glyph glyph-name="uniFFE5" unicode="&#xffe5;" horiz-adv-x="600" 
d="M374 85v-143h-151v143h-161v114h161v38h-161v114h118l-187 328h166l140 -277l144 277h165l-191 -328h121v-114h-164v-38h164v-114h-164z" />
    <glyph glyph-name="male" unicode="&#x2642;" horiz-adv-x="630" 
d="M376 329q42 -10 75 -32.5t55 -53t33.5 -67t11.5 -74.5q0 -51 -19 -94.5t-51.5 -74.5t-75.5 -48.5t-91 -17.5q-47 0 -90 17.5t-75 49t-51 74.5t-19 94q0 37 10.5 73t31.5 66.5t52.5 53t73.5 33.5v170l-91 -102l-84 77l242 271l222 -271l-86 -87l-74 96v-153zM427 103
q0 51 -30.5 86t-81.5 35t-81.5 -34.5t-30.5 -86.5q0 -54 30.5 -88t81.5 -34t81.5 35t30.5 87z" />
    <glyph glyph-name="female" unicode="&#x2640;" horiz-adv-x="630" 
d="M550 496q0 -40 -12.5 -76t-35 -65t-54 -51t-69.5 -33v-96h167v-117h-167v-188h-131v188h-163v117h163v96q-39 10 -70.5 31t-53 50.5t-33.5 66t-12 77.5q0 50 17.5 93t48.5 74.5t74.5 49.5t94.5 18q52 0 95 -18t74.5 -50t49 -75t17.5 -92zM421 496q0 52 -30 87t-77 35
q-46 0 -76.5 -34t-30.5 -88q0 -56 30.5 -89t76.5 -33q47 0 77 34t30 88z" />
    <glyph glyph-name="angle" unicode="&#x2220;" horiz-adv-x="800" 
d="M84 -31v76l481 560l97 -72l-376 -449h434v-115h-636z" />
    <glyph glyph-name="perpendicular" unicode="&#x22a5;" horiz-adv-x="800" 
d="M60 -33v116h268v489h143v-489h267v-116h-678z" />
    <glyph glyph-name="uni2312" unicode="&#x2312;" horiz-adv-x="540" 
d="M270 652q-29 0 -49 -15t-34 -50h-136q26 94 81.5 134t137.5 40t137 -40t81 -134h-136q-14 35 -33.5 50t-48.5 15z" />
    <glyph glyph-name="partialdiff" unicode="&#x2202;" horiz-adv-x="600" 
d="M100 614q25 10 46.5 17t40.5 11.5t37 6t37 1.5q70 0 124 -28t90.5 -76t55 -113t18.5 -139q0 -84 -21 -152.5t-58.5 -118t-90 -76.5t-116.5 -27q-54 0 -94 19t-66.5 50.5t-39 73.5t-12.5 88q0 61 18 111t50.5 85t76.5 54.5t97 19.5q68 0 118 -33q-21 78 -64 110.5
t-97 32.5q-11 0 -21 -0.5t-23 -3.5t-30 -9t-42 -16zM269 35q27 0 49 14t39.5 38.5t28.5 57t16 70.5q2 8 0.5 14.5t-3.5 11.5q-11 28 -34.5 48.5t-51.5 20.5q-54 0 -83.5 -36t-35.5 -97q-2 -22 -0.5 -47t10 -46t24 -35t41.5 -14z" />
    <glyph glyph-name="gradient" unicode="&#x2207;" horiz-adv-x="940" 
d="M92 601h753l-372 -662zM692 518h-377l191 -340z" />
    <glyph glyph-name="equivalence" unicode="&#x2261;" horiz-adv-x="840" 
d="M120 405v116h598v-116h-598zM120 244v116h598v-116h-598zM120 83v116h598v-116h-598z" />
    <glyph glyph-name="uni2252" unicode="&#x2252;" horiz-adv-x="740" 
d="M70 331v112h599v-112h-599zM70 158v111h599v-111h-599zM284 552q0 -32 -23.5 -54.5t-55.5 -22.5t-55 22.5t-23 54.5t23 55t55 23t55.5 -23t23.5 -55zM612 48q0 -32 -23.5 -54.5t-55.5 -22.5t-55 22.5t-23 54.5t23 55t55 23t55.5 -23t23.5 -55z" />
    <glyph glyph-name="section" unicode="&#xa7;" horiz-adv-x="450" 
d="M78 86q64 -43 126 -43q11 0 23 2t22 7.5t16.5 15.5t6.5 27q0 20 -16.5 36.5t-59.5 33.5q-78 32 -108.5 74t-30.5 93q0 36 16 68t45 52q-29 24 -45 54.5t-16 62.5q0 75 50.5 115t137.5 40q44 0 77.5 -9.5t65.5 -31.5l-37 -113q-23 15 -51 29t-57 14q-53 0 -53 -39
q0 -24 19.5 -40.5t57.5 -32.5q74 -31 105.5 -72.5t31.5 -102.5q0 -71 -55 -117q26 -25 41.5 -55t15.5 -65q0 -72 -51 -115t-153 -43q-47 0 -84.5 11t-75.5 37zM276 322q0 25 -14 39t-51 29q-13 -8 -19 -22.5t-6 -29.5q0 -23 17 -36.5t56 -30.5q10 10 13.5 24t3.5 27z" />
    <glyph glyph-name="uni203B" unicode="&#x203b;" horiz-adv-x="750" 
d="M202 597q35 -47 77.5 -100t89.5 -109q46 56 88.5 109t78.5 100l117 -86q-48 -47 -100 -102t-105 -115q54 -61 106 -115.5t99 -94.5l-113 -87q-37 45 -80 97.5t-91 108.5q-48 -56 -91.5 -108.5t-79.5 -97.5l-113 87q47 40 98.5 94.5t105.5 115.5q-52 60 -104 115t-100 102
zM36 295q0 23 18 38.5t50 15.5t50.5 -15.5t18.5 -38.5t-18.5 -39t-50.5 -16t-50 16t-18 39zM301 10q0 23 18 38.5t50 15.5t50.5 -15.5t18.5 -38.5t-18.5 -39t-50.5 -16t-50 16t-18 39zM300 600q0 23 18 38.5t50 15.5t50.5 -15.5t18.5 -38.5t-18.5 -39t-50.5 -16t-50 16
t-18 39zM576 295q0 23 18 38.5t50 15.5t50.5 -15.5t18.5 -38.5t-18.5 -39t-50.5 -16t-50 16t-18 39z" />
    <glyph glyph-name="uni2606" unicode="&#x2606;" horiz-adv-x="940" 
d="M509 380l-41 128l-40 -128h-173l139 -104l-53 -140l124 93l129 -97l-55 143l144 105h-174zM644 251l109 -333l-286 210l-282 -203l105 330l-258 198h325l111 312l113 -312h326z" />
    <glyph glyph-name="uni2605" unicode="&#x2605;" horiz-adv-x="940" 
d="M644 251l109 -333l-286 210l-282 -203l105 330l-258 198h325l111 312l113 -312h326z" />
    <glyph glyph-name="circle" unicode="&#x25cb;" horiz-adv-x="940" 
d="M880 300q0 -85 -31 -160t-86 -130.5t-130 -87.5t-163 -32q-83 0 -157.5 30.5t-130.5 85.5t-89 130t-33 164q0 85 31.5 159t86.5 129.5t130 87.5t162 32q83 0 157.5 -30.5t130.5 -84.5t89 -129t33 -164zM768 300q0 64 -23 120.5t-63 98.5t-94.5 66.5t-117.5 24.5
q-60 0 -114 -23t-95 -64.5t-65 -98.5t-24 -124q0 -64 23 -121t63 -99.5t94.5 -67.5t117.5 -25q60 0 114 23.5t95 65t65 99t24 125.5z" />
    <glyph glyph-name="H18533" unicode="&#x25cf;" horiz-adv-x="940" 
d="M880 300q0 -85 -31 -160t-86 -130.5t-130 -87.5t-163 -32q-83 0 -157.5 30.5t-130.5 85.5t-89 130t-33 164q0 85 31.5 159t86.5 129.5t130 87.5t162 32q83 0 157.5 -30.5t130.5 -84.5t89 -129t33 -164z" />
    <glyph glyph-name="uni25CE" unicode="&#x25ce;" horiz-adv-x="940" 
d="M732 301q0 -54 -19.5 -102t-54.5 -83.5t-83 -56t-105 -20.5q-53 0 -100.5 19.5t-83 54.5t-56.5 83t-21 105q0 54 19.5 101t54.5 82t83 55.5t104 20.5q54 0 101.5 -19t83 -53.5t56.5 -82t21 -104.5zM627 301q0 35 -11.5 65.5t-32 53.5t-49.5 36.5t-64 13.5
q-33 0 -61.5 -12.5t-49.5 -35t-33 -53.5t-12 -68q0 -35 11.5 -66.5t32 -54.5t49 -36.5t63.5 -13.5q33 0 62 13t50 35.5t33 54t12 68.5zM880 300q0 -85 -31 -160t-86 -130.5t-130 -87.5t-163 -32q-83 0 -157.5 30.5t-130.5 85.5t-89 130t-33 164q0 85 31.5 159t86.5 129.5
t130 87.5t162 32q83 0 157.5 -30.5t130.5 -84.5t89 -129t33 -164zM768 300q0 64 -23 120.5t-63 98.5t-94.5 66.5t-117.5 24.5q-60 0 -114 -23t-95 -64.5t-65 -98.5t-24 -124q0 -64 23 -121t63 -99.5t94.5 -67.5t117.5 -25q60 0 114 23.5t95 65t65 99t24 125.5z" />
    <glyph glyph-name="uni25C7" unicode="&#x25c7;" horiz-adv-x="940" 
d="M469 -152l-457 456l457 456l459 -456zM786 304l-317 318l-316 -318l316 -317z" />
    <glyph glyph-name="uni25C6" unicode="&#x25c6;" horiz-adv-x="940" 
d="M469 -152l-457 456l457 456l459 -456z" />
    <glyph glyph-name="H22073" unicode="&#x25a1;" horiz-adv-x="940" 
d="M81 -84v772h777v-772h-777zM749 595h-560v-586h560v586z" />
    <glyph glyph-name="filledbox" unicode="&#x25a0;" horiz-adv-x="940" 
d="M81 -84v772h777v-772h-777z" />
    <glyph glyph-name="uni25B3" unicode="&#x25b3;" horiz-adv-x="940" 
d="M473 646l414 -657h-835zM472 462l-244 -383h480z" />
    <glyph glyph-name="triagup" unicode="&#x25b2;" horiz-adv-x="940" 
d="M473 646l414 -657h-835z" />
    <glyph glyph-name="uni25BD" unicode="&#x25bd;" horiz-adv-x="940" 
d="M52 601h835l-414 -657zM708 511h-480l244 -383z" />
    <glyph glyph-name="triagdn" unicode="&#x25bc;" horiz-adv-x="940" 
d="M52 601h835l-414 -657z" />
    <glyph glyph-name="arrowright" unicode="&#x2192;" horiz-adv-x="940" 
d="M636 104v139h-639v114h639v140l305 -197z" />
    <glyph glyph-name="arrowleft" unicode="&#x2190;" horiz-adv-x="940" 
d="M-3 300l305 197v-140h639v-114h-639v-139z" />
    <glyph glyph-name="arrowup" unicode="&#x2191;" horiz-adv-x="800" 
d="M595 468h-139v-627h-114v627h-140l197 305z" />
    <glyph glyph-name="arrowdown" unicode="&#x2193;" horiz-adv-x="800" 
d="M399 -173l-197 305h140v629h114v-629h139z" />
    <glyph glyph-name="arrowboth" unicode="&#x2194;" horiz-adv-x="940" 
d="M14 300l296 194v-137h335v137l296 -194l-296 -193v136h-335v-136z" />
    <glyph glyph-name="uni3013" unicode="&#x3013;" horiz-adv-x="940" 
d="M40 357v112h861v-112h-861zM40 118v112h861v-112h-861z" />
    <glyph glyph-name="uni226A" unicode="&#x226a;" horiz-adv-x="940" 
d="M640 27l-58 -86l-511 359l506 368l62 -78l-386 -290zM876 27l-58 -86l-511 359l506 368l62 -78l-386 -290z" />
    <glyph glyph-name="uni226B" unicode="&#x226b;" horiz-adv-x="940" 
d="M686 300l-386 290l62 78l506 -368l-511 -359l-58 86zM450 300l-386 290l62 78l506 -368l-511 -359l-58 86z" />
    <glyph glyph-name="radical" unicode="&#x221a;" horiz-adv-x="520" 
d="M392 -192h-67l-191 440l-86 -54l-54 90l204 124l123 -297l110 665h126z" />
    <glyph glyph-name="uni223D" unicode="&#x223d;" horiz-adv-x="940" 
d="M879 299q0 -44 -15 -83t-42.5 -68t-67 -46t-87.5 -17q-15 0 -29 1t-30 5.5t-34.5 14t-41.5 25.5l63 95q29 -17 44 -22t28 -5q39 0 57 27.5t18 72.5q0 42 -18 67t-57 25q-44 0 -75 -32t-60 -84q-23 -41 -46.5 -76t-53.5 -60.5t-68.5 -39.5t-90.5 -14q-100 0 -156.5 55
t-56.5 159q0 49 16.5 87.5t45.5 65t68 40.5t83 14q33 0 62 -6.5t72 -29.5l-55 -104q-19 10 -31.5 15.5t-21 8t-14.5 2.5h-13q-39 0 -58 -24t-19 -68q0 -45 18.5 -72t57.5 -25q26 1 45.5 9t35 23t29.5 37.5t29 51.5q23 45 47 79t54 57t68 34.5t88 11.5q51 0 90.5 -16
t66.5 -44t41 -66t14 -81z" />
    <glyph glyph-name="proportional" unicode="&#x221d;" horiz-adv-x="940" 
d="M844 137q-41 -29 -74.5 -40t-72.5 -11q-30 0 -56.5 9t-50 24t-43 34.5t-35.5 39.5q-40 -51 -90.5 -79t-108.5 -28q-45 0 -83 17.5t-65.5 46.5t-43 68t-15.5 82q0 46 15 85.5t42 68.5t65.5 45.5t85.5 16.5q122 0 199 -103q35 47 80 75t105 28q41 0 74 -11t72 -39l-57 -102
q-33 23 -52 30.5t-39 7.5q-17 0 -32.5 -8.5t-29.5 -22t-26.5 -32t-24.5 -37.5q9 -18 21.5 -36.5t27 -33t31.5 -23.5t37 -9q8 0 15 0.5t16 4.5t22 12t33 23zM313 199q42 0 69.5 28.5t53.5 75.5q-23 42 -52.5 71.5t-69.5 29.5q-37 0 -55.5 -31t-18.5 -73q0 -19 5 -37t15 -32.5
t23 -23t30 -8.5z" />
    <glyph glyph-name="uni2235" unicode="&#x2235;" horiz-adv-x="940" 
d="M562 116q0 -18 -7.5 -34.5t-20 -29t-30 -19.5t-36.5 -7q-20 0 -37 7t-29.5 19.5t-20 29t-7.5 34.5t7.5 34.5t20 29t29.5 20t37 7.5q19 0 36.5 -7.5t30 -20t20 -29t7.5 -34.5zM330 516q0 -18 -7.5 -34.5t-20 -29t-30 -19.5t-36.5 -7q-20 0 -37 7t-29.5 19.5t-20 29
t-7.5 34.5t7.5 34.5t20 29t29.5 20t37 7.5q19 0 36.5 -7.5t30 -20t20 -29t7.5 -34.5zM797 516q0 -18 -7.5 -34.5t-20 -29t-30 -19.5t-36.5 -7q-20 0 -37 7t-29.5 19.5t-20 29t-7.5 34.5t7.5 34.5t20 29t29.5 20t37 7.5q19 0 36.5 -7.5t30 -20t20 -29t7.5 -34.5z" />
    <glyph glyph-name="integral" unicode="&#x222b;" horiz-adv-x="440" 
d="M302 25q4 -80 -34.5 -124.5t-119.5 -44.5h-18t-18 1.5t-23 4.5t-32 8v120q32 -12 48.5 -14.5t24.5 -2.5q23 0 30 12.5t5 37.5l-27 551q-4 84 32.5 126.5t121.5 42.5q20 0 38.5 -2t53.5 -12v-122q-29 11 -47.5 15t-26.5 4q-38 0 -35 -50z" />
    <glyph glyph-name="uni222C" unicode="&#x222c;" horiz-adv-x="680" 
d="M295 25q4 -80 -34.5 -124.5t-119.5 -44.5h-18t-17.5 1.5t-22 4.5t-31.5 8v120q32 -12 47.5 -14.5t23.5 -2.5q23 0 30 12.5t5 37.5l-27 551q-4 84 32.5 126.5t121.5 42.5q10 0 17.5 -0.5t16 -1.5t19.5 -3.5t29 -6.5v-121q-29 11 -42.5 13.5t-21.5 2.5q-38 0 -35 -50z
M553 25q4 -80 -34.5 -124.5t-119.5 -44.5h-18t-17.5 1.5t-22 4.5t-31.5 8v120q32 -12 47.5 -14.5t23.5 -2.5q23 0 30 12.5t5 37.5l-27 551q-4 84 32.5 126.5t121.5 42.5q10 0 17.5 -0.5t16 -1.5t19.5 -3.5t29 -6.5v-121q-29 11 -42.5 13.5t-21.5 2.5q-38 0 -35 -50z" />
    <glyph glyph-name="element" unicode="&#x2208;" horiz-adv-x="940" 
d="M376 3q-66 0 -115 23t-82 63t-49.5 94.5t-16.5 116.5q0 63 19 115t54 90t84.5 59t110.5 21h445v-117h-447q-51 0 -80 -32t-40 -83h567v-118h-567q11 -50 40 -82.5t76 -32.5h451v-117h-450z" />
    <glyph glyph-name="suchthat" unicode="&#x220b;" horiz-adv-x="940" 
d="M113 3v117h451q47 0 76 32.5t40 82.5h-567v118h567q-11 51 -40 83t-80 32h-447v117h445q61 0 110.5 -21t84.5 -59t54 -90t19 -115q0 -62 -16.5 -116.5t-49.5 -94.5t-82 -63t-115 -23h-450z" />
    <glyph glyph-name="reflexsubset" unicode="&#x2286;" horiz-adv-x="940" 
d="M121 -36v117h699v-117h-699zM337 134q-114 0 -170.5 62t-56.5 169q0 106 63 164t171 58h476v-118h-478q-51 0 -74 -27t-23 -81q0 -51 22 -80.5t70 -29.5h483v-117h-483z" />
    <glyph glyph-name="reflexsuperset" unicode="&#x2287;" horiz-adv-x="940" 
d="M110 -36v117h699v-117h-699zM110 134v117h483q48 0 70 29.5t22 80.5q0 54 -23 81t-74 27h-478v118h476q108 0 171 -58t63 -164q0 -107 -56.5 -169t-170.5 -62h-483z" />
    <glyph glyph-name="propersubset" unicode="&#x2282;" horiz-adv-x="940" 
d="M377 1q-66 0 -115.5 23.5t-82.5 64t-49.5 95t-16.5 116.5q0 63 19 115.5t54.5 90.5t85 59.5t110.5 21.5h443v-117h-445q-57 0 -91 -43t-34 -127q0 -95 33.5 -138.5t87.5 -43.5h449v-117h-448z" />
    <glyph glyph-name="propersuperset" unicode="&#x2283;" horiz-adv-x="940" 
d="M113 1v117h449q54 0 87.5 43.5t33.5 138.5q0 84 -34 127t-91 43h-445v117h443q61 0 110.5 -21.5t85 -59.5t54.5 -90.5t19 -115.5q0 -62 -16.5 -116.5t-49.5 -95t-82.5 -64t-115.5 -23.5h-448z" />
    <glyph glyph-name="union" unicode="&#x222a;" horiz-adv-x="800" 
d="M682 233q0 -63 -20 -115.5t-57 -90t-89 -58.5t-116 -21q-68 0 -121 21t-89 59t-54.5 90.5t-18.5 116.5v426h139v-417q0 -83 33 -130.5t111 -47.5t110.5 49t32.5 131v415h139v-428z" />
    <glyph glyph-name="intersection" unicode="&#x2229;" horiz-adv-x="800" 
d="M682 -52h-139v415q0 82 -32.5 131t-110.5 49t-111 -47.5t-33 -130.5v-417h-139v426q0 64 18.5 116.5t54.5 90.5t89 59t121 21q64 0 116 -21t89 -58.5t57 -90t20 -115.5v-428z" />
    <glyph glyph-name="logicaland" unicode="&#x2227;" horiz-adv-x="940" 
d="M824 -32h-145l-208 431l-209 -430h-147l356 700z" />
    <glyph glyph-name="logicalor" unicode="&#x2228;" horiz-adv-x="940" 
d="M471 -64l-356 700h147l209 -430l208 431h145z" />
    <glyph glyph-name="uniFFE2" unicode="&#xffe2;" horiz-adv-x="940" 
d="M918 -176h-144v231h-754v117h898v-348z" />
    <glyph glyph-name="arrowdblright" unicode="&#x21d2;" horiz-adv-x="940" 
d="M614 144h-590v112h702l44 44l-45 45h-701v111h591l-64 65l77 84l299 -305l-298 -305l-77 86z" />
    <glyph glyph-name="arrowdblboth" unicode="&#x21d4;" horiz-adv-x="940" 
d="M614 144h-291l63 -63l-77 -86l-298 305l299 305l77 -84l-65 -65h293l-64 65l77 84l299 -305l-298 -305l-77 86zM212 256h514l44 44l-45 45h-513l-44 -45z" />
    <glyph glyph-name="universal" unicode="&#x2200;" horiz-adv-x="600" 
d="M152 680l50 -171h193l49 171h157l-227 -731h-149l-229 731h156zM362 394h-126l64 -218z" />
    <glyph glyph-name="existential" unicode="&#x2203;" horiz-adv-x="560" 
d="M68 264v122h273v171h-289v123h440v-730h-456v123h305v191h-273z" />
    <glyph glyph-name="acute" unicode="&#xb4;" horiz-adv-x="400" 
d="M179 760h158l-133 -170h-122z" />
    <glyph glyph-name="caron" unicode="&#x2c7;" horiz-adv-x="360" 
d="M233 589h-108l-100 171h126l30 -57l28 57h124z" />
    <glyph glyph-name="breve" unicode="&#x2d8;" horiz-adv-x="375" 
d="M325 760q-5 -75 -40.5 -107.5t-95.5 -32.5q-63 0 -97.5 36.5t-39.5 103.5h112q2 -28 9 -36.5t16 -8.5q10 0 16.5 8.5t7.5 36.5h112v0z" />
    <glyph glyph-name="hungarumlaut" unicode="&#x2dd;" horiz-adv-x="440" 
d="M120 760h134l-133 -170h-99zM271 760h134l-133 -170h-99z" />
    <glyph glyph-name="ring" unicode="&#x2da;" horiz-adv-x="300" 
d="M253 676q0 -24 -9 -43t-23.5 -32.5t-33 -21t-37.5 -7.5t-37.5 7.5t-33.5 21t-24 32.5t-9 43t9 43t24 32.5t33.5 20.5t37.5 7t37.5 -7t33 -20.5t23.5 -32.5t9 -43zM171 676q0 9 -6.5 15.5t-14.5 6.5q-9 0 -15.5 -6.5t-6.5 -15.5q0 -10 6.5 -16t15.5 -6q8 0 14.5 6t6.5 16z
" />
    <glyph glyph-name="dotaccent" unicode="&#x2d9;" horiz-adv-x="300" 
d="M83 635v134h134v-134h-134z" />
    <glyph glyph-name="cedilla" unicode="&#xb8;" horiz-adv-x="300" 
d="M207 -8l-15 -36q28 -11 42.5 -32t14.5 -47q0 -21 -9 -35.5t-24 -23.5t-35.5 -13t-43.5 -4q-26 0 -46 5t-40 16l23 63q20 -9 32 -11t20 -3q12 -1 16.5 1t5.5 8q2 11 -17.5 17.5t-53.5 8.5l46 105z" />
    <glyph glyph-name="ogonek" unicode="&#x2db;" horiz-adv-x="300" 
d="M213 -62q-14 -2 -26.5 -7t-21 -12t-12 -15.5t-0.5 -17.5q4 -10 17 -10q9 0 23 4t30 14l24 -62q-23 -16 -48.5 -23t-48.5 -7q-19 0 -37 3.5t-31.5 12.5t-22 24.5t-8.5 38.5q0 19 9 39.5t27 38.5t43.5 31.5t58.5 17.5z" />
    <glyph glyph-name="exclamdown" unicode="&#xa1;" horiz-adv-x="240" 
d="M190 290l8 -516h-157l7 516h142zM193 498v-150h-151v150h151z" />
    <glyph glyph-name="questiondown" unicode="&#xbf;" horiz-adv-x="440" 
d="M307 267q0 -21 -2 -44.5t-9.5 -48.5t-21 -50.5t-36.5 -51.5q-34 -38 -48 -67t-14 -60q0 -29 12 -42.5t41 -13.5t54 16.5t60 60.5l78 -103q-48 -52 -94 -73t-107 -21q-48 0 -84.5 12.5t-61 35t-37 52t-12.5 64.5q0 54 26.5 102.5t65.5 93.5q28 32 38 68t10 71v47h142v-48z
M313 500v-150h-155v150h155z" />
    <glyph glyph-name="uni02D0" unicode="&#x2d0;" horiz-adv-x="300" 
d="M152 341l-122 205h238zM152 258l-122 -205h238z" />
    <glyph glyph-name="uni222E" unicode="&#x222e;" horiz-adv-x="600" 
d="M379 478q58 -18 93.5 -62.5t35.5 -113.5q0 -79 -46 -126.5t-120 -58.5l-9 -94q-4 -35 -14 -65.5t-29.5 -53t-50 -35t-74.5 -12.5h-18.5t-18 1.5t-22.5 4.5t-33 8l18 119q28 -11 42 -13.5t24 -2.5q24 0 37 12t16 41l10 99q-57 19 -91 64t-34 112q0 77 46 125t118 59l10 92
q4 35 14 65t29 52.5t49.5 35t74.5 12.5q9 0 17 -0.5t17.5 -2.5t22 -5t31.5 -9l-15 -118q-29 11 -41.5 14.5t-23.5 3.5q-23 0 -37.5 -12t-17.5 -42zM388 302q0 34 -21 57l-13 -127q16 11 25 29t9 41zM213 303q0 -38 20 -60l13 128q-15 -11 -24 -28t-9 -40z" />
    <glyph glyph-name="summation" unicode="&#x2211;" horiz-adv-x="700" 
d="M60 -51v65l276 299l-276 278v88h577v-124h-355l239 -233l-231 -248h348v-125h-578z" />
    <glyph glyph-name="product" unicode="&#x220f;" horiz-adv-x="688" 
d="M567 558v-620h-156v620h-145v-620h-153v620h-105v121h664v-121h-105z" />
    <glyph glyph-name="currency" unicode="&#xa4;" horiz-adv-x="560" 
d="M278 552q33 0 60 -9t47 -21l73 78l83 -84l-83 -73q14 -23 21 -48t7 -59q0 -38 -7 -67t-21 -51l79 -74l-82 -81l-73 78q-23 -14 -50 -22t-56 -8q-28 0 -54.5 8t-49.5 21l-72 -78l-82 80l79 76q-14 23 -22 49.5t-8 62.5t8.5 65.5t23.5 52.5l-80 70l81 83l74 -78
q21 12 48 20.5t56 8.5zM277 440q-37 0 -56.5 -31.5t-19.5 -77.5q0 -28 7 -48.5t18 -33.5t24 -19t26 -6q28 0 51.5 25.5t23.5 85.5q0 19 -4.5 38t-13.5 34t-23 24t-33 9z" />
    <glyph glyph-name="uni2109" unicode="&#x2109;" horiz-adv-x="720" 
d="M702 640v-123h-273v-152h262v-122h-262v-294h-151v691h424zM234 638q0 -23 -8.5 -41.5t-22.5 -31.5t-32 -20t-37 -7t-37 7t-32.5 20t-23 31.5t-8.5 41.5t8.5 41.5t23 31.5t32.5 20t37 7t37 -7t32 -20t22.5 -31.5t8.5 -41.5zM156 638q0 9 -6.5 15.5t-14.5 6.5
q-11 0 -16.5 -6.5t-5.5 -15.5q0 -22 22 -22q8 0 14.5 6t6.5 16z" />
    <glyph glyph-name="perthousand" unicode="&#x2030;" horiz-adv-x="940" 
d="M158 276q-67 0 -98 47t-31 141q0 93 30.5 144.5t98.5 51.5t98.5 -51.5t30.5 -144.5q0 -94 -31 -141t-98 -47zM158 562q-9 0 -13 -26t-4 -72q0 -48 4 -69t14 -21q8 0 12 21t4 69q0 46 -4 72t-13 26zM412 682h103l-269 -731h-103zM501 -26q-67 0 -98 47t-31 141
q0 93 30.5 144.5t98.5 51.5t98.5 -51.5t30.5 -144.5q0 -94 -31 -141t-98 -47zM501 260q-9 0 -13 -26t-4 -72q0 -48 4 -69t14 -21q8 0 12 21t4 69q0 46 -4 72t-13 26zM781 -26q-67 0 -98 47t-31 141q0 93 30.5 144.5t98.5 51.5t98.5 -51.5t30.5 -144.5q0 -94 -31 -141
t-98 -47zM781 260q-9 0 -13 -26t-4 -72q0 -48 4 -69t14 -21q8 0 12 21t4 69q0 46 -4 72t-13 26z" />
    <glyph glyph-name="uni25C1" unicode="&#x25c1;" horiz-adv-x="940" 
d="M142 302l648 404v-804zM314 301l378 -229v462z" />
    <glyph glyph-name="uni25C0" unicode="&#x25c0;" horiz-adv-x="940" 
d="M142 302l648 404v-804z" />
    <glyph glyph-name="uni25B7" unicode="&#x25b7;" horiz-adv-x="940" 
d="M150 -98v804l648 -404zM248 534v-462l378 229z" />
    <glyph glyph-name="uni25B6" unicode="&#x25b6;" horiz-adv-x="940" 
d="M150 -98v804l648 -404z" />
    <glyph glyph-name="uni2664" unicode="&#x2664;" horiz-adv-x="940" 
d="M609 -132h-278v55q14 24 24.5 61.5t17.5 71.5q-27 -14 -54.5 -22t-44.5 -8q-72 0 -111.5 46.5t-39.5 119.5q0 84 89 224.5t258 322.5q169 -182 257.5 -322.5t88.5 -224.5q0 -73 -39 -119.5t-111 -46.5q-18 0 -45.5 7.5t-56.5 22.5q6 -34 18.5 -70.5t26.5 -62.5v-55z
M716 193q0 39 -25.5 93.5t-63 112.5t-80 112.5t-77.5 92.5q-35 -38 -77.5 -92.5t-80 -112.5t-63 -112.5t-25.5 -93.5q0 -33 10.5 -56.5t39.5 -23.5q17 0 36 8t55 30q11 7 23.5 11.5t26.5 4.5q24 0 35.5 -13.5t11.5 -46.5q0 -34 -8.5 -77t-20.5 -78v-3h73v3q-11 35 -19 78
t-8 77q0 33 11 46.5t35 13.5q14 0 26.5 -4.5t23.5 -11.5q36 -22 56.5 -30t34.5 -8q29 0 39.5 23.5t10.5 56.5z" />
    <glyph glyph-name="spade" unicode="&#x2660;" horiz-adv-x="940" 
d="M609 -132h-278v55q14 24 24.5 61.5t17.5 71.5q-27 -14 -54.5 -22t-44.5 -8q-72 0 -111.5 46.5t-39.5 119.5q0 84 89 224.5t258 322.5q169 -182 257.5 -322.5t88.5 -224.5q0 -73 -39 -119.5t-111 -46.5q-18 0 -45.5 7.5t-56.5 22.5q6 -34 18.5 -70.5t26.5 -62.5v-55z" />
    <glyph glyph-name="uni2661" unicode="&#x2661;" horiz-adv-x="940" 
d="M468 -86q-95 55 -168.5 126t-123.5 146.5t-76 150.5t-26 138q0 48 12.5 87.5t38 68t63 44.5t87.5 16q64 0 115 -32.5t77 -94.5q29 61 77.5 94t114.5 33q50 0 87.5 -16t62.5 -44.5t37.5 -68t12.5 -87.5q0 -63 -25.5 -136.5t-75 -148t-122.5 -146t-168 -130.5zM177 471
q0 -65 28 -133.5t71 -130.5t94 -111.5t97 -76.5q46 27 96.5 76.5t93.5 111.5t71 130.5t28 133.5q0 64 -25 100t-76 36q-42 0 -71 -32.5t-46 -77.5q-9 -25 -24.5 -43t-45.5 -18q-33 0 -48.5 18t-24.5 43q-17 45 -46 77.5t-70 32.5q-51 0 -76.5 -36t-25.5 -100z" />
    <glyph glyph-name="heart" unicode="&#x2665;" horiz-adv-x="940" 
d="M468 -86q-95 55 -168.5 126t-123.5 146.5t-76 150.5t-26 138q0 48 12.5 87.5t38 68t63 44.5t87.5 16q64 0 115 -32.5t77 -94.5q29 61 77.5 94t114.5 33q50 0 87.5 -16t62.5 -44.5t37.5 -68t12.5 -87.5q0 -63 -25.5 -136.5t-75 -148t-122.5 -146t-168 -130.5z" />
    <glyph glyph-name="uni2667" unicode="&#x2667;" horiz-adv-x="940" 
d="M331 -76q15 29 30 57.5t23 61.5q3 13 3.5 17.5t-2.5 5.5q-6 2 -14 -6t-16 -14q-29 -23 -55.5 -34t-65.5 -11q-42 0 -76.5 16.5t-59 44t-38 64t-13.5 75.5q0 40 14 75.5t38.5 62.5t57.5 43t72 16q27 0 55.5 -9.5t60.5 -27.5q5 -3 12.5 -6t11.5 4t-0.5 11t-9.5 9
q-23 21 -39.5 38.5t-27 37t-16 42.5t-5.5 54q0 39 17 72t45 56.5t63.5 37t73.5 13.5q37 0 73 -13.5t64 -37t45 -56.5t17 -72q0 -31 -6 -54t-18 -43t-29.5 -38t-39.5 -39l-8.5 -8.5t0.5 -10.5t11 -4.5t12 5.5q32 18 62.5 28.5t57.5 10.5q37 0 70.5 -15.5t58 -42t39 -62.5
t14.5 -77t-14 -77t-38.5 -63.5t-59 -43.5t-75.5 -16q-39 0 -65.5 11t-55.5 34q-8 6 -16 12.5t-14 5.5q-5 -1 -3.5 -4.5t4.5 -16.5q8 -33 23 -61.5t30 -57.5v-47h-278v47zM508 -44v2q-15 37 -22.5 80t-7.5 77q0 27 13 41t33 14q27 0 47 -18q29 -27 58.5 -46.5t68.5 -19.5
q50 0 78.5 34t28.5 85q0 23 -7.5 44t-21 37t-32.5 25.5t-41 9.5q-39 0 -80 -22q-14 -8 -32 -13.5t-35.5 -6t-34 5.5t-27.5 21q-19 26 -13.5 53t27.5 49q19 19 33 34.5t23 31t13 32.5t4 41q0 46 -31.5 75t-79.5 29t-79 -29t-31 -75q0 -24 4 -41t12.5 -32.5t22 -31t33.5 -34.5
q20 -20 26 -50t-12 -54q-11 -14 -26.5 -20t-33.5 -5t-36 6.5t-33 13.5q-40 22 -80 22q-23 0 -41.5 -9.5t-32 -25.5t-21 -37t-7.5 -44q0 -51 28.5 -85t78.5 -34q39 0 68.5 19.5t58.5 46.5q19 18 47 18q20 0 33 -14t13 -41q0 -17 -2 -37t-6 -41t-9.5 -41t-12.5 -38v-2h76z" />
    <glyph glyph-name="club" unicode="&#x2663;" horiz-adv-x="940" 
d="M331 -76q15 29 30 57.5t23 61.5q3 13 3.5 17.5t-2.5 5.5q-6 2 -14 -6t-16 -14q-29 -23 -55.5 -34t-65.5 -11q-42 0 -76.5 16.5t-59 44t-38 64t-13.5 75.5q0 40 14 75.5t38.5 62.5t57.5 43t72 16q27 0 55.5 -9.5t60.5 -27.5q5 -3 12.5 -6t11.5 4t-0.5 11t-9.5 9
q-23 21 -39.5 38.5t-27 37t-16 42.5t-5.5 54q0 39 17 72t45 56.5t63.5 37t73.5 13.5q37 0 73 -13.5t64 -37t45 -56.5t17 -72q0 -31 -6 -54t-18 -43t-29.5 -38t-39.5 -39l-8.5 -8.5t0.5 -10.5t11 -4.5t12 5.5q32 18 62.5 28.5t57.5 10.5q37 0 70.5 -15.5t58 -42t39 -62.5
t14.5 -77t-14 -77t-38.5 -63.5t-59 -43.5t-75.5 -16q-39 0 -65.5 11t-55.5 34q-8 6 -16 12.5t-14 5.5q-5 -1 -3.5 -4.5t4.5 -16.5q8 -33 23 -61.5t30 -57.5v-47h-278v47z" />
    <glyph glyph-name="uni2299" unicode="&#x2299;" horiz-adv-x="940" 
d="M618 300q0 -30 -12 -56.5t-32 -47t-47.5 -32t-57.5 -11.5t-57.5 11.5t-47.5 32t-32 47t-12 56.5q0 31 12 58t32 47t47.5 31t57.5 11t57 -11t47.5 -31t32.5 -47t12 -58zM880 300q0 -85 -31 -160t-86 -130.5t-130 -87.5t-163 -32q-83 0 -157.5 30.5t-130.5 85.5t-89 130
t-33 164q0 85 31.5 159t86.5 129.5t130 87.5t162 32q83 0 157.5 -30.5t130.5 -84.5t89 -129t33 -164zM768 300q0 64 -23 120.5t-63 98.5t-94.5 66.5t-117.5 24.5q-60 0 -114 -23t-95 -64.5t-65 -98.5t-24 -124q0 -64 23 -121t63 -99.5t94.5 -67.5t117.5 -25q60 0 114 23.5
t95 65t65 99t24 125.5z" />
    <glyph glyph-name="uni25C8" unicode="&#x25c8;" horiz-adv-x="940" 
d="M469 -152l-459 456l459 456l460 -456zM787 304l-318 318l-318 -318l318 -317zM469 41l-263 263l263 263l263 -263z" />
    <glyph glyph-name="uni25A3" unicode="&#x25a3;" horiz-adv-x="940" 
d="M83 -84v772h775v-772h-775zM749 595h-558v-586h558v586zM675 98h-409v407h409v-407z" />
    <glyph glyph-name="uni25D0" unicode="&#x25d0;" horiz-adv-x="940" 
d="M878 302q0 -88 -31 -163t-86 -130t-131 -86t-165 -31q-87 0 -161 31t-128 86t-85 130t-31 163t31 162.5t85.5 129t128.5 85t160 30.5q89 0 165 -31t131 -85.5t86 -129t31 -161.5zM786 301q0 63 -21.5 118.5t-59.5 99t-90 71t-113 34.5v-647q60 6 112 34t90 71.5t60 99.5
t22 119z" />
    <glyph glyph-name="uni25D1" unicode="&#x25d1;" horiz-adv-x="940" 
d="M60 302q0 87 31 161.5t86 129t131 85.5t165 31q86 0 160 -30.5t128.5 -85t85.5 -129t31 -162.5t-31 -163t-85 -130t-128 -86t-161 -31q-89 0 -165 31t-131 86t-86 130t-31 163zM152 301q0 -63 22 -119t60 -99.5t90 -71.5t112 -34v647q-61 -7 -113 -34.5t-90 -71
t-59.5 -99t-21.5 -118.5z" />
    <glyph glyph-name="shade" unicode="&#x2592;" horiz-adv-x="940" 
d="M886 680q0 -15 -10 -24t-23 -9q-15 0 -25.5 9t-10.5 24t10.5 24.5t25.5 9.5q13 0 23 -9.5t10 -24.5zM759 680q0 -15 -10 -24t-25 -9t-25 9t-10 24t10 25t25 10t25 -10t10 -25zM886 553q0 -15 -10 -25t-23 -10q-15 0 -25.5 9.5t-10.5 25.5q0 15 10.5 24.5t25.5 9.5
q13 0 23 -9.5t10 -24.5zM632 680q0 -15 -9.5 -24t-24.5 -9t-25 9t-10 24t10 25t25 10t24.5 -10t9.5 -25zM759 554q0 -16 -10 -26t-25 -10t-25 10t-10 26q0 15 10 24.5t25 9.5t25 -9.5t10 -24.5zM886 425q0 -15 -10 -24.5t-23 -9.5q-15 0 -25.5 9.5t-10.5 24.5t10.5 25
t25.5 10q13 0 23 -10t10 -25zM632 554q0 -16 -9.5 -26t-24.5 -10t-25 10t-10 26q0 15 10 24.5t25 9.5t24.5 -9.5t9.5 -24.5zM504 680q0 -15 -9.5 -24t-25.5 -9q-14 0 -23.5 9t-9.5 24t9.5 24.5t23.5 9.5q16 0 25.5 -9.5t9.5 -24.5zM759 426q0 -16 -10 -25.5t-25 -9.5t-25 10
t-10 25t10 24.5t25 9.5t25 -9.5t10 -24.5zM886 297q0 -13 -10 -23t-23 -10q-15 0 -25.5 10t-10.5 23q0 15 10.5 25t25.5 10q13 0 23 -10t10 -25zM632 426q0 -15 -9.5 -25t-24.5 -10t-25 10t-10 25t10 24.5t25 9.5t24.5 -9.5t9.5 -24.5zM504 553q0 -16 -9.5 -25.5t-25.5 -9.5
q-14 0 -23.5 10t-9.5 25t9.5 24.5t23.5 9.5q16 0 25.5 -9.5t9.5 -24.5zM886 171q0 -14 -10 -24.5t-23 -10.5q-15 0 -25.5 10.5t-10.5 24.5t10.5 24t25.5 10q13 0 23 -10t10 -24zM376 680q0 -15 -9.5 -24t-25.5 -9q-15 0 -24.5 9t-9.5 24t9.5 24.5t24.5 9.5q16 0 25.5 -9.5
t9.5 -24.5zM758 297q0 -13 -9.5 -23t-24.5 -10t-25 10t-10 23q0 15 10 25t25 10t24.5 -10t9.5 -25zM504 425q0 -15 -9.5 -24.5t-25.5 -9.5q-14 0 -23.5 9.5t-9.5 24.5t9.5 25t23.5 10q16 0 25.5 -10t9.5 -25zM631 297q0 -13 -9 -23t-24 -10t-25 10t-10 23q0 15 10 25t25 10
t24 -10t9 -25zM887 43q0 -14 -10 -24.5t-23 -10.5q-17 0 -27 10.5t-10 24.5q0 16 10 26t27 10q13 0 23 -10.5t10 -25.5zM250 680q0 -15 -10.5 -24t-25.5 -9t-25 9t-10 24t10 25t25 10t25.5 -10t10.5 -25zM376 553q0 -16 -9.5 -25.5t-25.5 -9.5q-15 0 -24.5 10t-9.5 25
t9.5 24.5t24.5 9.5q16 0 25.5 -9.5t9.5 -24.5zM758 171q0 -14 -9.5 -24.5t-24.5 -10.5t-25 10.5t-10 24.5t10 24t25 10t24.5 -10t9.5 -24zM504 297q0 -13 -9.5 -23t-25.5 -10q-14 0 -23.5 10t-9.5 23q0 15 9.5 25t23.5 10q16 0 25.5 -10t9.5 -25zM631 171q0 -14 -9 -24.5
t-24 -10.5t-25 10.5t-10 24.5t10 24t25 10t24 -10t9 -24zM887 -84q0 -15 -10 -25t-23 -10q-17 0 -27 10t-10 25q0 14 10 24t27 10q13 0 23 -10t10 -24zM250 554q0 -16 -10.5 -26t-25.5 -10t-25 10t-10 26q0 15 10 24.5t25 9.5t25.5 -9.5t10.5 -24.5zM376 425
q0 -15 -9.5 -24.5t-25.5 -9.5q-15 0 -24.5 9.5t-9.5 24.5t9.5 25t24.5 10q16 0 25.5 -10t9.5 -25zM759 43q0 -14 -10 -24.5t-25 -10.5q-14 0 -24.5 10.5t-10.5 24.5q0 15 10 25.5t25 10.5t25 -10.5t10 -25.5zM121 680q0 -15 -10.5 -24t-25.5 -9q-13 0 -23 9t-10 24t10 24.5
t23 9.5q15 0 25.5 -9.5t10.5 -24.5zM504 171q0 -14 -9.5 -24.5t-25.5 -10.5q-14 0 -23.5 10.5t-9.5 24.5t9.5 24t23.5 10q16 0 25.5 -10t9.5 -24zM632 43q0 -14 -9.5 -24.5t-24.5 -10.5t-25 10.5t-10 24.5q0 15 10 25.5t25 10.5t24.5 -10.5t9.5 -25.5zM250 426
q0 -15 -10.5 -25t-25.5 -10t-25 9.5t-10 25.5q0 15 10 24.5t25 9.5t25.5 -9.5t10.5 -24.5zM376 297q0 -13 -9.5 -23t-25.5 -10q-15 0 -24.5 10t-9.5 23q0 15 9.5 25t24.5 10q16 0 25.5 -10t9.5 -25zM759 -84q0 -15 -10 -25t-25 -10q-14 0 -24.5 10.5t-10.5 24.5t10 24t25 10
t25 -10t10 -24zM121 553q0 -15 -10.5 -25t-25.5 -10q-13 0 -23 10t-10 25t10 24.5t23 9.5q15 0 25.5 -9.5t10.5 -24.5zM505 43q0 -14 -9.5 -24.5t-26.5 -10.5q-14 0 -23.5 10.5t-9.5 24.5q0 15 9.5 25.5t23.5 10.5q17 0 26.5 -10t9.5 -26zM632 -84q0 -14 -9.5 -24.5
t-24.5 -10.5t-25 10.5t-10 24.5t10 24t25 10t24.5 -10t9.5 -24zM376 171q0 -14 -9.5 -24.5t-25.5 -10.5q-15 0 -24.5 10.5t-9.5 24.5t9.5 24t24.5 10q16 0 25.5 -10t9.5 -24zM121 424q0 -14 -10.5 -23.5t-25.5 -9.5q-13 0 -23 9.5t-10 23.5q0 17 10 26.5t23 9.5
q15 0 25.5 -9.5t10.5 -26.5zM249 297q0 -13 -10.5 -23t-24.5 -10q-15 0 -25 10t-10 23q0 15 10 25t25 10t25 -10t10 -25zM505 -84q0 -15 -9.5 -25t-26.5 -10q-14 0 -23.5 10t-9.5 25q0 14 9.5 24t23.5 10q17 0 26.5 -10t9.5 -24zM377 43q0 -14 -9.5 -24.5t-25.5 -10.5
q-15 0 -25 10.5t-10 24.5q0 15 10 25.5t25 10.5q16 0 25.5 -10.5t9.5 -25.5zM249 171q0 -14 -10.5 -24.5t-24.5 -10.5q-15 0 -25 10.5t-10 24.5t10 24t25 10t25 -10t10 -24zM121 296q0 -14 -10.5 -23.5t-25.5 -9.5q-13 0 -23 9.5t-10 23.5q0 15 10 24.5t23 9.5
q15 0 25.5 -9.5t10.5 -24.5zM377 -84q0 -15 -9.5 -25t-25.5 -10q-15 0 -25 10t-10 25q0 14 10 24t25 10q16 0 25.5 -10t9.5 -24zM250 43q0 -14 -10.5 -24.5t-25.5 -10.5t-25 10.5t-10 24.5q0 15 10 25.5t25 10.5t25.5 -10.5t10.5 -25.5zM121 171q0 -14 -10.5 -24.5
t-25.5 -10.5q-13 0 -23 10.5t-10 24.5t10 23.5t23 9.5q36 0 36 -33zM250 -84q0 -14 -10.5 -24.5t-25.5 -10.5t-25 10t-10 25q0 14 10 24t25 10t25.5 -10t10.5 -24zM121 43q0 -14 -10.5 -24.5t-25.5 -10.5q-13 0 -23 10.5t-10 24.5t10 24t23 10q15 0 25.5 -10t10.5 -24z
M121 -84q0 -15 -10.5 -25t-25.5 -10q-13 0 -23 10t-10 25q0 14 10 24t23 10q15 0 25.5 -10t10.5 -24z" />
    <glyph glyph-name="uni25A4" unicode="&#x25a4;" horiz-adv-x="940" 
d="M52 -118v829h835v-829h-835zM851 676h-764v-78h764v78zM851 562h-764v-83h764v83zM851 445h-764v-74h764v74zM851 334h-764v-79h764v79zM851 219h-764v-81h764v81zM851 103h-764v-75h764v75zM851 -8h-764v-74h764v74z" />
    <glyph glyph-name="uni25A5" unicode="&#x25a5;" horiz-adv-x="940" 
d="M52 -118v828h835v-828h-835zM852 674h-77v-756h77v756zM740 674h-74v-756h74v756zM629 674h-80v-756h80v756zM513 674h-80v-756h80v756zM396 674h-76v-756h76v756zM285 674h-83v-756h83v756zM166 674h-79v-756h79v756z" />
    <glyph glyph-name="uni25A8" unicode="&#x25a8;" horiz-adv-x="940" 
d="M52 710h835v-828h-835v828zM478 -82h142l228 227v141zM289 -82h139l420 415v142zM664 -82h184v181zM112 -82h126l610 604v127zM86 64v-123l736 733h-124zM86 254v-144l564 564h-143zM86 448v-146l370 372h-141zM86 491l178 183h-178v-183z" />
    <glyph glyph-name="uni25A7" unicode="&#x25a7;" horiz-adv-x="940" 
d="M52 -119v830h835v-830h-835zM664 675q48 -48 92.5 -92t91.5 -91v183h-184zM478 675q94 -94 185 -185.5t185 -185.5v142q-57 57 -114 114.5t-114 114.5h-142zM289 675q141 -140 279 -278.5t280 -279.5v142q-106 104 -209.5 207.5t-210.5 208.5h-139zM112 675
q186 -186 368 -366.5t368 -365.5v125q-154 153 -304.5 303.5t-305.5 303.5h-126zM822 -82q-186 185 -368 366.5t-368 367.5v-125q155 -154 306 -305t306 -304h124zM650 -82q-141 142 -281.5 282t-282.5 281v-143q107 -107 211 -210.5t210 -209.5h143zM456 -82
q-94 94 -185 185.5t-185 185.5v-146q59 -57 115.5 -113t113.5 -112h141zM264 -82q-45 46 -89 90.5t-89 91.5v-182h178z" />
    <glyph glyph-name="uni25A6" unicode="&#x25a6;" horiz-adv-x="940" 
d="M52 -118v829h835v-829h-835zM851 676h-81v-79h81v79zM737 676h-78v-79h78v79zM851 564h-81v-86h81v86zM626 676h-83v-79h83v79zM737 564h-78v-86h78v86zM851 446h-81v-78h81v78zM626 564h-83v-86h83v86zM511 676h-86v-79h86v79zM737 446h-78v-78h78v78zM851 335h-81v-81
h81v81zM737 335h-78v-81h78v81zM393 676h-76v-79h76v79zM626 446h-83v-78h83v78zM511 564h-86v-86h86v86zM851 221h-81v-84h81v84zM285 676h-85v-79h85v79zM626 335h-83v-81h83v81zM737 221h-78v-84h78v84zM851 105h-81v-78h81v78zM393 564h-76v-86h76v86zM511 446h-86v-78
h86v78zM851 -5h-81v-77h81v77zM737 105h-78v-78h78v78zM167 676h-80v-79h80v79zM626 221h-83v-84h83v84zM285 564h-85v-86h85v86zM511 335h-86v-81h86v81zM393 446h-76v-78h76v78zM737 -5h-78v-77h78v77zM626 105h-83v-78h83v78zM393 335h-76v-81h76v81zM285 446h-85v-78h85
v78zM167 564h-80v-86h80v86zM511 221h-86v-84h86v84zM626 -5h-83v-77h83v77zM285 335h-85v-81h85v81zM511 105h-86v-78h86v78zM393 221h-76v-84h76v84zM167 446h-80v-78h80v78zM511 -5h-86v-77h86v77zM167 335h-80v-81h80v81zM285 221h-85v-84h85v84zM393 105h-76v-78h76v78
zM393 -5h-76v-77h76v77zM285 105h-85v-78h85v78zM167 221h-80v-84h80v84zM285 -5h-85v-77h85v77zM167 105h-80v-78h80v78zM167 -5h-80v-77h80v77z" />
    <glyph glyph-name="uni25A9" unicode="&#x25a9;" horiz-adv-x="940" 
d="M53 -119v829h834v-829h-834zM360 208q-18 19 -36.5 37.5l-36.5 36.5q-18 -18 -36 -36.5t-37 -36.5q19 -18 37.5 -36.5l36.5 -36.5zM554 408q18 18 36 35t36 35l-72 72l-72 -72q18 -18 36 -35t36 -35zM650 503q18 18 35 36t35 36l-70 71q-18 -18 -36 -35.5t-36 -35.5z
M189 42q18 18 35.5 36t35.5 37l-69 69l-71 -72zM382 42l35.5 35.5t36.5 35.5l-70 70l-71 -71q18 -18 34.5 -35t34.5 -35zM816 478l-69 70q-18 -18 -36 -35.5t-36 -35.5l71 -69zM286 -52q18 18 36 35l36 34l-70 70l-72 -72q18 -18 35 -33.5t35 -33.5zM456 505q18 18 35.5 36
t35.5 36q-17 18 -32.5 34t-32.5 33l-36 -36t-37 -36l34 -34zM652 314q18 18 34 34.5t34 33.5q-18 18 -34 35t-34 35q-18 -18 -34 -34.5t-34 -33.5zM473 -50q19 18 37 35.5t36 35.5l-66 65l-70 -71q15 -16 31 -32t32 -33zM258 308q-17 16 -32.5 32t-32.5 33
q-18 -18 -35.5 -35t-35.5 -35q16 -16 32 -32.5t33 -33.5zM744 219q17 18 35 35t36 35l-33 33t-34 32l-69 -69l33 -33t32 -33zM269 646q-17 -16 -32.5 -31.5l-31.5 -31.5q18 -18 36 -35.5t36 -35.5l62 63zM189 425q16 16 32 31.5t32 31.5q-18 17 -36.5 34.5t-36.5 35.5
l-62 -62zM564 224q30 32 62 62q-18 18 -35 36t-35 36q-15 -17 -31 -32.5t-32 -32.5zM468 322q16 16 30.5 31.5t30.5 31.5l-69 69q-16 -16 -31.5 -31t-30.5 -31zM380 234q15 16 30.5 31t30.5 31q-18 18 -35 35.5t-35 35.5l-60 -63q18 -17 34.5 -34.5t34.5 -35.5zM537 199
q-17 18 -33.5 35t-33.5 35q-17 -16 -32.5 -31t-30.5 -31q17 -18 34.5 -34.5t35.5 -34.5zM750 38q17 16 32 32t31 32q-17 17 -32.5 33t-33.5 33q-16 -16 -31.5 -31t-31.5 -32l33 -33t33 -34zM433 481l-33 33t-33 32q-33 -32 -63 -63q16 -16 32 -31.5t34 -32.5zM281 330
q16 17 31 32.5t31 31.5q-16 17 -32 33l-32 32q-16 -15 -31.5 -31t-31.5 -32q17 -17 32.5 -33t32.5 -33zM657 132q16 17 31 32l31 31l-65 66q-16 -16 -31.5 -32t-30.5 -32zM725 13l-66 66l-62 -62q18 -17 34 -32.5t32 -33.5zM570 47q16 14 30.5 29.5t29.5 30.5
q-16 17 -31.5 33t-31.5 33q-16 -15 -31.5 -30.5t-30.5 -32.5q17 -16 32.5 -32t32.5 -31zM849 647q-22 -20 -40.5 -39t-38.5 -39l79 -78v156zM87 -60l39 39t40 39q-21 20 -40 40t-39 40v-158zM87 322l39 39t40 39l-79 78v-156zM652 -82q-21 19 -39.5 38t-39.5 38
q-20 -19 -39 -38t-39 -38h157zM849 269q-20 -19 -39 -38l-38 -38l77 -77v153zM87 136q19 20 38 39l39 39q-20 19 -39 37t-38 37v-152zM740 599q20 19 39 38t38 37h-154q20 -18 39 -37zM774 380q18 -20 37 -38.5t38 -37.5v150q-19 -19 -38 -37t-37 -37zM364 600l37.5 37.5
t37.5 36.5h-150zM192 -10q-19 -18 -37 -36t-37 -36h149zM458 -82q-19 18 -37.5 35.5t-36.5 35.5l-72 -71h146zM551 602q18 18 35.5 36t35.5 36h-143zM849 80l-70 -69l70 -69v138zM753 -15q-18 -18 -34.5 -33.5t-34.5 -33.5h136zM153 585l-66 66v-132zM176 609
q18 17 33.5 32.5l32.5 32.5h-131z" />
    <glyph glyph-name="uni2668" unicode="&#x2668;" horiz-adv-x="940" 
d="M665 248q0 -45 -36 -114q-20 -39 -32 -67t-14 -45h-13q-8 32 -8 55q0 17 3 40t10 51q7 31 10.5 53.5t3.5 38.5q0 43 -22 109t-22 106q0 22 33 91q17 38 27.5 63t13.5 37h11q7 -14 7 -47q0 -12 -2 -30t-6 -42q-4 -23 -6 -41t-2 -31q0 -48 22 -115t22 -112zM538 260
q0 -51 -38 -125q-25 -48 -39.5 -77.5t-18.5 -43.5h-15q-2 10 -3.5 21.5t-1.5 25.5q0 38 19 95q19 58 19 97t-24 113q-24 73 -24 111q0 48 33 119q36 73 39 116h13q18 -38 18 -75q0 -27 -15 -79q-15 -51 -15 -76q0 -29 26 -109q27 -74 27 -113zM397 248q0 -44 -36 -113
q-20 -38 -32 -66.5t-14 -45.5h-12q-9 19 -9 56q0 39 13 90q7 28 10 51t3 41q0 38 -21 109q-20 78 -20 107q0 21 32 90q17 35 27.5 60t12.5 40h11q6 -20 6 -47q0 -13 -2 -31.5t-6 -43.5t-6 -43t-2 -31q0 -46 22 -113q23 -80 23 -110zM872 90q0 -42 -20.5 -73t-54.5 -54
t-77 -37.5t-89 -23.5t-90.5 -12.5t-80.5 -3.5q-33 0 -74.5 3.5t-85 12t-85.5 22.5t-74.5 35.5t-52.5 50.5t-20 68q0 34 22 62.5t54 50.5t69.5 36.5t69.5 20.5l4 -13q-19 -6 -44.5 -20t-49 -32.5t-39.5 -39.5t-16 -41q0 -27 17.5 -46.5t45 -33t63 -21.5t71 -12t68.5 -5.5
t57 -1.5q25 0 60.5 1.5t74 6t76.5 13t68.5 23t49.5 35.5t19 51q0 28 -29 58.5t-92 56.5l7 12q26 -5 57 -18.5t58 -33t45 -44.5t18 -53z" />
    <glyph glyph-name="uni260F" unicode="&#x260f;" horiz-adv-x="940" 
d="M880 386q0 55 -37.5 95.5t-118.5 67.5q-107 37 -253 37q-142 0 -258 -38q-81 -27 -118.5 -68t-37.5 -97q0 -22 7.5 -29.5t21.5 -7.5q15 0 33.5 4t46.5 13q33 11 47 19.5t14 20.5q0 5 -9 25q-9 21 -9 36q0 13 9.5 26t23.5 23q29 20 58 20q12 0 20.5 -14.5t8.5 -37.5
q0 -57 -12.5 -104t-41.5 -83q-23 -29 -48 -54.5t-48 -53.5q-8 -10 -13.5 -24t-10.5 -32q-3 -14 -6 -29t-6 -29q-2 -9 -12 -28q-7 -13 -7 -26q0 -11 5 -13.5t16 -2.5h613q26 0 36.5 5.5t10.5 21.5q0 14 -8 30q-6 13 -9.5 20.5t-4.5 9.5q-2 14 -5.5 35t-13.5 48
q-8 22 -24.5 43t-38.5 44q-48 52 -62 79q-28 52 -28 134q0 25 8.5 40t22.5 15t28.5 -3t28.5 -9q17 -8 27.5 -20t10.5 -24q0 -16 -10 -36t-10 -31t13 -19.5t44 -17.5q26 -8 44.5 -11t32.5 -3q16 0 22.5 7t6.5 26zM587 440q0 -41 -67 -41h-110q-58 0 -58 39v87
q34 -5 63.5 -7.5t55.5 -2.5q25 0 53.5 2t62.5 6v-83zM633 203q0 -35 -13 -65t-35.5 -52t-52.5 -34t-65 -12t-65 12.5t-52.5 34t-35.5 51.5t-13 65t12.5 65.5t35 52.5t53 34.5t65.5 12.5q36 0 66 -12.5t52.5 -34.5t35 -52.5t12.5 -65.5zM554 494q-17 -4 -36 -5.5t-48 -1.5
q-27 0 -46.5 2t-39.5 7v-46q0 -11 7.5 -16.5t26.5 -5.5h101q35 0 35 23v43zM596 204q0 27 -9.5 51t-26 42.5t-40.5 29t-52 10.5q-29 0 -53.5 -10t-41.5 -28t-26.5 -42.5t-9.5 -52.5q0 -57 34 -94.5t94 -37.5q28 0 52.5 10t41.5 28t27 42t10 52zM922 390q0 -35 -16 -54
t-45 -19q-20 0 -48.5 6t-56.5 14q-38 11 -59 27.5t-21 35.5q0 14 11 40q4 8 6 13.5t2 10.5q0 8 -10 12.5t-22 7.5q-4 1 -7 0t-3 -7v-22q0 -66 29 -115q7 -12 23 -31.5t39 -45.5q22 -23 37 -46t23 -44q5 -10 8 -22t5 -24q4 -19 6 -32t4 -17q0 -1 11 -20q9 -15 9 -28
q0 -25 -21.5 -44t-63.5 -19h-626q-29 0 -40 15t-11 40q0 18 9 35q5 8 8 14t4 11q2 14 5 27l6 26q11 38 24 62q12 19 60 70q21 21 36 40t23 35q14 23 21.5 51t7.5 60v31q0 6 -3.5 8.5t-7.5 0.5q-10 -3 -19 -9.5t-9 -22.5q0 -5 2 -8.5t4 -10.5q3 -9 6 -19.5t3 -20.5
q0 -17 -21.5 -36.5t-58.5 -31.5q-26 -8 -55.5 -15.5t-51.5 -7.5q-27 0 -43.5 18t-16.5 51q0 67 47 119t129 81q55 20 125 29.5t151 9.5q152 0 271 -38q88 -29 134.5 -78t46.5 -113z" />
    <glyph glyph-name="uni260E" unicode="&#x260e;" horiz-adv-x="940" 
d="M913 391q0 -64 -50 -64q-45 0 -103 19q-74 23 -74 55q0 13 9 36q10 21 10 33q0 11 -16.5 20t-33.5 9q-13 0 -13 -14v-29q0 -68 30 -119q7 -12 23 -31.5t41 -46.5q22 -23 36.5 -45.5t22.5 -43.5q8 -17 12 -46q3 -17 5.5 -29t4.5 -17q1 -7 12 -25q8 -14 8 -25
q0 -23 -20.5 -38t-51.5 -15h-632q-39 0 -39 45q0 17 9 32q5 8 8.5 15t4.5 12q2 14 5 27t6 27q5 19 10.5 34t12.5 26q12 19 60 70q22 22 37 41t23 35q28 49 28 115v42q0 9 -8 9q-16 0 -33 -13t-17 -29q0 -8 7.5 -26.5t7.5 -33.5q0 -37 -75 -62q-60 -21 -106 -21q-47 0 -47 61
q0 134 167 191q112 39 276 39q152 0 271 -38q172 -57 172 -182zM587 523q-34 -4 -62.5 -6t-53.5 -2q-26 0 -55.5 2.5t-63.5 7.5v-87q0 -39 58 -39h110q67 0 67 41v83zM633 203q0 35 -12.5 65.5t-35 52.5t-52.5 34.5t-66 12.5q-35 0 -65.5 -12.5t-53 -34.5t-35 -52.5
t-12.5 -65.5t13 -65t35.5 -51.5t52.5 -34t65 -12.5t65 12t52.5 34t35.5 52t13 65z" />
    <glyph glyph-name="uni261C" unicode="&#x261c;" horiz-adv-x="940" 
d="M780 187v21h-26q-13 -6 -25.5 -12t-25.5 -11q-26 -11 -54.5 -19t-60.5 -13q-31 -4 -112 -3q-74 2 -77 3q-20 0 -36 9q-19 10 -19 29q0 20 16 26q-22 0 -32 16q-6 9 -6 18q0 14 11 28q-12 0 -23.5 10t-12.5 22q0 36 81 39l-3 8q-23 1 -65 3t-103 5q-74 3 -75 4
q-49 7 -46 40q2 27 50 32q17 2 33 2t32 1q46 2 115.5 3.5t166.5 1.5q89 0 116 -3q75 -11 124 -55q2 -3 59 -5v31h73v-231h-75zM782 370q-1 0 -6.5 0.5l-16.5 1.5q-6 1 -11 1h-10q4 -9 4 -16q0 -3 -2 -3t-20 19q-22 21 -44 35q-43 28 -159 28q-18 0 -21 -1q-42 -9 -65 -24
q-11 -6 -21 -25q-11 -20 -20 -26q-1 -1 2.5 -4t10.5 -3t18 3q9 4 25 18q16 15 19 15q2 0 3 -1q3 -6 -4 -15q0 -2 17 -4q16 -2 24 0q5 2 11.5 4t13.5 6q13 7 14 7q2 0 2 -1q2 -10 -14 -23q5 -5 10.5 -10t11.5 -10q24 -21 55 -31q25 -7 65 -12q26 -5 26 -9q0 -6 -31 -5
q-30 2 -55 9q-41 12 -72 39l-26 26q-17 -3 -22 -3q-24 0 -42 7l-14 -13q8 -2 15.5 -3.5t14.5 -3.5q31 -9 33 -17q3 -8 3 -13q0 -14 -14 -28q9 0 20.5 -11.5t11.5 -20.5q0 -14 -16 -26q11 -3 16 -7q15 -9 16 -22q1 -18 -13 -32h4t8 -1h12t10 1q36 2 72 11.5t73 25.5
q55 22 58 27v-11q1 -1 20 0v151zM445 435q-61 0 -121.5 -1t-121.5 -3q-28 -1 -46.5 -2t-26.5 -3q-26 -5 -27 -19q0 -15 23 -21q17 -3 77 -6q39 -2 84.5 -3.5t99.5 -3.5q3 4 8 11.5t12 18.5q10 18 39 32zM839 401h-43v-198h43v198zM480 293q9 7 9 17q0 19 -28 23q-36 7 -87 3
q-34 1 -53 -12q-6 -5 -6 -12q0 -20 23 -20q2 -2 56 -2q78 0 86 3zM506 253q0 23 -44 23h-96q-10 0 -18.5 -7.5t-8.5 -15.5q0 -12 14 -20q2 -1 15.5 -2t36.5 -2q43 -2 48 0q17 0 30 4q22 6 23 16v4zM522 197q-3 17 -31 17h-48h-26.5t-35.5 -1q-19 -1 -19 -20q0 -16 13 -20
q16 -5 63 -6q45 0 47 2q11 0 23 6q17 9 14 22z" />
    <glyph glyph-name="uni261E" unicode="&#x261e;" horiz-adv-x="940" 
d="M158 418v-31q55 1 59 5q49 44 124 55q27 3 116 3q97 0 166.5 -1.5t115.5 -3.5q16 -1 32 -1t33 -2q48 -5 50 -32q3 -33 -46 -40q-1 -1 -75 -4q-61 -3 -103 -5t-65 -3l-3 -8q81 -3 81 -39q-1 -12 -12.5 -22t-23.5 -10q11 -14 11 -28q0 -9 -6 -18q-10 -16 -32 -16
q16 -6 16 -26q0 -19 -19 -29q-17 -9 -36 -9q-3 -1 -77 -3q-81 -1 -112 3q-59 9 -115 32q-13 5 -25.5 11t-25.5 12h-26v-21h-75v231h73zM158 219q19 -1 20 0v11q2 -5 58 -27q37 -16 73 -25.5t72 -11.5q5 -1 10 -1h12q5 1 8 1h4q-14 14 -13 32q1 13 16 22q5 4 16 7
q-16 12 -16 26q0 9 11.5 20.5t20.5 11.5q-14 14 -14 28q0 5 3 13q2 8 33 17q7 2 14.5 3.5t15.5 3.5l-14 13q-18 -7 -42 -7q-6 0 -22 3l-26 -26q-32 -27 -72 -39q-25 -7 -55 -9q-31 -1 -31 5q0 4 26 9q40 5 65 12q31 10 55 31q6 5 11.5 10t10.5 10q-16 13 -14 23q0 1 2 1
q1 0 14 -7q7 -4 13.5 -6t11.5 -4q7 -2 24 0t17 4q-7 9 -4 15q1 1 3 1t19 -15q16 -14 25 -18q10 -3 18 -3q7 0 10.5 3t2.5 4q-9 6 -20 26q-10 19 -21 25q-23 15 -65 24q-3 1 -21 1q-116 0 -159 -28q-23 -14 -44 -35q-18 -19 -20 -19t-2 3q0 7 4 16h-10t-11 -1l-16.5 -1.5
t-6.5 -0.5v-151zM495 435q29 -14 39 -32q7 -11 12 -18.5t8 -11.5q54 2 99.5 3.5t84.5 3.5q60 3 77 6q23 6 23 21q-1 14 -27 19q-8 2 -26.5 3t-46.5 2q-61 2 -121.5 3t-121.5 1zM144 401h-43v-198h43v198zM460 293q7 -3 86 -3q54 0 56 2q23 0 23 20q0 7 -6 12q-19 13 -53 12
q-51 4 -87 -3q-28 -4 -28 -23q0 -10 9 -17zM434 249q1 -10 23 -16q13 -4 30 -4q4 -2 48 0q23 1 36.5 2t15.5 2q14 8 14 20q0 8 -8.5 15.5t-18.5 7.5h-96q-44 0 -44 -23v-4zM418 197q-3 -13 14 -22q12 -6 23 -6q2 -2 47 -2q46 1 63 6q13 4 13 20q0 19 -19 20q-20 1 -35.5 1
h-26.5h-48q-28 0 -31 -17z" />
    <glyph glyph-name="paragraph" unicode="&#xb6;" horiz-adv-x="560" 
d="M246 242q-32 4 -66 18t-62.5 41t-47 66.5t-18.5 94.5q0 44 11.5 88t43.5 79t88.5 57t147.5 22q46 0 75 -3t58 -11v-774h-98v681h-29v-681h-103v322z" />
    <glyph glyph-name="dagger" unicode="&#x2020;" horiz-adv-x="640" 
d="M388 336v-418h-137v418h-180v117h180v222h137v-222h180v-117h-180z" />
    <glyph glyph-name="daggerdbl" unicode="&#x2021;" horiz-adv-x="640" 
d="M251 351v79h-179v117h179v129h137v-129h180v-117h-180v-79h180v-117h-180v-318h-137v318h-179v117h179z" />
    <glyph glyph-name="arrowupdn" unicode="&#x2195;" horiz-adv-x="700" 
d="M538 70l-189 -256l-188 256h121v461h-121l188 256l189 -256h-123v-461h123z" />
    <glyph glyph-name="uni2197" unicode="&#x2197;" horiz-adv-x="940" 
d="M794 570l-694 -767l-88 75l702 772l-104 106l299 14l-18 -297z" />
    <glyph glyph-name="uni2199" unicode="&#x2199;" horiz-adv-x="940" 
d="M144 20l694 768l88 -75l-703 -772l105 -106l-299 -14l18 297z" />
    <glyph glyph-name="uni2196" unicode="&#x2196;" horiz-adv-x="940" 
d="M46 474l-18 297l299 -14l-105 -106l703 -772l-88 -75l-694 768z" />
    <glyph glyph-name="uni2198" unicode="&#x2198;" horiz-adv-x="940" 
d="M892 118l18 -297l-299 14l104 106l-702 772l88 75l694 -768z" />
    <glyph glyph-name="uni266D" unicode="&#x266d;" horiz-adv-x="580" 
d="M489 302q0 -79 -31 -142t-85 -107.5t-127 -69t-156 -26.5v739h138v-295q24 24 54.5 38.5t58.5 14.5q72 0 110 -40t38 -112zM344 271q0 28 -6.5 43t-25.5 15q-14 0 -26.5 -8t-23.5 -21t-19.5 -29t-14.5 -31v-141q57 23 86.5 67t29.5 105z" />
    <glyph glyph-name="uni2669" unicode="&#x2669;" horiz-adv-x="400" 
d="M302 70q0 -30 -13 -60t-35.5 -53.5t-51.5 -38t-62 -14.5q-40 0 -61 16t-21 56q0 22 11 42.5t30 36t44.5 25t54.5 9.5h6q9 0 9 11v622h89v-652z" />
    <glyph glyph-name="musicalnote" unicode="&#x266a;" horiz-adv-x="600" 
d="M428 375q-30 29 -66 53t-71 53v-411q0 -30 -13 -60t-35.5 -53.5t-51.5 -38t-62 -14.5q-40 0 -61 16t-21 56q0 22 11 42.5t30 36t44.5 25t54.5 9.5h6q9 0 9 11v618h62q29 -51 71.5 -90t93.5 -75q32 -23 55.5 -46.5t38.5 -50t22.5 -57t7.5 -68.5q0 -78 -43 -139t-115 -114
l-32 36q30 31 48.5 58t29 51t14 45t3.5 39q0 38 -30 68z" />
    <glyph glyph-name="uni266C" unicode="&#x266c;" horiz-adv-x="840" 
d="M744 180q0 -30 -13 -60t-35.5 -53.5t-51.5 -38t-62 -14.5q-40 0 -61 16t-21 56q0 22 11 42.5t30 36t44.5 25t54.5 9.5h6q9 0 9 11v211l-358 -76v-275q0 -30 -13 -60t-35.5 -53.5t-51.5 -38t-62 -14.5q-40 0 -61 16t-21 56q0 22 11 42.5t30 36t44.5 25t54.5 9.5h6
q9 0 9 11v534l536 113v-567zM659 595l-359 -80v-32l359 80v32z" />
    <glyph glyph-name="uni327F" unicode="&#x327f;" horiz-adv-x="940" 
d="M785 444q-19 49 -51.5 87.5t-74.5 65.5t-90.5 42t-100.5 16q-63 1 -121.5 -20t-105 -60t-76.5 -95t-36 -125h115v-70h-194v20q0 93 33 170.5t90 133t133 86t162 30.5q66 0 128 -20.5t114.5 -57t92.5 -88.5t61 -115h-79zM572 90l-164 189l-4 -5v-184h-82v449h82v-169
l143 165h103l-186 -208l217 -237h-109zM890 305q0 -87 -33.5 -163.5t-91 -133.5t-134 -90t-163.5 -33q-71 0 -138.5 24.5t-123 68t-94.5 103.5t-53 131l77 1q14 -56 46 -103.5t76 -82t98 -54t112 -19.5q68 0 130.5 25.5t111 70.5t78 105.5t31.5 129.5h-193v70h261
q3 -26 3 -50z" />
    <glyph glyph-name="uni321C" unicode="&#x321c;" horiz-adv-x="940" 
d="M235 619h469v-114h-147q25 -38 75 -64t114 -40l-45 -109q-72 14 -132.5 48.5t-99.5 90.5q-40 -56 -97 -89t-135 -49l-45 109q66 14 115.5 39.5t73.5 63.5h-146v114zM772 727q81 -91 116.5 -201.5t35.5 -225.5q0 -57 -8.5 -116t-26.5 -115.5t-46.5 -109t-68.5 -95.5h-119
q40 46 68.5 99.5t47 109.5t27 113.5t8.5 113.5q0 112 -35.5 224t-116.5 203h118zM286 727q-81 -91 -116.5 -203t-35.5 -224q0 -56 8.5 -113.5t27 -113.5t47 -109.5t68.5 -99.5h-119q-40 43 -68.5 95.5t-46.5 109t-26.5 115.5t-8.5 116q0 115 35.5 225.5t116.5 201.5h118z
M399 -36v195h-230v114h599v-114h-231v-195h-138z" />
    <glyph glyph-name="uni2116" unicode="&#x2116;" horiz-adv-x="940" 
d="M406 -53h-138l-120 420v-420h-119v734h142l116 -412v412h119v-734zM610 -62q-52 0 -86.5 23t-55 61.5t-29 87.5t-8.5 101q0 54 8.5 104.5t28.5 89.5t54.5 62t87.5 23t87 -23t54 -62t28 -89.5t8 -104.5q0 -52 -8 -101t-28.5 -87.5t-54.5 -61.5t-86 -23zM610 384
q-14 0 -22.5 -15t-13.5 -39.5t-6.5 -55.5t-1.5 -63q0 -35 3 -65.5t8.5 -53t13.5 -35.5t19 -13t19 13t13.5 35.5t8 53t2.5 65.5q0 32 -1.5 63t-6 55.5t-13 39.5t-22.5 15zM917 -56h-133v133h133v-133z" />
    <glyph glyph-name="uni33C7" unicode="&#x33c7;" horiz-adv-x="940" 
d="M32 310q0 87 15 156t45.5 117.5t77.5 74.5t111 26q23 0 42 -3t36.5 -10.5t34.5 -20t36 -31.5l-59 -115q-30 30 -48 44t-43 14q-34 0 -54.5 -24t-31.5 -61.5t-14.5 -82t-3.5 -84.5q0 -39 3.5 -82.5t14.5 -81t31.5 -62t54.5 -24.5q13 0 23.5 2t21.5 8.5t24 19t30 32.5
l64 -104q-37 -45 -75 -62.5t-87 -17.5q-64 0 -111 26.5t-77.5 75t-45.5 117.5t-15 153zM610 -62q-52 0 -86.5 23t-55 61.5t-29 87.5t-8.5 101q0 54 8.5 104.5t28.5 89.5t54.5 62t87.5 23t87 -23t54 -62t28 -89.5t8 -104.5q0 -52 -8 -101t-28.5 -87.5t-54.5 -61.5t-86 -23z
M610 384q-14 0 -22.5 -15t-13.5 -39.5t-6.5 -55.5t-1.5 -63q0 -35 3 -65.5t8.5 -53t13.5 -35.5t19 -13t19 13t13.5 35.5t8 53t2.5 65.5q0 32 -1.5 63t-6 55.5t-13 39.5t-22.5 15zM917 -56h-133v133h133v-133z" />
    <glyph glyph-name="trademark" unicode="&#x2122;" horiz-adv-x="800" 
d="M645 355v95l-33 -95h-80l-38 102v-102h-114v373h102l89 -219l83 219h105v-373h-114zM261 616v-261h-133v261h-95v112h325v-112h-97z" />
    <glyph glyph-name="uni33C2" unicode="&#x33c2;" horiz-adv-x="940" 
d="M690 320q0 34 -1.5 44.5t-6.5 10.5q-7 0 -11 -9.5t-9 -23.5v-393h-118v365q0 35 -1.5 48t-6.5 13q-7 0 -11 -11.5t-9 -31.5v-383h-120v529h111v-23q8 17 22.5 25.5t28.5 8.5q21 0 37 -15.5t26 -36.5q15 27 36.5 39.5t43.5 12.5q63 0 86 -42t23 -123v-375h-120v371zM32 94
q0 88 42 138.5t109 54.5v8q0 39 -10 61t-27 22q-10 0 -23.5 -9.5t-36.5 -39.5l-50 87q26 32 56.5 54.5t72.5 22.5q37 0 61.5 -15.5t39.5 -42.5t21 -63.5t6 -77.5v-345h-102v23q-10 -17 -25.5 -25.5t-29.5 -8.5q-28 0 -47.5 12.5t-32 34t-18.5 50t-6 59.5zM384 -48h-77v117
h77v-117zM900 -48h-77v117h77v-117zM163 45q11 0 15.5 19t4.5 78v46q-16 -8 -28.5 -29.5t-12.5 -54.5q0 -32 6 -45.5t15 -13.5z" />
    <glyph glyph-name="uni33D8" unicode="&#x33d8;" horiz-adv-x="940" 
d="M690 320q0 34 -1.5 44.5t-6.5 10.5q-7 0 -11 -9.5t-9 -23.5v-393h-118v365q0 35 -1.5 48t-6.5 13q-7 0 -11 -11.5t-9 -31.5v-383h-120v529h111v-23q8 17 22.5 25.5t28.5 8.5q21 0 37 -15.5t26 -36.5q15 27 36.5 39.5t43.5 12.5q63 0 86 -42t23 -123v-375h-120v371z
M138 479v-25q14 19 31 27t31 8q57 0 86.5 -71.5t29.5 -210.5q0 -59 -6.5 -108.5t-21.5 -85.5t-39 -56t-58 -20q-10 0 -21 4t-22 14v-181h-117v705h107zM146 153q0 -48 8 -74.5t20 -26.5q7 0 11.5 12t7.5 33.5t4.5 50.5t1.5 62q0 77 -5 121t-21 44q-10 0 -18.5 -27.5
t-8.5 -74.5v-120zM900 -48h-77v117h77v-117zM384 -48h-73v114h73v-114z" />
    <glyph glyph-name="uni2121" unicode="&#x2121;" horiz-adv-x="940" 
d="M-1 556v123h436v-123h-148v-607h-147v607h-141zM536 375q-16 0 -27 -8t-18.5 -21t-12 -29t-7.5 -32h118q-2 15 -5.5 31t-9.5 29t-15.5 21.5t-22.5 8.5zM720 8q-43 -35 -83.5 -52.5t-89.5 -17.5q-46 0 -84.5 17.5t-66.5 52.5t-43.5 87t-15.5 120q0 60 12.5 110.5t37 87
t62 57t87.5 20.5q66 0 105 -30t59 -76.5t24.5 -103t1.5 -109.5h-258q3 -33 10.5 -55.5t18.5 -36t25.5 -19t29.5 -5.5q13 0 26 1.5t28.5 6.5t34 15t42.5 28zM897 709v-759h-146v759h146z" />
    <glyph glyph-name="uniFF01" unicode="&#xff01;" horiz-adv-x="900" 
d="M553 639q-12 -71 -18.5 -135t-8.5 -125t0 -120t7 -120l-186 -4q7 74 10.5 134t3.5 117.5t-3 117.5t-10 135h205zM348 0q0 34 26.5 58t75.5 24t76 -24t27 -58q0 -35 -27 -59t-76 -24t-75.5 24t-26.5 59z" />
    <glyph glyph-name="uniFF02" unicode="&#xff02;" horiz-adv-x="900" 
d="M433 719q-10 -59 -11 -105.5t2 -90.5l-103 -1q3 32 5 56.5t2 47t-1.5 44.5t-5.5 49h112zM578 719q-10 -59 -11 -105.5t2 -90.5l-103 -1q3 32 5 56.5t2 47t-1.5 44.5t-5.5 49h112z" />
    <glyph glyph-name="uniFF03" unicode="&#xff03;" horiz-adv-x="900" 
d="M133 496q17 -5 45.5 -8.5t65.5 -5.5q-2 38 -4 75.5t-6 76.5h166q-4 -38 -7 -77.5t-5 -80.5q28 -1 56 -1h57q-1 41 -2 81.5t-2 81.5h180q-13 -76 -21 -161q35 2 63 3t47 3q-6 -32 -12.5 -66.5t-19.5 -68.5q-20 2 -41.5 4.5t-44.5 4.5q-2 -35 -3 -70l-2 -70q39 2 71 3t52 3
q-6 -32 -12.5 -66.5t-19.5 -68.5q-21 3 -43.5 5.5t-47.5 4.5q1 -89 6 -162l-165 -3q5 42 8.5 85t5.5 88q-29 1 -59 1h-60q1 -48 1.5 -90t2.5 -80h-166q10 76 18 162q-25 -2 -48.5 -4.5t-45.5 -6.5q-1 31 -2 71.5t-6 76.5q17 -5 45 -8.5t65 -5.5q3 67 3 138q-28 -2 -54.5 -5
t-50.5 -7q-1 31 -2 71.5t-6 76.5zM383 367q-3 -77 -3 -151q30 -1 60.5 -1h61.5q2 74 0 151q-29 1 -59 1h-60z" />
    <glyph glyph-name="uniFF04" unicode="&#xff04;" horiz-adv-x="900" 
d="M658 386q-25 21 -51 34t-50.5 20t-46.5 9t-39 2q-38 0 -54.5 -13t-16.5 -33t11 -34t28 -24.5t38.5 -18.5t41.5 -16q29 -11 61.5 -23.5t60 -31t45.5 -44t18 -62.5q0 -66 -39.5 -113t-130.5 -61q1 -11 1 -20.5t1 -19.5h-156q2 11 2.5 22.5t2.5 23.5q-51 12 -102.5 36
t-90.5 59l101 129q9 -20 27.5 -40.5t42 -36.5t50 -26t51.5 -10q45 0 62.5 11t17.5 33q0 14 -6.5 25t-21 21.5t-37 21.5t-54.5 25q-33 14 -67 29.5t-62 36t-45.5 48t-17.5 65.5q0 66 39.5 109.5t129.5 55.5q-2 15 -3 30t-2 29h156q-2 -14 -3 -30t-2 -33q74 -13 160 -44z" />
    <glyph glyph-name="uniFF05" unicode="&#xff05;" horiz-adv-x="900" 
d="M723 562q-59 -74 -116 -156t-110 -166t-100.5 -165t-88.5 -152l-133 75q103 143 198.5 307t199.5 346zM245 372q-62 0 -98 31t-36 87q0 57 36 88.5t98 31.5t98 -31.5t36 -88.5q0 -56 -36 -87t-98 -31zM245 448q16 0 29.5 10t13.5 32q0 23 -13.5 33t-29.5 10t-29.5 -10
t-13.5 -33q0 -22 13.5 -32t29.5 -10zM655 -18q-62 0 -98 31t-36 87q0 57 36 88.5t98 31.5t98 -31.5t36 -88.5q0 -56 -36 -87t-98 -31zM655 58q16 0 29.5 10t13.5 32q0 23 -13.5 33t-29.5 10t-29.5 -10t-13.5 -33q0 -22 13.5 -32t29.5 -10z" />
    <glyph glyph-name="uniFF06" unicode="&#xff06;" horiz-adv-x="900" 
d="M135 103q0 51 33.5 96t114.5 96q-14 18 -28.5 38.5t-26 44t-18.5 49.5t-7 55q0 42 17.5 73.5t46 52.5t65.5 31t76 10q32 0 67 -8t64.5 -27.5t49 -52t19.5 -81.5q0 -31 -14 -61t-36.5 -57t-49.5 -50.5t-53 -41.5q29 -30 59 -59t62 -57q20 25 38 52.5t33 56.5l118 -73
q-19 -32 -41 -60.5t-46 -54.5q20 -13 39.5 -25t39.5 -23l-98 -127q-21 20 -44 42.5t-47 46.5q-41 -23 -84.5 -36t-89.5 -13q-54 0 -101 9.5t-82.5 29.5t-55.5 51t-20 73zM332 474q0 -32 15 -62t35 -57q16 10 32.5 23.5t30 29.5t22 33.5t8.5 35.5q0 31 -19.5 45.5t-53.5 14.5
q-30 0 -50 -16t-20 -47zM395 54q45 0 87 22q-34 35 -66 68t-59 64q-37 -25 -55.5 -45t-18.5 -44q0 -19 10.5 -31.5t27 -20t36 -10.5t38.5 -3z" />
    <glyph glyph-name="uniFF07" unicode="&#xff07;" horiz-adv-x="900" 
d="M511 719q-10 -59 -11 -105.5t2 -90.5l-113 -1q3 32 5 56.5t2 47t-1.5 44.5t-5.5 49h122v0z" />
    <glyph glyph-name="uniFF08" unicode="&#xff08;" horiz-adv-x="900" 
d="M504 282q0 68 17.5 131.5t47 118t66.5 97t76 69.5l85 -75q-29 -27 -53.5 -63.5t-43 -80t-29 -93.5t-10.5 -104q0 -111 38.5 -195t95.5 -139l-85 -75q-39 26 -76 67.5t-65.5 94.5t-46 115.5t-17.5 131.5z" />
    <glyph glyph-name="uniFF09" unicode="&#xff09;" horiz-adv-x="900" 
d="M396 282q0 -69 -17.5 -131.5t-46 -115.5t-65.5 -94.5t-76 -67.5l-85 75q57 55 95.5 139t38.5 195q0 54 -10.5 104t-29 93.5t-43.5 80t-53 63.5l85 75q39 -27 76 -69.5t66.5 -97t47 -118t17.5 -131.5z" />
    <glyph glyph-name="uniFF0A" unicode="&#xff0a;" horiz-adv-x="900" 
d="M279 207q25 16 46 37t31 35q-16 11 -47.5 24t-63.5 24l56 112q10 -6 23 -13t26 -13t24 -11t17 -8q0 9 -0.5 24.5t-1 31.5t-1 30.5t-0.5 21.5l133 -2q-2 -11 -4 -27t-3.5 -31t-2.5 -28t-1 -18q8 3 20.5 7.5t26.5 10.5t27.5 12.5t23.5 12.5l46 -119q-14 -3 -30 -8
t-31.5 -10.5t-28.5 -11t-20 -9.5q12 -14 36.5 -36.5t47.5 -39.5l-98 -94q-17 28 -41.5 54.5t-40.5 42.5q-9 -8 -20 -19.5t-22.5 -24.5t-23 -26.5t-20.5 -25.5z" />
    <glyph glyph-name="uniFF0B" unicode="&#xff0b;" horiz-adv-x="900" 
d="M528 504q-5 -45 -8.5 -81.5t-5.5 -71.5q57 4 106.5 11t77.5 21q-26 -29 -38.5 -62t-22.5 -74q-30 2 -62.5 1.5t-66.5 -2.5q-2 -36 -2.5 -78t-2.5 -94l-163 -1q7 39 12 76.5t8 75.5q-43 -9 -83 -21.5t-75 -28.5q6 50 11.5 92.5t11.5 93.5q-1 -2 9.5 -4.5t29 -4t44.5 -3
t56 -1.5q0 35 -2.5 73.5t-7.5 82.5h174z" />
    <glyph glyph-name="uniFF0C" unicode="&#xff0c;" horiz-adv-x="900" 
d="M167 5q0 36 21.5 61.5t65.5 25.5t66.5 -25.5t22.5 -61.5q0 -27 -9 -55t-25.5 -53.5t-39 -46.5t-50.5 -35l-62 53q34 9 54 26t28 34q-27 9 -49.5 29t-22.5 48z" />
    <glyph glyph-name="uniFF0D" unicode="&#xff0d;" horiz-adv-x="900" 
d="M218 365q40 -15 101 -20t127.5 -5t129 4t105.5 8q-8 -32 -14.5 -69t-19.5 -71q-47 6 -100 9t-108.5 3t-110.5 -3t-104 -9q-1 31 -1 74t-5 79z" />
    <glyph glyph-name="uniFF0E" unicode="&#xff0e;" horiz-adv-x="900" 
d="M162 5q0 36 22 61.5t66 25.5q43 0 65.5 -25.5t22.5 -61.5q0 -37 -22.5 -63t-65.5 -26q-44 0 -66 26t-22 63z" />
    <glyph glyph-name="uniFF0F" unicode="&#xff0f;" horiz-adv-x="900" 
d="M665 609q-47 -88 -87 -178.5t-75.5 -180.5t-66.5 -178t-59 -169l-142 50q39 85 72 168t64.5 169.5t63 179.5t67.5 197z" />
    <glyph glyph-name="uniFF10" unicode="&#xff10;" horiz-adv-x="900" 
d="M191 291q0 99 20.5 167.5t55.5 110.5t81.5 61t99.5 19t100.5 -19t83 -61t56.5 -110.5t21 -167.5q0 -100 -21 -168.5t-56.5 -111t-83 -61t-100.5 -18.5t-99.5 18.5t-81.5 61t-55.5 111t-20.5 168.5zM344 291q0 -61 7.5 -102t21 -66t33 -36t42.5 -11q24 0 43.5 11t33.5 36
t21.5 66t7.5 102q0 60 -7.5 101t-21.5 66.5t-33.5 36.5t-43.5 11q-23 0 -42.5 -11t-33 -36.5t-21 -66.5t-7.5 -101z" />
    <glyph glyph-name="uniFF11" unicode="&#xff11;" horiz-adv-x="900" 
d="M620 633q-13 -73 -21 -165t-11 -185.5t0 -181t13 -151.5l-180 -3q7 55 12 120t7 133.5t1.5 138.5t-3.5 136l-138 -42q5 32 -1 58t-20 58l180 86z" />
    <glyph glyph-name="uniFF12" unicode="&#xff12;" horiz-adv-x="900" 
d="M250 -62q-2 32 -9.5 72.5t-16.5 85.5q38 22 80.5 62.5t81.5 88.5t70 98.5t46 92.5q13 35 -12 50t-72 8q-51 -8 -108 -22t-120 -46l-26 175q33 3 65 10t63.5 14t64 13t66.5 8q66 2 121.5 -11.5t91 -43t45 -74.5t-17.5 -105q-17 -41 -45.5 -89.5t-61.5 -96t-68 -88
t-65 -65.5q42 0 87.5 0.5t87.5 2t78 5t59 8.5q-15 -35 -29.5 -70t-28.5 -70q-40 -3 -96 -4t-115.5 -2t-116.5 -2.5t-99 -4.5z" />
    <glyph glyph-name="uniFF13" unicode="&#xff13;" horiz-adv-x="900" 
d="M214 105q47 -32 104.5 -44t120.5 -7q57 5 88.5 25.5t31.5 71.5q0 45 -22 66t-70 23q-30 1 -64 -2t-65.5 -9t-58.5 -15.5t-42 -19.5q-14 39 -27.5 72.5t-29.5 74.5q28 -6 59.5 -5.5t66 4t70.5 8.5t73 8q16 17 32.5 39.5t26.5 43.5q15 32 1 50.5t-55 20.5q-26 2 -57.5 -0.5
t-62.5 -9.5t-58.5 -17.5t-44.5 -23.5l-39 166q41 -4 75 0.5t66 10.5t65.5 11t74.5 2q33 -2 70 -9t68 -23t51 -43t20 -70q0 -39 -17 -85.5t-49 -79.5q48 -21 75.5 -67.5t27.5 -125.5q-1 -99 -56.5 -148.5t-151.5 -58.5q-32 -3 -73 -5t-84 -2t-84 2t-72 8z" />
    <glyph glyph-name="uniFF14" unicode="&#xff14;" horiz-adv-x="900" 
d="M674 639q-18 -128 -22.5 -248.5t-3.5 -236.5q29 5 53.5 11t40.5 14q-10 -29 -18.5 -64.5t-29.5 -80.5q-9 -2 -20 -2.5t-24 -1.5v-45t1 -45h-170q2 22 3 43t3 42q-59 -1 -110.5 0t-77.5 3q-41 4 -66.5 12.5t-40 23.5t-21 36.5t-9.5 51.5q-3 45 -3 102.5t3 120.5t9.5 128
t15.5 125q30 -2 54.5 -2t48.5 1.5t48.5 4.5t53.5 6q-18 -54 -30 -112.5t-20 -116.5t-12 -113.5t-6 -102.5q-2 -32 10.5 -45.5t46.5 -14.5q14 -1 44 0t68 4q2 58 3 116t0.5 119t-2 127t-3.5 140h183z" />
    <glyph glyph-name="uniFF15" unicode="&#xff15;" horiz-adv-x="900" 
d="M200 154q22 -24 52.5 -43.5t65 -33t69.5 -21t67 -6.5q29 1 48.5 8t31 18.5t16.5 27t6 32.5q2 36 -20.5 59t-82.5 28q-15 1 -34.5 3t-40.5 4t-42.5 5.5t-39.5 7.5q-22 4 -40.5 13.5t-30.5 24.5t-17 36t0 50q5 32 14.5 69.5t17.5 66.5q-12 -1 -22.5 -2t-20.5 -2
q0 14 -0.5 34t-1.5 41.5t-2.5 43t-3.5 37.5q24 -9 64.5 -14t89.5 -7t102 -1.5t102.5 2t91 4t67.5 4.5q-3 -14 -6.5 -32.5t-7.5 -38t-8.5 -39t-10.5 -34.5q-48 6 -121.5 9t-150.5 2q-5 -13 -11 -28t-11 -30.5t-9.5 -30t-6.5 -24.5q-6 -29 11 -39.5t58 -14.5q18 -2 38 -3
t40.5 -2t40 -2.5t36.5 -5.5q69 -16 99 -60t30 -129q0 -50 -15 -86.5t-41.5 -62t-63.5 -39.5t-80 -18q-32 -3 -76 -2t-90 5.5t-90 12t-76 17.5z" />
    <glyph glyph-name="uniFF16" unicode="&#xff16;" horiz-adv-x="900" 
d="M663 417q-17 26 -42.5 45.5t-53.5 33t-57 20t-53 6.5q-34 0 -59 -16.5t-42.5 -46t-27 -70t-12.5 -88.5q38 40 80 58.5t93 18.5q50 0 90.5 -16t69.5 -45t45 -69.5t16 -90.5q0 -47 -19 -88.5t-53.5 -73t-84 -50t-109.5 -18.5q-59 0 -110 20.5t-89 64t-60 110.5t-22 161
q0 27 4.5 65.5t16.5 79.5t32.5 81.5t53 72t78 51.5t107.5 20q37 0 73 -9.5t71 -24t69 -32.5l68 -36zM456 251q-35 0 -70 -17t-56 -49q3 -27 11 -51t22.5 -41t36.5 -27t53 -10q51 0 81.5 27.5t30.5 74.5q0 41 -26 67t-83 26z" />
    <glyph glyph-name="uniFF17" unicode="&#xff17;" horiz-adv-x="900" 
d="M316 14q54 43 91.5 96t62 106.5t37.5 102.5t19 84q4 26 2.5 43.5t-11 27t-28.5 12.5t-50 0q-56 -5 -114.5 -18.5t-103.5 -30.5q-3 59 -8.5 107.5t-13.5 90.5q76 -20 161.5 -17.5t168.5 17.5q30 6 61 6t55.5 -10.5t40 -34t15.5 -64.5q0 -105 -20.5 -201t-52 -176
t-70 -140.5t-74.5 -94.5z" />
    <glyph glyph-name="uniFF18" unicode="&#xff18;" horiz-adv-x="900" 
d="M450 653q48 0 95.5 -10.5t84.5 -33t60 -58t23 -85.5q0 -48 -23.5 -91t-80.5 -77q42 -12 68 -32.5t41 -44.5t20.5 -48.5t5.5 -44.5q0 -46 -21 -82.5t-59 -62t-92.5 -39.5t-121.5 -14q-60 0 -113.5 12t-94 36t-64 60.5t-23.5 84.5q0 20 4 42.5t17.5 46t39 46.5t68.5 44
q-52 26 -75 68.5t-23 99.5q0 48 23.5 83t61 57t84.5 32.5t95 10.5zM321 144q0 -29 10.5 -48.5t28 -31.5t41 -17t49.5 -5q25 0 48 5t41 17t28.5 31.5t10.5 47.5q0 43 -30.5 71.5t-98.5 28.5t-98 -29t-30 -70zM450 540q-46 0 -75 -20t-29 -63q0 -33 23.5 -59.5t75.5 -26.5
q26 0 46.5 7.5t34 19.5t20.5 27t7 30q0 42 -27.5 63.5t-75.5 21.5z" />
    <glyph glyph-name="uniFF19" unicode="&#xff19;" horiz-adv-x="900" 
d="M239 169q17 -26 42 -46.5t53 -35t56.5 -22t52.5 -7.5q69 0 103.5 52t39.5 149q-39 -38 -81.5 -57.5t-93.5 -19.5q-50 0 -90.5 17.5t-69.5 48t-45 73t-16 92.5q0 51 19 95t53.5 76t84 50.5t109.5 18.5q59 0 110 -20.5t89 -64t60 -110.5t22 -161q0 -27 -4.5 -65.5
t-16.5 -79.5t-32.5 -81.5t-53 -72t-78 -51.5t-107.5 -20q-38 0 -74 10t-71.5 25t-69.5 33t-67 35zM444 305q36 0 70.5 20.5t57.5 59.5q-2 29 -10 54.5t-23 44t-38 29t-54 10.5q-51 0 -81 -32t-30 -79q0 -20 6.5 -39t19.5 -34t33.5 -24.5t48.5 -9.5z" />
    <glyph glyph-name="uniFF1A" unicode="&#xff1a;" horiz-adv-x="900" 
d="M362 455q0 36 22 61.5t66 25.5q43 0 65.5 -25.5t22.5 -61.5q0 -37 -22.5 -63t-65.5 -26q-44 0 -66 26t-22 63zM362 105q0 36 22 61.5t66 25.5q43 0 65.5 -25.5t22.5 -61.5q0 -37 -22.5 -63t-65.5 -26q-44 0 -66 26t-22 63z" />
    <glyph glyph-name="uniFF1B" unicode="&#xff1b;" horiz-adv-x="900" 
d="M367 455q0 36 22 61.5t66 25.5q43 0 65.5 -25.5t22.5 -61.5q0 -37 -22.5 -63t-65.5 -26q-44 0 -66 26t-22 63zM367 105q0 36 21.5 61.5t65.5 25.5t66.5 -25.5t22.5 -61.5q0 -27 -9 -55t-25.5 -53.5t-39 -46.5t-50.5 -35l-62 53q34 9 54 26t28 34q-27 9 -49.5 29t-22.5 48
z" />
    <glyph glyph-name="uniFF1C" unicode="&#xff1c;" horiz-adv-x="900" 
d="M609 -127q-28 50 -59 103t-64.5 106t-69 105t-72.5 99q37 47 72.5 99t68.5 105t64 106t59 103l146 -87q-65 -73 -124 -157t-111 -169q24 -38 52 -79.5t58 -84.5t61.5 -84.5t64.5 -77.5z" />
    <glyph glyph-name="uniFF1D" unicode="&#xff1d;" horiz-adv-x="900" 
d="M225 338q-1 26 -2 59.5t-4 63.5q48 -14 106.5 -19t120.5 -4.5t122.5 4.5t111.5 8q-5 -25 -11.5 -54t-16.5 -58q-103 13 -212 12t-215 -12zM225 143q-1 26 -2 59.5t-4 63.5q48 -14 106.5 -19t120.5 -4.5t122.5 4.5t111.5 8q-5 -25 -12 -54t-17 -58q-103 13 -211.5 12
t-214.5 -12z" />
    <glyph glyph-name="uniFF1E" unicode="&#xff1e;" horiz-adv-x="900" 
d="M144 -40q33 36 64.5 77.5t61.5 84.5t58 84.5t52 79.5q-52 85 -111 169t-124 157l146 87q28 -50 59 -103t64 -106t68.5 -105t72.5 -99q-37 -47 -72.5 -99t-69 -105t-64.5 -106t-59 -103z" />
    <glyph glyph-name="uniFF1F" unicode="&#xff1f;" horiz-adv-x="900" 
d="M343 0q0 34 26.5 58t75.5 24t76 -24t27 -58q0 -35 -27 -59t-76 -24t-75.5 24t-26.5 59zM388 130q-2 34 -4.5 63t-8.5 59q43 36 80.5 79t59.5 91q22 46 -1.5 66t-73.5 13q-56 -8 -109 -34.5t-104 -53.5q-6 49 -12 95t-12 94q30 0 59.5 7t59.5 15.5t61 15.5t64 9
q56 2 102 -6.5t78.5 -27t50.5 -47.5t18 -69q0 -39 -13 -76.5t-34.5 -71.5t-51 -63t-62.5 -51q-3 -23 -7.5 -51.5t-8.5 -51.5z" />
    <glyph glyph-name="uniFF20" unicode="&#xff20;" horiz-adv-x="900" 
d="M320 341q12 0 27 4.5t33.5 9.5t41 8t49.5 2q23 0 43.5 -5.5t35.5 -18t23.5 -32.5t8.5 -48q-2 -34 -1 -70t3 -69q12 -1 23.5 2.5t21 14t15 29t5.5 47.5q0 94 -49.5 144t-151.5 50q-89 0 -143.5 -47t-57.5 -149q-3 -95 50 -145t168 -50q35 0 65 2t55 8t45.5 17.5t38.5 31.5
l29 -93q-53 -18 -115.5 -30.5t-116.5 -12.5q-64 0 -119 15.5t-96 48.5t-64.5 84.5t-23.5 123.5q0 58 19.5 108.5t57 87.5t90.5 58.5t121 21.5q60 0 112 -17.5t90.5 -51t60 -83t21.5 -112.5q0 -42 -13.5 -72t-35.5 -49.5t-50 -28t-58 -7.5h-71.5h-44.5t-25.5 0.5t-14.5 0.5
q-51 1 -84 18t-34 62q0 25 8.5 43.5t24 30.5t36.5 18t45 6q27 1 45.5 0t34.5 -3v15q-1 20 -18 29t-43 8q-28 -2 -53.5 -11t-45.5 -32zM426 129q20 -2 34.5 -1.5t32.5 2.5q1 9 1 26t2 27q-17 2 -32.5 3.5t-32.5 -0.5q-14 -2 -22.5 -10.5t-8.5 -19.5t6.5 -18.5t19.5 -8.5z" />
    <glyph glyph-name="uniFF21" unicode="&#xff21;" horiz-adv-x="900" 
d="M96 -27q38 69 71 147t64 162t62 173t65 181l203 4q30 -93 58.5 -179.5t58 -168.5t60.5 -161.5t66 -157.5l-184 -43q-12 45 -24 88t-23 85q-62 8 -122 6.5t-121 -11.5q-12 -40 -24 -81t-26 -86zM454 465q-25 -57 -43.5 -109.5t-35.5 -105.5q37 -7 79.5 -11.5t80.5 -6.5
q-38 128 -81 233z" />
    <glyph glyph-name="uniFF22" unicode="&#xff22;" horiz-adv-x="900" 
d="M172 -60q10 79 16 157.5t6.5 162t-3.5 175t-14 197.5h128q32 4 73.5 7t106.5 -1q36 -2 73 -9t66.5 -23.5t48 -44t18.5 -70.5q0 -39 -18 -84t-55 -77q25 -8 45 -21t34 -34.5t22 -52.5t8 -74q0 -54 -16 -90.5t-44.5 -59.5t-67.5 -33.5t-87 -13.5q-62 -3 -102.5 -5
t-67.5 -2.5t-44.5 -0.5h-33.5zM341 207q-1 -41 0.5 -80t3.5 -76q31 -2 66 1.5t73 11.5q48 9 64.5 32t14.5 57q-2 37 -26 58t-67 19q-37 -2 -70 -7t-59 -16zM360 507q-11 -87 -15 -177q28 2 56.5 6.5t69.5 6.5q21 19 36.5 47t15.5 55q0 29 -15 49.5t-57 23.5q-49 3 -91 -11z
" />
    <glyph glyph-name="uniFF23" unicode="&#xff23;" horiz-adv-x="900" 
d="M670 -63q-80 -9 -158 -7.5t-138 20.5q-88 28 -142.5 113.5t-54.5 231.5q0 63 12 119t33.5 101t51 76t65.5 44q42 15 87 11.5t92.5 -11.5t98.5 -14.5t105 1.5q-8 -21 -15.5 -39t-14.5 -35.5l-14 -35t-15 -38.5q-33 10 -60.5 20t-52.5 17t-49.5 8t-51.5 -7
q-18 -5 -35.5 -23t-31.5 -47t-23 -68.5t-9 -88.5q0 -48 10 -82t26 -57.5t37 -38t44 -22.5q21 -8 46 -10t51.5 0.5t52 10t47.5 18.5z" />
    <glyph glyph-name="uniFF24" unicode="&#xff24;" horiz-adv-x="900" 
d="M523 -45q-51 -15 -109 -14t-121 2l-119 -3q10 79 16 157.5t6.5 162t-3.5 175t-14 197.5h142q56 5 108 4.5t97 -10t81.5 -31t63 -60t40.5 -96t14 -138.5q0 -75 -14.5 -133t-41.5 -100.5t-64 -70.5t-82 -42zM553 291q0 72 -14 119t-39 73.5t-60 34.5t-77 1
q-14 -111 -18.5 -226.5t1.5 -219.5q29 -2 57.5 0.5t50.5 10.5q47 16 73 72.5t26 134.5z" />
    <glyph glyph-name="uniFF25" unicode="&#xff25;" horiz-adv-x="900" 
d="M446 59q16 1 49 4.5t70.5 10.5t74 16.5t59.5 21.5q-1 -9 -7 -28.5t-13.5 -43t-15.5 -47.5t-14 -40q-31 -5 -71.5 -7.5t-83 -3.5t-83.5 0.5t-73 5.5q-39 4 -64 16t-40 31.5t-21.5 47.5t-9.5 65q-5 67 -5 127.5t4 122t11 128.5t16 147q50 -5 110 -6.5t122.5 1t124.5 8
t116 13.5q-7 -38 -10 -78t-5 -83q-27 5 -63.5 7.5t-77 3t-80 -0.5t-72.5 -3q-8 -39 -12.5 -73t-8.5 -66q39 -3 82 -4t85.5 0t82.5 5t74 12q-1 -15 -2.5 -34t-3 -39t-4 -40t-4.5 -37q-33 4 -71.5 7t-79.5 4.5t-83 1.5t-82 -2q0 -22 0.5 -44.5t1.5 -47.5q1 -50 16.5 -65.5
t60.5 -13.5z" />
    <glyph glyph-name="uniFF26" unicode="&#xff26;" horiz-adv-x="900" 
d="M201 -60q26 173 24 345t-16 350q115 -12 240 -6.5t250 23.5q-7 -38 -10 -78t-5 -83q-66 11 -140 11.5t-144 -4.5q-8 -38 -12 -76t-6 -77q38 -2 79.5 -3t82 0.5t79 5t70.5 11.5q-1 -15 -2.5 -34t-3 -39t-4 -40t-4.5 -37q-32 4 -68 7t-75 4.5t-78.5 1.5t-77.5 -1
q1 -67 5.5 -136.5t9.5 -144.5h-194z" />
    <glyph glyph-name="uniFF27" unicode="&#xff27;" horiz-adv-x="900" 
d="M751 214q-3 -31 -11 -70t-18 -78t-21 -74t-20 -57q-55 -4 -101 -4.5t-84 -0.5q-93 0 -159 24t-108 70.5t-61.5 114.5t-19.5 156q0 62 12 117.5t33.5 100t50.5 75.5t63 44q44 17 92 14t97 -11t99 -15t98 2q-14 -35 -28 -73.5t-29 -76.5q-23 6 -49.5 16t-55 18.5
t-56.5 11.5t-53 -4q-20 -6 -38.5 -26.5t-33 -51.5t-23 -70t-8.5 -82q0 -123 45.5 -179t140.5 -56q31 0 66 9q8 23 14 47t10 50q5 35 -7 51.5t-44 10.5q-21 -4 -47 -16t-44 -24q10 37 10 73.5t-11 74.5q46 0 96.5 7t97.5 3q34 -3 55.5 -14t33 -27.5t15 -37t1.5 -42.5z" />
    <glyph glyph-name="uniFF28" unicode="&#xff28;" horiz-adv-x="900" 
d="M756 639q-29 -171 -37 -346.5t3 -352.5l-181 -4q8 72 12 144.5t6 146.5q-58 5 -117 6t-119 -2q-2 -72 -1.5 -144.5t3.5 -144.5l-182 -1q23 171 29.5 343t-9.5 355h184q-7 -70 -12 -141t-8 -143q56 -4 116 -4.5t117 4.5q0 72 -1.5 142.5t-3.5 141.5h201z" />
    <glyph glyph-name="uniFF29" unicode="&#xff29;" horiz-adv-x="900" 
d="M275 -57q-1 35 -2.5 75t-4.5 71q22 -8 45.5 -12.5t48.5 -6.5q10 110 11.5 215.5t-5.5 227.5q-23 -1 -46.5 -3t-46.5 -4q-1 35 -2.5 75t-4.5 71q41 -13 86 -17.5t91.5 -4t93.5 4.5t92 8q-10 -53 -16.5 -85.5t-12.5 -52.5q-17 2 -35 3.5t-36 3.5q-8 -108 -9.5 -217
t1.5 -225q28 2 55 5t53 5q-7 -34 -12.5 -68t-16.5 -70q-75 10 -157 10.5t-170 -9.5z" />
    <glyph glyph-name="uniFF2A" unicode="&#xff2a;" horiz-adv-x="900" 
d="M270 185q9 -24 19 -46t22 -39.5t26.5 -28.5t31.5 -12q18 -1 30 2t21 14.5t15.5 33t12.5 57.5q6 39 8.5 82.5t2 88.5t-3.5 90.5t-8 88.5q-55 -1 -109 -4.5t-106 -8.5q-1 35 -2.5 75t-4.5 72q51 -11 118.5 -15t139.5 -4t141.5 3t125.5 7q-7 -33 -11.5 -68t-15.5 -71
q-49 6 -101 9q-4 -97 -6.5 -194t-14.5 -199q-5 -44 -18 -78.5t-36.5 -59t-59 -37t-85.5 -12.5q-81 1 -142.5 32t-109.5 100z" />
    <glyph glyph-name="uniFF2B" unicode="&#xff2b;" horiz-adv-x="900" 
d="M365 639q-5 -58 -9.5 -116.5t-7.5 -118.5q67 52 136.5 109.5t133.5 129.5l118 -147q-85 -50 -158.5 -103.5t-143.5 -108.5q70 -55 144.5 -108t159.5 -103l-118 -147q-66 74 -138.5 132t-141.5 111q-2 -113 3 -227l-182 -1q23 171 29.5 343t-9.5 355h184z" />
    <glyph glyph-name="uniFF2C" unicode="&#xff2c;" horiz-adv-x="900" 
d="M435 59q16 0 49.5 3t72.5 8.5t78 13t66 17.5q-10 -35 -20.5 -73t-27.5 -76q-77 -8 -160.5 -10.5t-161.5 6.5q-65 8 -95.5 39t-33.5 88q-8 134 -1.5 273.5t26.5 279.5q46 -3 94.5 0t111.5 10q-17 -60 -28.5 -128.5t-19.5 -137t-12.5 -132.5t-6.5 -115q-1 -21 1.5 -34
t10.5 -20.5t21.5 -10t35.5 -1.5z" />
    <glyph glyph-name="uniFF2D" unicode="&#xff2d;" horiz-adv-x="900" 
d="M827 639q-15 -104 -20.5 -194t-5.5 -173.5t3.5 -165t7.5 -168.5l-189 -2q6 66 9.5 123t5 110t2 106t-0.5 111q-35 -53 -66.5 -107t-58.5 -106l-138 -3q-26 51 -56 103.5t-62 105.5q-1 -58 -2 -112.5t-1.5 -108l-1 -107t-0.5 -109.5l-180 -1q8 61 15 113.5t11.5 103.5
t7 102t2.5 108t-4 123.5t-11 147.5h171q18 -37 39 -78.5t44 -83.5t47.5 -82.5t48.5 -75.5q24 35 50 75.5t51.5 82.5t48 83.5t40.5 78.5h193z" />
    <glyph glyph-name="uniFF2E" unicode="&#xff2e;" horiz-adv-x="900" 
d="M753 639q-29 -171 -37 -346.5t3 -352.5l-181 -4q-49 116 -100.5 226t-106.5 215q-5 -108 -6.5 -216.5t3.5 -218.5l-182 -1q23 171 29.5 343t-9.5 355h184q10 -29 32 -80t50 -112.5t60 -127t63 -123.5q4 111 2 221.5t-5 221.5h201z" />
    <glyph glyph-name="uniFF2F" unicode="&#xff2f;" horiz-adv-x="900" 
d="M174 290q0 95 21.5 163t59 112t87.5 64.5t106 20.5q57 0 107.5 -20.5t88.5 -64.5t60 -112t22 -163q0 -96 -22 -164t-60 -111.5t-88.5 -64t-107.5 -20.5q-56 0 -106 20.5t-87.5 64t-59 111.5t-21.5 164zM334 290q0 -62 9 -103.5t24.5 -66.5t36.5 -35t44 -10q24 0 44.5 10
t36.5 35t25 66.5t9 103.5q0 61 -9 102.5t-25 66.5t-36.5 35.5t-44.5 10.5q-23 0 -44 -10.5t-36.5 -35.5t-24.5 -66.5t-9 -102.5z" />
    <glyph glyph-name="uniFF30" unicode="&#xff30;" horiz-adv-x="900" 
d="M367 639q32 1 70 1.5t89 -1.5q43 -2 81 -14.5t66.5 -39.5t44.5 -68.5t16 -101.5q0 -53 -17 -90.5t-46 -63t-68.5 -40t-85.5 -21.5q-43 -7 -86.5 -10t-86.5 -3q-1 -122 3 -245l-182 -1q23 171 29.5 343t-9.5 355h182zM481 515q-35 2 -66 -1t-57 -9q-4 -50 -6.5 -100
t-4.5 -101q33 -3 70.5 -2t76.5 9q42 8 62 33t18 76q-4 91 -93 95z" />
    <glyph glyph-name="uniFF31" unicode="&#xff31;" horiz-adv-x="900" 
d="M523 -110q-4 11 -7.5 22t-8.5 24q-29 -6 -59 -6q-56 0 -106 20.5t-87.5 64t-59 111.5t-21.5 164q0 95 21.5 163t59 112t87.5 64.5t106 20.5q57 0 107.5 -20.5t88.5 -64.5t60 -112t22 -163q0 -128 -38.5 -206.5t-100.5 -116.5q5 -11 10 -21l10 -20zM334 290q0 -62 9 -103
t24 -66t35.5 -35.5t43.5 -10.5q-13 28 -25.5 53l-21.5 43l90 36q6 -21 15 -45t20 -50q18 24 28.5 67t10.5 111q0 61 -9 102.5t-25 66.5t-36.5 35.5t-44.5 10.5q-23 0 -44 -10.5t-36.5 -35.5t-24.5 -66.5t-9 -102.5z" />
    <glyph glyph-name="uniFF32" unicode="&#xff32;" horiz-adv-x="900" 
d="M362 639q32 1 69.5 1.5t87.5 -1.5q43 -2 81 -14.5t66.5 -39.5t44.5 -68.5t16 -101.5q-1 -61 -22.5 -101.5t-59.5 -66.5q19 -67 43 -138t53 -143l-168 -42q-8 72 -23 142.5t-32 134.5q-2 0 -4 -0.5t-4 -0.5q-43 -7 -86.5 -10t-86.5 -3q-1 -122 3 -245l-182 -1
q23 171 29.5 343t-9.5 355h184zM474 515q-35 2 -66 -1t-57 -9q-4 -50 -6.5 -100t-4.5 -101q33 -3 70.5 -2t76.5 9q42 8 62 33t18 76q-4 91 -93 95z" />
    <glyph glyph-name="uniFF33" unicode="&#xff33;" horiz-adv-x="900" 
d="M690 445q-26 23 -54.5 39t-55.5 25.5t-50.5 14t-41.5 4.5q-39 0 -58.5 -19.5t-19.5 -50.5q0 -26 11 -45.5t29 -34.5t40.5 -26.5t45.5 -20.5q28 -14 64.5 -30t68.5 -38t54 -52.5t22 -73.5q0 -96 -64 -154t-197 -58q-43 0 -89 9t-89.5 26t-83 40t-68.5 52l96 146
q16 -33 44 -61.5t61 -49.5t66.5 -33t59.5 -12q55 0 75.5 17t20.5 45q0 23 -8 41t-24.5 33t-42 29t-59.5 30t-70.5 35.5t-66.5 45t-49.5 58t-19.5 76.5q0 40 14.5 76.5t44.5 64t76 43.5t110 16q52 0 119.5 -15.5t136.5 -44.5z" />
    <glyph glyph-name="uniFF34" unicode="&#xff34;" horiz-adv-x="900" 
d="M164 503q-1 35 -2.5 75t-4.5 72q34 -7 80.5 -11t99 -6t108.5 -2t109.5 1.5t102 3.5t85.5 5q-7 -33 -11.5 -68t-15.5 -71q-39 5 -83.5 7.5t-92.5 4.5q-12 -81 -18 -151.5t-7.5 -138t0.5 -136.5t7 -148l-194 -4q10 85 15 153t6.5 133.5t0 134.5t-3.5 157q-49 -2 -95 -4.5
t-86 -6.5z" />
    <glyph glyph-name="uniFF35" unicode="&#xff35;" horiz-adv-x="900" 
d="M729 639q-11 -69 -17.5 -127.5t-9.5 -111.5t-4 -102t-1 -97q0 -51 -7.5 -100t-34.5 -87t-80 -61t-143 -23q-80 0 -131.5 17t-81 46t-39 68t-6.5 84q4 63 7 122t3 118.5t-3 122t-11 131.5h189q-8 -78 -13 -140t-8 -115t-4 -100.5t-1 -96.5q0 -30 3.5 -54t14 -40.5
t30 -25.5t53.5 -9t54.5 9t31.5 25.5t14.5 39.5t5.5 51q5 110 1 225t-8 231h196z" />
    <glyph glyph-name="uniFF36" unicode="&#xff36;" horiz-adv-x="900" 
d="M280 646q23 -75 42 -141.5t38.5 -131t41.5 -128.5t52 -133q46 112 85 245t81 290l184 -43q-35 -78 -66 -157.5t-60.5 -161.5t-58 -168.5t-58.5 -179.5l-203 4q-34 91 -65 180.5t-62 173.5t-64 162t-71 147z" />
    <glyph glyph-name="uniFF37" unicode="&#xff37;" horiz-adv-x="900" 
d="M876 602q-27 -69 -50.5 -150.5t-44.5 -168.5t-41 -175.5t-41 -172.5l-154 -4q-9 46 -21.5 98.5t-25 105.5t-25.5 105.5t-23 98.5q-11 -46 -23.5 -98.5t-25.5 -105.5t-25 -105.5t-21 -98.5l-154 4q-21 84 -41 172.5t-41 175.5t-44.5 168.5t-50.5 150.5l155 43
q18 -75 31.5 -136t25.5 -119t23.5 -116.5t24.5 -127.5q13 66 27 125.5t27 119t25.5 120t22.5 128.5h128q13 -81 27 -149t27 -128t25.5 -113t22.5 -103q13 69 24.5 127.5t23.5 116.5t25.5 119t31.5 136l155 -43v0z" />
    <glyph glyph-name="uniFF38" unicode="&#xff38;" horiz-adv-x="900" 
d="M303 642q35 -57 70.5 -113t73.5 -111q37 54 73.5 110.5t72.5 117.5l147 -88q-54 -66 -105.5 -132t-100.5 -133q51 -70 103.5 -138t106.5 -136l-127 -85q-43 63 -84.5 122.5t-83.5 117.5q-44 -63 -83.5 -124.5t-74.5 -121.5l-132 90q49 69 99.5 137t101.5 140
q-52 70 -102.5 136t-101.5 129z" />
    <glyph glyph-name="uniFF39" unicode="&#xff39;" horiz-adv-x="900" 
d="M346 -64q10 78 14.5 144.5t6.5 131.5q-56 85 -111.5 172.5t-123.5 176.5l148 88q42 -73 80.5 -144t81.5 -143q43 62 85.5 129.5t93.5 156.5l147 -88q-60 -75 -118.5 -154t-117.5 -160h1q-2 -75 0 -150t7 -156l-194 -4v0z" />
    <glyph glyph-name="uniFF3A" unicode="&#xff3a;" horiz-adv-x="900" 
d="M199 -62q-1 30 -2.5 67t-5.5 70q94 107 166.5 218t128.5 219q-104 0 -172.5 -2.5t-115.5 -7.5q-1 35 -2 75t-4 72q51 -14 117 -19t136.5 -4.5t139 4.5t123.5 8q-8 -32 -11.5 -66t-15.5 -78q-83 -109 -157.5 -217t-132.5 -213q61 0 109 1t85.5 2.5t66 3t51.5 3.5
q-7 -33 -12.5 -67t-16.5 -70q-29 4 -66.5 6.5t-80 3.5t-87.5 1t-88 -1t-82.5 -3.5t-70.5 -5.5z" />
    <glyph glyph-name="uniFF3B" unicode="&#xff3b;" horiz-adv-x="900" 
d="M796 -113q-72 13 -157.5 12t-163.5 -8q18 97 25 197t6.5 201.5t-7 203.5t-15.5 204q80 -18 167.5 -19t173.5 7q-7 -33 -12.5 -67t-16.5 -69q-24 5 -60 7t-74 3q-5 -62 -8.5 -123.5t-5.5 -127t-3 -138t-1 -154.5q46 -1 94.5 0.5t86.5 6.5q-7 -33 -12.5 -67t-16.5 -69z" />
    <glyph glyph-name="uniFFE6" unicode="&#xffe6;" horiz-adv-x="900" 
d="M398 667q36 -104 67.5 -197t63 -179.5t64.5 -169.5t72 -168l-142 -50q-29 81 -59.5 169t-66 178t-75.5 180.5t-87 178.5z" />
    <glyph glyph-name="uniFF3D" unicode="&#xff3d;" horiz-adv-x="900" 
d="M79 23q38 -5 81.5 -6.5t89.5 -0.5q8 137 6 272t-14 271q-38 -1 -74 -3t-60 -7q-11 35 -16.5 69t-12.5 67q86 -8 173.5 -7t167.5 19q-19 -204 -24 -407.5t16 -398.5q-78 7 -162 8t-156 -12q-6 32 -9.5 66.5t-5.5 69.5z" />
    <glyph glyph-name="uniFF3E" unicode="&#xff3e;" horiz-adv-x="900" 
d="M518 446q-14 37 -30 74.5t-38 75.5q-24 -44 -40 -81t-33 -75l-116 53q42 48 75 108.5t54 126.5l129 -2q18 -66 51 -123.5t68 -109.5z" />
    <glyph glyph-name="uniFF3F" unicode="&#xff3f;" horiz-adv-x="900" 
d="M225 -69q-1 35 -2.5 75t-4.5 72q49 -14 108 -19t121 -4.5t122.5 4.5t111.5 8q-7 -33 -12.5 -67t-16.5 -70q-102 13 -211.5 12.5t-215.5 -11.5z" />
    <glyph glyph-name="uniFF40" unicode="&#xff40;" horiz-adv-x="900" 
d="M446 506q-21 57 -41 96.5t-47 81.5l103 51q17 -52 38 -98.5t42 -82.5q-27 -14 -48 -24t-47 -24z" />
    <glyph glyph-name="uniFF41" unicode="&#xff41;" horiz-adv-x="900" 
d="M222 378q38 4 67.5 12t59.5 15.5t64 12.5t82 4q44 -2 81.5 -13t64.5 -33.5t41.5 -55.5t13.5 -78q-2 -73 1 -149.5t13 -152.5h-91.5h-98.5t-81.5 0.5t-40.5 0.5q-45 1 -83 7.5t-66 21t-43.5 38.5t-15.5 61q-1 42 14.5 70.5t42.5 46.5t64 26t79 9q40 2 82 -0.5t82 -8.5v25
q-1 42 -36.5 62t-87.5 16q-50 -3 -96.5 -18.5t-83.5 -53.5zM412 35q32 -4 64.5 -2.5t66.5 6.5q2 17 4 39t4 37q-34 6 -66 8.5t-67 -0.5q-28 -2 -47 -10t-19 -33q0 -23 14.5 -33t45.5 -12z" />
    <glyph glyph-name="uniFF42" unicode="&#xff42;" horiz-adv-x="900" 
d="M370 627q-10 -54 -17 -112.5t-12 -118.5q19 1 38 3.5t41 5t47.5 4t58.5 0.5q43 -2 80 -16t64.5 -42.5t43 -72t15.5 -103.5q0 -53 -16 -93.5t-44 -69t-67 -44t-85 -17.5q-58 -3 -96 -5t-64 -2.5t-43.5 -0.5h-32.5l-112 -3q10 79 16 156.5t6.5 160t-3.5 173.5t-14 197h196z
M334 258q-3 -105 3 -200q29 -3 64.5 -0.5t77.5 9.5q50 8 76 33.5t24 79.5q-2 57 -31.5 82t-82.5 23q-79 -3 -131 -27z" />
    <glyph glyph-name="uniFF43" unicode="&#xff43;" horiz-adv-x="900" 
d="M673 -49q-65 -5 -122.5 -10t-123.5 -3q-46 1 -85 17t-68 45t-45.5 71t-16.5 95q0 61 15.5 106t43.5 74.5t65.5 44t81.5 15.5q39 1 74 -3t67.5 -7.5t64 -4.5t64.5 5q-14 -41 -27 -81t-28 -82q-31 15 -75 23.5t-92 10.5q-31 1 -50.5 -5.5t-31 -19.5t-16.5 -31.5t-5 -40.5
q-1 -39 18 -67.5t69 -38.5q53 -9 104.5 -2t102.5 37z" />
    <glyph glyph-name="uniFF44" unicode="&#xff44;" horiz-adv-x="900" 
d="M731 627q-14 -81 -23 -172t-12 -181.5t0 -176.5t14 -157l-112 3h-28.5t-38.5 1h-1q-26 2 -62 3.5t-87 3.5q-47 2 -85.5 17.5t-66.5 44t-44 69t-16 93.5q0 60 15.5 103.5t43 72t64.5 42.5t80 16q31 1 56 -0.5t46 -3.5t39.5 -4.5t36.5 -3.5q-2 53 -6 110t-9 120h196z
M543 57q5 51 7 101.5t3 104.5q-52 19 -120 22q-53 2 -82.5 -23t-31.5 -82q-2 -54 24 -79.5t76 -33.5q35 -6 66 -9t58 -1z" />
    <glyph glyph-name="uniFF45" unicode="&#xff45;" horiz-adv-x="900" 
d="M663 -47q-47 -11 -102.5 -16.5t-109.5 -2.5q-132 5 -190 63.5t-59 168.5q0 71 21.5 120t56.5 79t80.5 43.5t92.5 13.5q56 0 102 -17t79 -54t50 -94.5t14 -139.5l-337 -1q6 -38 40 -55t78.5 -19t91 8.5t76.5 28.5zM458 303q-28 0 -46 -8t-29.5 -21t-16.5 -30t-7 -35
q27 -2 50 -2t46.5 0.5t48 2t53.5 2.5q-2 19 -7 35.5t-16.5 29t-30 19.5t-45.5 7z" />
    <glyph glyph-name="uniFF46" unicode="&#xff46;" horiz-adv-x="900" 
d="M575 425q-8 42 -23 66.5t-36 26.5q-11 1 -21 -3t-18 -17t-13.5 -37t-6.5 -61q-1 -11 -1.5 -20.5t-0.5 -20.5q69 1 132.5 4.5t105.5 7.5q-8 -32 -13.5 -64t-16.5 -66q-44 5 -98 8t-111 4q1 -77 6.5 -156t14.5 -153l-183 -4q8 73 12 151t5 159q-57 -3 -103 -9q-1 31 -2 69
t-6 74q20 -8 48.5 -13t61.5 -8q0 27 -0.5 53.5t-1.5 52.5q-1 38 10.5 69t36 53t62 33.5t89.5 11.5q37 0 65.5 -8t51 -26t41.5 -48t39 -75z" />
    <glyph glyph-name="uniFF47" unicode="&#xff47;" horiz-adv-x="900" 
d="M564 6q-31 1 -70 2.5t-96 4.5q-48 2 -87.5 12.5t-68 33t-44.5 58.5t-16 90q0 61 15.5 99.5t43.5 61t65.5 31.5t81.5 12q49 3 89 -3t81 -9q-1 7 -1 13t-1 13h162q-8 -97 -10 -195t0 -198q2 -53 -8.5 -94t-38.5 -68.5t-76 -41.5t-120 -14q-27 0 -59 3t-63 8t-57.5 11
t-42.5 13l3 129q16 -9 40.5 -18.5t52 -17.5t57 -13t55.5 -5q64 0 88.5 18t24.5 55v9zM564 111q0 50 -0.5 90.5t-0.5 70.5q-28 8 -60.5 12.5t-66.5 6.5q-44 2 -72.5 -16t-30.5 -63q-2 -39 18.5 -59t68.5 -29q34 -7 70.5 -11t73.5 -2z" />
    <glyph glyph-name="uniFF48" unicode="&#xff48;" horiz-adv-x="900" 
d="M377 627q-11 -62 -18.5 -128t-12.5 -135q35 23 78 37.5t96 14.5q95 0 146.5 -54t48.5 -164v-130.5t9 -132.5q-48 1 -89.5 2t-87.5 2q8 26 11 54.5t4 57.5t0 58t-2 56q-2 49 -25 74t-81 24q-34 -1 -62 -12.5t-52 -32.5q-2 -75 2.5 -144.5t13.5 -129.5l-180 -4
q10 79 16 156.5t6.5 160t-3.5 173.5t-14 197h196v0z" />
    <glyph glyph-name="uniFF49" unicode="&#xff49;" horiz-adv-x="900" 
d="M542 404q-12 -71 -17.5 -129.5t-6.5 -112.5t1.5 -107.5t7.5 -114.5l-174 -4q7 74 11.5 128.5t5.5 105t-1.5 105t-9.5 129.5h183zM347 560q0 34 26.5 58t75.5 24t76 -24t27 -58q0 -35 -27 -59t-76 -24t-75.5 24t-26.5 59z" />
    <glyph glyph-name="uniFF4A" unicode="&#xff4a;" horiz-adv-x="900" 
d="M451 560q0 34 26.5 58t75.5 24t76 -24t27 -58q0 -35 -27 -59t-76 -24t-75.5 24t-26.5 59zM380 29q8 -43 17 -68.5t34 -25.5q10 0 19 4.5t16 17.5t11.5 36.5t6.5 61.5q5 83 0.5 168t-19.5 174l181 2q-13 -94 -18.5 -190t3.5 -196q10 -105 -38.5 -152.5t-153.5 -46.5
q-33 0 -60 7.5t-50 25.5t-44 48.5t-41 75.5z" />
    <glyph glyph-name="uniFF4B" unicode="&#xff4b;" horiz-adv-x="900" 
d="M379 627q-14 -80 -23 -167.5t-12 -175.5l2 -1q69 35 141 85.5t130 115.5l98 -151q-64 -29 -125 -62t-119 -68q57 -32 118 -63t133 -66l-108 -144q-77 67 -144.5 109t-126.5 76q3 -93 15 -171l-180 -4q10 79 16 156.5t6.5 160t-3.5 173.5t-14 197h196v0z" />
    <glyph glyph-name="uniFF4C" unicode="&#xff4c;" horiz-adv-x="900" 
d="M550 627q-14 -81 -23 -171.5t-12 -180.5t0 -175t14 -156l-180 -4q10 79 16 156.5t6.5 160t-3.5 173.5t-14 197h196v0z" />
    <glyph glyph-name="uniFF4D" unicode="&#xff4d;" horiz-adv-x="900" 
d="M246 417q-2 -11 -3.5 -20.5t-2.5 -19.5q22 17 50 27.5t65 10.5q43 0 79 -21t58 -63q24 35 62 59.5t96 24.5q34 0 64 -13.5t52 -40.5t33.5 -67.5t10.5 -95.5v-129t9 -133q-45 1 -83.5 2t-82.5 2q16 52 15 109t-1 116q0 29 -7.5 48t-18.5 30t-25.5 15.5t-29.5 4.5
q-39 0 -69 -32q1 -8 1 -16.5v-16.5v-129t9 -133q-45 1 -83.5 2t-81.5 2q15 52 14 109t-1 116q0 29 -8 48t-20.5 30t-30 15.5t-37.5 4.5q-24 0 -48 -21q-2 -72 3 -145.5t12 -151.5q-42 -1 -82.5 -2.5t-82.5 -2.5q14 118 13 236.5t-9 240.5h161z" />
    <glyph glyph-name="uniFF4E" unicode="&#xff4e;" horiz-adv-x="900" 
d="M353 417q-2 -14 -3.5 -26.5t-3.5 -26.5q35 23 78 37.5t96 14.5q95 0 146.5 -54t48.5 -164v-130.5t9 -132.5q-48 1 -89.5 2t-87.5 2q8 26 11 54.5t4 57.5t0 58t-2 56q-2 49 -25 74t-81 24q-35 -1 -63 -13t-52 -33q0 -66 4 -134t10 -138q-48 -1 -89 -2.5t-88 -2.5
q14 115 13 236t-9 241h173z" />
    <glyph glyph-name="uniFF4F" unicode="&#xff4f;" horiz-adv-x="900" 
d="M209 175q0 62 18 108.5t50 77t76 45.5t96 15t96 -15t76.5 -45.5t50.5 -77t18 -108.5q0 -63 -18 -109t-50.5 -76t-76.5 -45t-96 -15t-96 15t-76 45t-50 76t-18 109zM356 175q0 -56 23 -89.5t70 -33.5q48 0 70.5 33.5t22.5 89.5t-22.5 89t-70.5 33q-47 0 -70 -33t-23 -89z
" />
    <glyph glyph-name="uniFF50" unicode="&#xff50;" horiz-adv-x="900" 
d="M370 427q-2 -8 -3 -14.5t-2 -14.5q32 4 69 8.5t92 2.5q43 -2 80 -14.5t64.5 -39t43 -68.5t15.5 -102q0 -53 -16 -92t-44 -65.5t-67 -40.5t-85 -16q-71 -4 -113.5 -5.5t-69.5 -2.5q3 -76 15 -149l-180 1q10 79 16 145t6.5 134.5t-3.5 147.5t-14 185h196zM346 263
q-5 -47 -8 -93t-5 -91q30 -4 66 -1.5t80 9.5q49 7 75 28t25 75q-1 28 -9 46.5t-22.5 29.5t-35.5 15.5t-47 3.5q-71 -3 -119 -22z" />
    <glyph glyph-name="uniFF51" unicode="&#xff51;" horiz-adv-x="900" 
d="M729 427q-28 -164 -35.5 -317t14.5 -296l-180 1q5 41 9.5 77.5t7.5 71.5l-65 2.5t-97 4.5q-47 2 -85.5 16t-66.5 40.5t-44 65.5t-16 92q0 60 15.5 102t43 68.5t64.5 39t80 14.5q55 2 92 -2.5t69 -8.5q-1 8 -1 14.5t-1 14.5h196zM550 77q1 43 0 89t-5 100q-23 8 -51 12.5
t-59 6.5q-53 1 -83 -19t-31 -76q-1 -27 5.5 -45t19 -29.5t31.5 -18t44 -10.5q38 -6 70 -9t59 -1z" />
    <glyph glyph-name="uniFF52" unicode="&#xff52;" horiz-adv-x="900" 
d="M377 417q-2 -14 -4 -28.5t-4 -29.5q29 25 64 41.5t77 16.5q22 0 48 -6.5t51.5 -21.5t49 -40.5t41.5 -63.5l-120 -100q-14 46 -36 63t-60 17q-37 0 -66.5 -13t-54.5 -37q0 -66 4.5 -133.5t9.5 -136.5q-48 -1 -89 -2.5t-88 -2.5q14 115 13 236t-9 241h173z" />
    <glyph glyph-name="uniFF53" unicode="&#xff53;" horiz-adv-x="900" 
d="M654 263q-25 15 -52 27t-53 20t-49.5 12.5t-39.5 4.5q-31 0 -43 -9.5t-12 -28.5q0 -31 29 -47t73 -30t78 -27t57.5 -31t35.5 -42.5t12 -60.5q0 -22 -12.5 -43.5t-40.5 -39t-72.5 -28t-108.5 -10.5q-30 0 -62.5 2t-65 7t-64 14t-59.5 23l18 149q23 -23 50.5 -40.5t56 -30
t56 -19t50.5 -6.5q13 0 26 0.5t23.5 4.5t17 11t6.5 21q0 23 -20.5 35.5t-72.5 31.5q-33 12 -66.5 26t-61 32.5t-45 42t-17.5 53.5q0 63 53.5 99t175.5 36q50 0 111 -10.5t128 -30.5z" />
    <glyph glyph-name="uniFF54" unicode="&#xff54;" horiz-adv-x="900" 
d="M711 98q-20 -45 -39 -75t-41.5 -48t-51 -26t-65.5 -8q-52 0 -89.5 11.5t-62 33.5t-36 53t-10.5 69q1 75 3 153q-34 -2 -65 -4.5t-58 -5.5q-1 31 -2 69t-6 74q23 -9 56.5 -14.5t73.5 -7.5q-2 69 -5.5 135.5t-10.5 129.5l183 -4q-8 -63 -13 -130t-7 -134q64 2 122 5t96 7
q-8 -32 -13.5 -64t-16.5 -66q-40 5 -88.5 8t-100.5 4q0 -46 3 -86q1 -38 6.5 -61.5t13.5 -36.5t18 -17t21 -3q21 2 36 26.5t23 66.5z" />
    <glyph glyph-name="uniFF55" unicode="&#xff55;" horiz-adv-x="900" 
d="M547 -65q2 14 3.5 26.5t3.5 26.5q-35 -23 -78 -37.5t-96 -14.5q-95 0 -146.5 54t-48.5 164v130.5t-9 132.5q48 -1 89.5 -2t87.5 -2q-8 -26 -11 -54.5t-4 -57.5t0 -58t2 -56q2 -49 25 -74t81 -24q34 1 62 12.5t53 33.5q0 66 -4.5 134t-9.5 138q48 1 89 2.5t88 2.5
q-14 -115 -13 -236t9 -241h-173z" />
    <glyph glyph-name="uniFF56" unicode="&#xff56;" horiz-adv-x="900" 
d="M334 429q11 -44 24 -84t29 -80t34 -82.5t39 -91.5q18 50 32.5 93.5t27.5 84t23.5 79.5t19.5 81q46 -8 88 -14t87 -14q-54 -104 -97 -219.5t-91 -242.5q-42 1 -92.5 1.5t-92.5 1.5q-24 56 -46 113t-45.5 114.5t-51 115.5t-61.5 116z" />
    <glyph glyph-name="uniFF57" unicode="&#xff57;" horiz-adv-x="900" 
d="M823 400q-22 -44 -40 -99t-35 -115.5t-34.5 -123t-36.5 -120.5l-138 -3q-9 33 -21 72.5l-24 79t-23.5 76.5t-21.5 67q-9 -30 -21 -67t-24 -76.5t-23.5 -79t-20.5 -72.5l-138 3q-20 58 -36.5 120.5t-33.5 123t-35 116t-40 99.5l153 30q6 -34 15 -73.5t18.5 -80.5t20 -81
t19.5 -74q9 29 20.5 67t23.5 79t22.5 83.5t18.5 80.5h123q7 -34 17.5 -74.5t22.5 -82t23.5 -81t21.5 -72.5q9 32 19 70.5t20 79t19 81.5t16 77z" />
    <glyph glyph-name="uniFF58" unicode="&#xff58;" horiz-adv-x="900" 
d="M327 446q30 -42 60 -82t62 -79q32 39 62.5 79t60.5 82l133 -89q-47 -45 -88.5 -88t-80.5 -86q40 -45 82 -86.5t87 -79.5l-132 -91q-31 41 -61.5 79t-62.5 76q-32 -38 -62 -76t-61 -79l-132 91q45 38 86.5 79.5t81.5 86.5q-38 43 -79.5 86t-88.5 88z" />
    <glyph glyph-name="uniFF59" unicode="&#xff59;" horiz-adv-x="900" 
d="M747 360q-51 -68 -93 -132.5t-81 -129.5t-77.5 -133.5t-82.5 -144.5l-142 71q60 79 118 169q-56 72 -117.5 150t-118.5 149l145 86q42 -70 83 -137t81 -127q36 64 69.5 129.5t65.5 133.5z" />
    <glyph glyph-name="uniFF5A" unicode="&#xff5a;" horiz-adv-x="900" 
d="M508 321q-55 0 -99 -0.5t-80 -2t-65 -3t-53 -4.5q-1 27 -2 63.5t-4 67.5q43 -11 105 -15.5t130 -5t135 2.5t121 7q-7 -33 -9 -67t-5 -68l-269 -166q87 1 160.5 6t122.5 10q-8 -29 -10.5 -61.5t-8.5 -65.5q-111 11 -229.5 12t-236.5 -11q-1 26 -2.5 53.5t-4.5 56.5z" />
    <glyph glyph-name="uniFF5B" unicode="&#xff5b;" horiz-adv-x="900" 
d="M572 -129q-33 -2 -52.5 3t-30 17.5t-12 34t1.5 51.5q7 58 8 119t2 123q-22 -2 -47.5 -3.5t-46.5 -4.5q-1 35 -2 75t-4 72q11 -3 21.5 -5.5t21.5 -4.5q30 -6 44 18t12 72q-2 39 -3 81.5t-6 83.5q-3 27 0.5 49.5t15.5 37.5t32.5 21t50.5 0q53 -10 114 -7t119 11
q-7 -33 -12.5 -67t-16.5 -69q-17 4 -40 5.5t-42 4.5q-24 3 -38.5 -0.5t-22 -13.5t-8.5 -26t1 -37q6 -54 3 -117t-27 -118q10 -21 15.5 -46.5t7 -52.5t0.5 -53.5t-3 -49.5q-5 -56 10.5 -73.5t59.5 -12.5q26 3 55 3.5t55 2.5q-7 -33 -12.5 -67t-16.5 -69q-48 8 -102 11.5
t-105 0.5z" />
    <glyph glyph-name="uniFF5C" unicode="&#xff5c;" horiz-adv-x="900" 
d="M540 708q-5 -56 -9.5 -124.5t-8 -142.5t-5 -151.5t-1 -152.5t3 -144.5t7.5 -127.5l-182 -4q12 85 18 193.5t7 223.5t-2.5 227t-11.5 203h184z" />
    <glyph glyph-name="uniFF5D" unicode="&#xff5d;" horiz-adv-x="900" 
d="M328 -129q-51 3 -105 -0.5t-102 -11.5q-11 35 -16.5 69t-12.5 67q26 -2 55 -2.5t55 -3.5q44 -5 59.5 12.5t10.5 73.5q-2 23 -3 49.5t0.5 53.5t6.5 52.5t16 46.5q-24 55 -27 118t3 117q2 21 1 37t-8.5 26t-22 13.5t-38.5 0.5q-19 -3 -42 -4.5t-40 -5.5q-11 35 -16.5 69
t-12.5 67q58 -8 119 -11t114 7q30 6 50.5 0t32.5 -21t15.5 -37.5t0.5 -49.5q-5 -41 -6 -83.5t-3 -81.5q-2 -48 12 -72t44 -18q11 2 21.5 4.5t21.5 5.5q-3 -32 -4 -72t-2 -75q-21 3 -46.5 4.5t-47.5 3.5q1 -62 2 -123t8 -119q3 -30 1.5 -51.5t-12 -34t-30 -17.5t-52.5 -3z
" />
    <glyph glyph-name="uniFFE3" unicode="&#xffe3;" horiz-adv-x="940" 
d="M12 690v99h916v-99h-916z" />
    <glyph glyph-name="uni3131" unicode="&#x3131;" horiz-adv-x="900" 
d="M394 65q32 54 59.5 117t45.5 124q5 17 5.5 33t-7.5 26.5t-26 14.5t-50 -2q-16 -3 -41.5 -8.5t-54.5 -13t-57.5 -16t-49.5 -17.5q18 51 18 99.5t-15 101.5q40 0 81.5 3l83 6t82.5 5t82 -1q48 -3 77 -19.5t43.5 -43t15.5 -62t-7 -75.5q-7 -31 -17 -69.5t-21 -77
t-22.5 -71.5t-20.5 -54h-204z" />
    <glyph glyph-name="uni3132" unicode="&#x3132;" horiz-adv-x="900" 
d="M201 65q19 58 35 119t21 121q3 37 -9 51.5t-43 2.5q-21 -8 -47 -16.5t-47 -16.5q1 27 -1 49t-6.5 42.5t-10.5 41.5t-14 47q57 0 119.5 6.5t127.5 8.5q66 2 97.5 -29.5t19.5 -99.5q-15 -88 -37 -171t-45 -156h-160zM581 65q9 29 19 61t18.5 64.5t15 65t9.5 62.5
q3 37 -8.5 53.5t-53.5 3.5q-21 -7 -45.5 -14t-45.5 -15q8 48 -0.5 93t-28.5 87q57 0 116.5 3t124.5 5q66 2 97.5 -29.5t19.5 -99.5q-15 -88 -35 -177.5t-43 -162.5h-160z" />
    <glyph glyph-name="uni3133" unicode="&#x3133;" horiz-adv-x="900" 
d="M194 65q19 58 35 119t21 121q3 37 -9 51.5t-43 2.5q-21 -8 -47 -16.5t-47 -16.5q1 27 -1 49t-6.5 42.5t-10.5 41.5t-14 47q57 0 119.5 6.5t127.5 8.5q66 2 97.5 -29.5t19.5 -99.5q-18 -101 -44 -198q69 61 119 141.5t88 194.5l123 -36q-8 -54 -31.5 -118t-58.5 -127
q43 -13 90 -20.5t105 -7.5q-11 -42 -22.5 -80t-22.5 -79q-60 15 -111.5 39.5t-93.5 56.5q-21 -29 -42.5 -55t-44.5 -47q-30 26 -55.5 50t-53.5 50q-7 -24 -13.5 -46.5t-13.5 -44.5h-160z" />
    <glyph glyph-name="uni3134" unicode="&#x3134;" horiz-adv-x="900" 
d="M428 537q-14 -59 -22 -133.5t-9 -151.5q-1 -50 15.5 -65.5t61.5 -13.5q16 1 40.5 4.5t52 10.5t55.5 16.5t51 21.5q-1 -9 -7 -28.5t-13.5 -43t-15.5 -47.5t-14 -40q-63 -9 -127.5 -11t-129.5 6q-39 4 -63 16t-39 31.5t-22 47.5t-11 65q-4 38 -6.5 80.5t-4 83.5t-1.5 77.5
t1 63.5q53 -5 102.5 -1.5t105.5 11.5z" />
    <glyph glyph-name="uni3135" unicode="&#x3135;" horiz-adv-x="900" 
d="M379 407q-1 32 -2.5 71t-4.5 71q46 -14 98 -19t105.5 -4.5t107 4.5t102.5 8q-7 -32 -13 -65.5t-16 -66.5q-48 6 -98 9q6 -43 16.5 -87t28.5 -82t44 -65.5t63 -36.5q-41 -23 -72 -42t-71 -41q-22 20 -46.5 52t-50.5 89q-15 -39 -38 -77t-60 -64q-27 15 -52 30t-50 29
q2 -11 4.5 -22.5t6.5 -23.5q-50 -7 -105.5 -10t-108.5 5q-33 4 -53 14t-30.5 26t-14 36.5t-1.5 45.5q5 78 13 158.5t22 158.5q46 -5 93 0t98 17q-20 -70 -30 -142t-18 -146q-6 -64 53 -58q16 2 37 6.5t35 11.5q-2 -9 -3 -18t-2 -17q31 19 52 48.5t34 63.5t19.5 70.5
t10.5 70.5q-26 -1 -51.5 -3t-51.5 -5z" />
    <glyph glyph-name="uni3136" unicode="&#x3136;" horiz-adv-x="900" 
d="M306 179q16 2 37 6.5t35 11.5q-7 -31 -3.5 -61t13.5 -62q-50 -7 -105.5 -10t-108.5 5q-33 4 -53 14t-30.5 26t-14 36.5t-1.5 45.5q5 78 13 158.5t22 158.5q46 -5 93 0t98 17q-20 -70 -30 -142t-18 -146q-6 -64 53 -58zM423 208q0 28 9 55.5t29.5 49t54.5 35t84 13.5
q51 0 85 -13.5t55 -35t30 -49t9 -55.5q0 -27 -9 -54t-30 -48.5t-55 -35t-85 -13.5q-50 0 -84 13.5t-54.5 35t-29.5 48.5t-9 54zM396 386q-1 29 -2.5 64.5t-4.5 67.5q29 -9 60.5 -14t65.5 -7q-2 12 -3.5 24t-3.5 23h193q-2 -11 -4 -23l-4 -24q35 2 67.5 4.5t63.5 5.5
q-8 -29 -13 -59.5t-16 -62.5q-94 12 -196 12t-203 -11zM546 207q0 -19 13 -31.5t41 -12.5q29 0 42 12.5t13 31.5q0 20 -13 33t-42 13q-28 0 -41 -13t-13 -33z" />
    <glyph glyph-name="uni3137" unicode="&#x3137;" horiz-adv-x="900" 
d="M471 179q16 1 41 4.5t52.5 10t55 16t50.5 21.5q-3 -14 -7.5 -32.5t-11 -40t-14.5 -43.5t-16 -42q-64 -8 -132.5 -10t-137.5 5q-40 4 -63 15t-36 30t-18 47.5t-8 67.5q-5 69 -3.5 143t8.5 149q105 -11 217.5 -6t226.5 22q-7 -38 -10 -78t-5 -83q-55 10 -124.5 11
t-136.5 -4q-6 -28 -7 -70t5 -78q3 -16 7 -27t12 -17.5t21 -9t34 -1.5z" />
    <glyph glyph-name="uni3138" unicode="&#x3138;" horiz-adv-x="900" 
d="M639 175q15 -2 31 1.5t29 14.5q-5 -31 -10.5 -63t-13.5 -63q-11 -3 -27.5 -3.5t-34 -0.5t-32.5 1t-23 2q-21 3 -38 8.5t-30.5 16t-22.5 28.5t-14 45q-6 -43 -9 -87q-7 -1 -19 -2.5t-26.5 -2t-30 -0.5t-28.5 2q-38 6 -63 15t-40 25t-23 40.5t-11 62.5q-7 74 -6 156t15 163
q59 -8 127.5 -4.5t131.5 22.5l-2 -10l-2 -10q53 -6 112 -2.5t118 21.5q-5 -23 -9 -67t-2 -92q-17 5 -40 5.5t-43 -4.5q-2 -14 -3 -31t-2 -35t-1.5 -35t0.5 -32q2 -47 11 -65t31 -20zM347 264q1 -24 4 -40t9.5 -25t17 -13t28.5 -4q11 0 22.5 3.5t20.5 8.5q-5 51 -5.5 97.5
t2.5 100.5q-9 1 -21 2t-24.5 1t-25 -0.5t-22.5 -1.5q-5 -23 -6.5 -58.5t0.5 -70.5z" />
    <glyph glyph-name="uni3139" unicode="&#x3139;" horiz-adv-x="900" 
d="M585 537q44 -3 68 -25.5t27 -82.5q1 -23 0.5 -50t-3.5 -53t-7.5 -47.5t-11.5 -33.5q-20 0 -53.5 -2.5t-70 -7t-72 -11.5t-59.5 -16v-18q0 -14 15.5 -18.5t44.5 -4.5q24 0 55.5 2t64 7.5t61.5 15t49 24.5q-10 -42 -14.5 -78t-15.5 -70q-39 -7 -80 -10t-80 -3t-74 2.5
t-62 5.5q-33 4 -57.5 13.5t-41 26t-26 42t-12.5 61.5q-1 16 -1 29.5t0.5 26t1.5 26.5t3 31q21 0 57 2t75 7.5t76 13.5t61 19v29q0 25 -55 19q-28 -3 -61.5 -6t-65.5 -7.5t-58 -10.5t-39 -14q2 43 -2.5 79.5t-17.5 62.5q46 1 94 6.5t96 10.5t96 7.5t95 -0.5z" />
    <glyph glyph-name="uni313A" unicode="&#x313a;" horiz-adv-x="900" 
d="M448 416q-1 -12 -4 -33t-7.5 -44.5t-9.5 -44.5t-11 -33q-36 -2 -78.5 -8.5t-75.5 -13.5q-2 -26 4.5 -45t29.5 -21q18 -1 42.5 0.5t50.5 6t51.5 12t47.5 18.5q-8 -30 -16 -66t-19 -67q-29 -6 -57.5 -10.5t-58.5 -6.5t-62 0t-68 11q-30 7 -48.5 29.5t-28 52.5t-11.5 62.5
t2 59.5q2 14 2.5 24.5t1.5 18.5q40 3 88.5 14t92.5 30q3 10 3.5 22.5t-3 24t-13 18t-26.5 4.5q-26 -4 -61.5 -14.5t-65.5 -23.5q3 23 -1 55.5t-15 55.5q60 16 118.5 25.5t112.5 5.5q33 -2 52.5 -14.5t29 -30t11.5 -37.5t0 -37zM538 67q14 24 27.5 55.5t25.5 65t21.5 67
t15.5 60.5q11 51 0.5 76t-47.5 19q-26 -5 -53 -18t-49 -28q8 40 4 78.5t-12 80.5q19 -1 43 2t50 6t53 5.5t53 0.5q43 -3 67 -22t34 -47.5t9 -63.5t-7 -70q-5 -32 -12 -69.5t-16 -74t-18 -69t-18 -54.5h-171z" />
    <glyph glyph-name="uni313B" unicode="&#x313b;" horiz-adv-x="900" 
d="M785 413q0 -81 -6 -164.5t-11 -167.5q-75 9 -157.5 6t-162.5 -22q10 55 18.5 110.5t13 112.5t4 116t-8.5 122q44 -10 93 -12t94 10q37 10 60.5 6t37.5 -19t19.5 -40t5.5 -58zM588 386q3 -20 3.5 -44t-1 -49.5t-4.5 -50t-7 -45.5q27 14 52 15t42 -2q0 7 1 25t2 38
t1.5 37.5t0.5 23.5q0 17 -2 26.5t-7 14t-12.5 5.5t-18.5 1q-9 0 -19.5 0.5t-30.5 4.5zM445 416q-1 -12 -4 -33t-7 -44.5t-9 -44.5t-11 -33q-36 -2 -79 -8.5t-76 -13.5q-6 -64 37 -67q18 -1 33.5 -1t30.5 3t31.5 9.5t38.5 17.5q-6 -41 -12.5 -75t-14.5 -58
q-54 -8 -102.5 -8.5t-93.5 10.5q-30 7 -49 28t-29.5 50t-12.5 62.5t2 64.5q2 14 2.5 24.5t1.5 18.5q40 3 87.5 14t91.5 30q3 10 4.5 22.5t-1.5 24t-12 18t-28 4.5q-26 -3 -61.5 -14t-65.5 -24q3 23 -1 55.5t-15 55.5q60 16 120 25.5t114 5.5q33 -2 52 -14.5t28 -30
t10.5 -37.5t-0.5 -37z" />
    <glyph glyph-name="uni313C" unicode="&#x313c;" horiz-adv-x="900" 
d="M670 526q29 -2 60.5 0.5t62.5 7.5q-19 -103 -28.5 -216.5t1.5 -220.5q-29 -11 -53.5 -18t-47 -11.5t-43.5 -6t-44 -1.5q-42 1 -66.5 12.5t-37 31t-15.5 46t-1 57.5q1 20 3 57.5t5.5 80.5t7.5 86.5t10 76.5q15 0 27 0.5t24.5 2.5t28 6t37.5 10q-8 -22 -13 -54.5t-9 -67.5
q19 -9 37 -11t38 2q2 33 6 65.5t10 64.5zM437 416q-1 -12 -4 -33t-7 -44.5t-9 -44.5t-11 -33q-36 -2 -79 -8.5t-76 -13.5q-6 -64 37 -67q18 -1 33.5 -1t30.5 3t31.5 9.5t38.5 17.5q-6 -41 -12.5 -75t-14.5 -58q-54 -8 -102.5 -8.5t-93.5 10.5q-30 7 -49 28t-29.5 50
t-12.5 62.5t2 64.5q2 14 2.5 24.5t1.5 18.5q40 3 87.5 14t91.5 30q3 10 4.5 22.5t-1.5 24t-12 18t-28 4.5q-26 -3 -61.5 -14t-65.5 -24q3 23 -1 55.5t-15 55.5q60 16 120 25.5t114 5.5q33 -2 52 -14.5t28 -30t10.5 -37.5t-0.5 -37zM656 195q-2 21 -3.5 43.5t-1.5 45.5
q-41 3 -82 -10q0 -48 5 -68t30 -20q23 0 52 9z" />
    <glyph glyph-name="uni313D" unicode="&#x313d;" horiz-adv-x="900" 
d="M722 494q-8 -54 -31.5 -118t-58.5 -127q43 -13 90 -20.5t105 -7.5q-11 -42 -22.5 -80t-22.5 -79q-60 15 -111.5 39.5t-93.5 56.5q-21 -29 -42.5 -55t-44.5 -47q-30 26 -56 50.5t-54 50.5q-9 -53 -20 -89q-54 -8 -102.5 -8.5t-93.5 10.5q-30 7 -49 28t-29.5 50t-12.5 62.5
t2 64.5q2 14 2.5 24.5t1.5 18.5q40 3 87.5 14t91.5 30q3 10 4.5 22.5t-1.5 24t-12 18t-28 4.5q-26 -3 -61.5 -14t-65.5 -24q3 23 -1 55.5t-15 55.5q60 16 120 25.5t114 5.5q33 -2 52 -14.5t28 -30t10.5 -37.5t-0.5 -37q-1 -12 -4 -33t-7 -44.5t-9 -44.5t-11 -33
q-36 -2 -79 -8.5t-76 -13.5q-6 -64 37 -67q18 -1 33.5 -1t30.5 3t31.5 9.5t38.5 17.5q-1 -4 -1.5 -7t-0.5 -6q71 62 123 144t91 198z" />
    <glyph glyph-name="uni313E" unicode="&#x313e;" horiz-adv-x="900" 
d="M482 507q66 -9 139.5 -2t151.5 21q-3 -29 -3.5 -56t-2.5 -60l-167 -17q-2 -10 -3.5 -23.5t-3.5 -29.5q42 -5 88 -1.5t84 12.5q-1 -29 -1 -51t-1 -50q-35 5 -84 2.5t-93 -10.5v-10q-2 -32 8 -41.5t30 -10.5q16 -1 37.5 0.5t45 6t48 13.5t47.5 24q-3 -23 -6 -39t-5.5 -31
t-6 -31.5t-8.5 -39.5q-54 -16 -120.5 -20.5t-127.5 12.5q-31 9 -46 28t-20 44.5t-4 55t3 57.5q1 21 3 49.5t4.5 60.5t6 67t7.5 70zM424 416q-1 -12 -4 -33t-7 -44.5t-9 -44.5t-11 -33q-36 -2 -79 -8.5t-76 -13.5q-6 -64 37 -67q18 -1 33.5 -1t30.5 3t31.5 9.5t38.5 17.5
q-6 -41 -12.5 -75t-14.5 -58q-54 -8 -102.5 -8.5t-93.5 10.5q-30 7 -49 28t-29.5 50t-12.5 62.5t2 64.5q2 14 2.5 24.5t1.5 18.5q40 3 87.5 14t91.5 30q3 10 4.5 22.5t-1.5 24t-12 18t-28 4.5q-26 -3 -61.5 -14t-65.5 -24q3 23 -1 55.5t-15 55.5q60 16 120 25.5t114 5.5
q33 -2 52 -14.5t28 -30t10.5 -37.5t-0.5 -37z" />
    <glyph glyph-name="uni313F" unicode="&#x313f;" horiz-adv-x="900" 
d="M436 60q4 37 4.5 75t-3.5 78q13 -3 25.5 -6t26.5 -5q0 47 1 94t0 95l-22 -4l-22 -4q4 37 4.5 74.5t-3.5 77.5q88 -15 181.5 -11t179.5 21q-5 -35 -9.5 -67.5t-12.5 -69.5q-8 1 -16.5 1.5t-17.5 1.5q-2 -19 -3 -44.5t-2.5 -53.5t-3 -57t-2.5 -56q19 2 37 4.5t35 5.5
q-5 -35 -9.5 -67.5t-12.5 -69.5q-85 12 -175.5 6.5t-179.5 -19.5zM414 416q-1 -12 -4 -33t-7 -44.5t-9 -44.5t-11 -33q-36 -2 -79 -8.5t-76 -13.5q-6 -64 37 -67q18 -1 33.5 -1t30.5 3t31.5 9.5t38.5 17.5q-6 -41 -12.5 -75t-14.5 -58q-54 -8 -102.5 -8.5t-93.5 10.5
q-30 7 -49 28t-29.5 50t-12.5 62.5t2 64.5q2 14 2.5 24.5t1.5 18.5q40 3 87.5 14t91.5 30q3 10 4.5 22.5t-1.5 24t-12 18t-28 4.5q-26 -3 -61.5 -14t-65.5 -24q3 23 -1 55.5t-15 55.5q60 16 120 25.5t114 5.5q33 -2 52 -14.5t28 -30t10.5 -37.5t-0.5 -37zM643 411l-22 -2
l-22 -2q-2 -20 -3 -46.5t-2 -55t-2 -57.5t-2 -55q12 0 24.5 -0.5t25.5 0.5q0 54 2 108t1 110z" />
    <glyph glyph-name="uni3140" unicode="&#x3140;" horiz-adv-x="900" 
d="M401 416q-1 -12 -4 -33t-7 -44.5t-9 -44.5t-11 -33q-36 -2 -79 -8.5t-76 -13.5q-6 -64 37 -67q37 -2 73.5 3t80.5 28q-6 -41 -12.5 -75t-14.5 -58q-27 -4 -56 -6.5t-57 -3t-54.5 2t-48.5 7.5q-30 7 -49 28t-29.5 50t-12.5 62.5t2 64.5q2 14 2.5 24.5t1.5 18.5
q40 3 87.5 14t91.5 30q3 10 4.5 22.5t-1.5 24t-12 18t-28 4.5q-26 -3 -61.5 -14t-65.5 -24q3 23 -1 55.5t-15 55.5q60 16 120 25.5t114 5.5q33 -2 52 -14.5t28 -30t10.5 -37.5t-0.5 -37zM447 208q0 28 9 55.5t29.5 49t54.5 35t84 13.5q51 0 85 -13.5t55 -35t30 -49t9 -55.5
q0 -27 -9 -54t-30 -48.5t-55 -35t-85 -13.5q-50 0 -84 13.5t-54.5 35t-29.5 48.5t-9 54zM440 386q-1 29 -2.5 64.5t-4.5 67.5q26 -8 52.5 -13t53.5 -7q-2 11 -3.5 23t-3.5 23h193q-2 -11 -4 -23t-4 -23q28 2 55.5 4.5t55.5 4.5q-8 -29 -13 -59.5t-16 -62.5q-47 6 -90 9
t-86 3t-88 -2.5t-95 -8.5zM570 207q0 -19 13 -31.5t41 -12.5q29 0 42 12.5t13 31.5q0 20 -13 33t-42 13q-28 0 -41 -13t-13 -33z" />
    <glyph glyph-name="uni3141" unicode="&#x3141;" horiz-adv-x="900" 
d="M689 437q0 -78 -10.5 -165.5t-19.5 -175.5q-51 3 -107 2.5t-112 -9t-108.5 -27.5t-96.5 -54q9 131 8 268t-26 272q35 -11 73.5 -14.5t77.5 -2t77.5 6.5t74.5 11q30 5 60 5.5t54.5 -10t39.5 -36t15 -71.5zM397 199q35 12 68 17.5t61 8.5q2 13 4 31.5t3 38t1.5 37.5t0.5 30
q0 16 -6 24.5t-15 12t-20 4t-22 0.5q-18 0 -43 0.5t-47 2.5q10 -50 12.5 -106.5t2.5 -100.5z" />
    <glyph glyph-name="uni3142" unicode="&#x3142;" horiz-adv-x="900" 
d="M686 554q5 -106 -3 -219t-25 -238q-75 5 -154.5 -1.5t-145.5 -23.5q-34 -11 -56.5 -9t-35.5 15t-18 36.5t-5 56.5q1 89 -4 186.5t-22 191.5q39 -10 78.5 -15t81.5 -1q2 -25 4.5 -51.5t4.5 -53.5q33 -11 72 -10t74 6q-2 32 -5 63t-7 63zM528 226q2 20 4 41.5t3 42.5
q-35 5 -72 2.5t-71 -12.5q2 -26 2 -51t1 -50q31 10 67.5 16.5t65.5 10.5z" />
    <glyph glyph-name="uni3143" unicode="&#x3143;" horiz-adv-x="900" 
d="M724 554q7 -106 3 -225t-15 -242q-33 9 -70.5 9.5t-72.5 -7.5q-34 -7 -52 -1.5t-26 22.5t-8.5 44.5t-0.5 65.5v83.5t-1.5 74.5t-5 78t-8.5 95q27 -6 51.5 -9t53.5 -7q2 -30 3.5 -56t3.5 -49q11 -4 23 -3t24 3q-2 27 -5.5 56.5t-7.5 64.5zM432 534q4 -106 -0.5 -220
t-15.5 -237q-33 9 -70.5 9.5t-72.5 -7.5q-34 -7 -52 -1.5t-26 22.5t-8.5 44.5t-0.5 65.5v81.5t-1.5 71t-5 75t-8.5 93.5q27 -6 51.5 -9t53.5 -7q2 -29 3.5 -53.5t3.5 -47.5q11 -4 24 -3t25 4q-2 26 -4.5 54t-6.5 62zM626 215q2 25 3.5 48t1.5 46q-27 3 -49 -5q-1 -23 -2 -45
t-3 -45zM330 205q5 47 6 88q-13 2 -26 0.5t-25 -6.5q0 -20 -1 -40.5t-3 -42.5z" />
    <glyph glyph-name="uni3144" unicode="&#x3144;" horiz-adv-x="900" 
d="M330 529q29 -2 63 0.5t65 7.5q-13 -71 -21.5 -146.5t-10.5 -151.5q28 27 51.5 57.5t44.5 66t39 77t35 92.5l123 -36q-8 -57 -32 -121t-59 -127q42 -13 89.5 -20.5t105.5 -7.5q-11 -42 -22.5 -80t-22.5 -79q-61 15 -113 40.5t-95 57.5q-17 -23 -35 -43.5t-37 -38.5
q-20 17 -37 32.5t-34 31.5q1 -11 1.5 -21t2.5 -20q-59 -22 -115.5 -36.5t-111.5 -6.5q-40 6 -64.5 17t-38.5 31t-19 49.5t-6 73.5q0 24 1 58.5t4 73t8 77.5t11 72q30 -1 56.5 2t70.5 16q-8 -22 -13 -51.5t-9 -60.5q26 -8 53.5 -9t56.5 4q5 62 15 119zM316 193
q-2 24 -3.5 50.5t-1.5 53.5q-29 1 -59.5 -1.5t-57.5 -8.5q-2 -33 0 -55t7 -34t14.5 -16.5t24.5 -3.5q13 1 35.5 4t40.5 11z" />
    <glyph glyph-name="uni3145" unicode="&#x3145;" horiz-adv-x="900" 
d="M555 499q-22 -44 -42 -98t-42 -111q56 -28 116.5 -44t118.5 -22l-62 -155q-57 21 -113 49.5t-107 64.5q-18 -37 -39 -69t-47 -56l-147 102q38 33 67.5 82t53 104.5t40.5 112t29 105.5z" />
    <glyph glyph-name="uni3146" unicode="&#x3146;" horiz-adv-x="900" 
d="M380 141q23 16 44 45q-30 19 -57 42q-21 -50 -46 -90t-52 -63l-129 106q26 16 47 44t38 62t30.5 71t23 72t15.5 64.5t9 48.5l148 -31q-7 -38 -17.5 -81.5t-24.5 -88.5q34 -15 73 -27q9 33 16 66.5t11.5 63.5t7.5 55.5t6 42.5l159 -31q-9 -52 -25 -116t-38 -127
q29 -15 64.5 -26.5t75.5 -20.5l-73 -139q-30 17 -57.5 37t-53.5 42q-18 -38 -38 -65.5t-40 -41.5z" />
    <glyph glyph-name="uni3147" unicode="&#x3147;" horiz-adv-x="900" 
d="M215 301q0 118 63.5 178.5t170.5 60.5q54 0 97 -15t74 -45t47.5 -75t16.5 -104q0 -60 -16.5 -104.5t-47.5 -74t-74 -44.5t-97 -15q-107 0 -170.5 59.5t-63.5 178.5zM367 301q0 -114 82 -114q43 0 62.5 28.5t19.5 85.5t-19.5 85t-62.5 28q-82 0 -82 -113z" />
    <glyph glyph-name="uni3148" unicode="&#x3148;" horiz-adv-x="900" 
d="M217 375q0 22 -0.5 41.5t-1 38t-2 38.5t-3.5 43q45 -11 107 -13.5t129.5 -1t135 6t124.5 9.5q-2 -33 -5.5 -76t-8.5 -77q-61 7 -131 9q10 -29 24.5 -59.5t32.5 -59.5t39.5 -55t45.5 -44l-134 -105q-15 15 -30.5 37.5t-30.5 48.5t-28.5 53.5t-22.5 51.5
q-9 -26 -25.5 -57.5t-36 -61t-39 -54.5t-35.5 -38l-123 104q24 16 45.5 42.5t41 58t35.5 66t28 66.5q-69 -5 -131 -12z" />
    <glyph glyph-name="uni3149" unicode="&#x3149;" horiz-adv-x="900" 
d="M172 385q0 22 -0.5 41.5t-1 38t-2 38.5t-3.5 43q30 -7 72 -10.5t90 -4.5t100 0.5t102.5 4t97 5.5t84.5 6q-2 -33 -5.5 -76t-8.5 -77q-32 3 -69 6q-6 -30 -12 -61.5t-14 -63.5q32 -14 71.5 -21.5t81.5 -13.5l-58 -126q-32 16 -62 34t-59 38q-14 -43 -33 -75.5t-44 -48.5
l-109 66q9 8 16.5 17.5t15.5 20.5q-22 11 -41.5 23t-39.5 26q-17 -45 -37 -80t-46 -54l-103 85q19 15 33 40t24.5 55t18.5 64t14 67q-20 -2 -38 -3.5t-35 -3.5zM391 402q-5 -24 -10.5 -48.5t-12.5 -48.5q21 -10 44.5 -16.5t50.5 -11.5q8 31 13 63.5t9 62.5h-47t-47 -1z" />
    <glyph glyph-name="uni314A" unicode="&#x314a;" horiz-adv-x="900" 
d="M217 345q0 22 -0.5 41.5t-1 38t-2 38.5t-3.5 43q32 -8 73 -11t88 -4q-2 20 -3.5 43t-5.5 40h193q-3 -16 -5 -37.5t-4 -41.5q43 2 83.5 5.5t76.5 6.5q-2 -33 -5.5 -76t-8.5 -77q-57 6 -119 9q11 -26 24.5 -52.5t30 -51.5t35.5 -46.5t40 -37.5l-134 -105q-15 15 -30.5 37.5
t-30.5 48.5t-28.5 53.5t-22.5 51.5q-9 -26 -25.5 -57.5t-36 -61t-39 -54.5t-35.5 -38l-123 104q21 14 40.5 36.5t37 50t33 57.5t27.5 59q-31 -2 -60.5 -5.5t-58.5 -6.5z" />
    <glyph glyph-name="uni314B" unicode="&#x314b;" horiz-adv-x="900" 
d="M255 152q27 4 57.5 17.5t60 31.5t57 39t48.5 42q-66 -12 -128.5 -30.5t-105.5 -36.5q-1 31 -2 65.5t-6 70.5q22 -3 55 -2t73 5.5t85 12.5t92 19q-2 21 -23.5 32.5t-66.5 6.5q-26 -3 -55 -5.5t-57.5 -6t-54.5 -9t-47 -13.5q-1 27 -3.5 48.5t-6 39.5t-7.5 35.5t-8 37.5
q39 -11 72 -15.5t65.5 -4.5t67.5 4.5t79 10.5q25 4 58.5 7t63.5 -5t50 -32.5t20 -76.5q0 -71 -32 -132.5t-80.5 -111.5t-108 -88t-115.5 -63z" />
    <glyph glyph-name="uni314C" unicode="&#x314c;" horiz-adv-x="900" 
d="M675 546q-3 -19 -5 -34t-3 -29.5t-1.5 -30.5t-1.5 -37q-55 10 -124.5 11t-136.5 -4q-2 -11 -3.5 -27t-3.5 -34q69 -4 137.5 -1.5t133.5 8.5q-2 -32 -4 -57.5t-7 -59.5q-49 4 -118 5t-140 -3q2 -25 7 -39t14.5 -21.5t25.5 -10t41 -3.5q33 -2 80 6t97 40q-5 -27 -15 -64.5
t-27 -77.5q-64 -8 -132.5 -10t-137.5 5q-40 4 -63 15t-36 30t-18 47.5t-8 67.5q-5 69 -3.5 143t8.5 149q105 -11 217.5 -6t226.5 22z" />
    <glyph glyph-name="uni314D" unicode="&#x314d;" horiz-adv-x="900" 
d="M201 176q14 0 32 1t41 3q1 51 1 105.5t-3 112.5q-17 -2 -33.5 -3.5t-32.5 -3.5q0 22 -0.5 41t-1 37t-2 37.5t-3.5 42.5q46 -14 110.5 -17t133.5 -1t135.5 7.5t117.5 10.5q-1 -18 -1.5 -33.5t-0.5 -32t0.5 -36.5t2.5 -47q-16 2 -31.5 3t-32.5 3q-4 -105 -3 -189
q19 2 35.5 3t30.5 3q-1 -25 -2 -42.5t-1.5 -33.5t-1 -33.5t-1.5 -41.5q-47 6 -108.5 5.5t-127.5 -7.5t-130.5 -21.5t-116.5 -36.5q0 15 -0.5 36t-1.5 43.5t-2 44.5t-2 40zM488 410q-18 -1 -36 -1t-36 -1q-2 -60 -1.5 -113t2.5 -101q18 2 35.5 3.5t35.5 3.5q2 50 2 101.5
t-2 107.5z" />
    <glyph glyph-name="uni314E" unicode="&#x314e;" horiz-adv-x="900" 
d="M222 206q0 72 58 110t165 38q108 0 166.5 -38.5t58.5 -109.5q0 -72 -58.5 -109.5t-166.5 -37.5q-107 0 -165 37.5t-58 109.5zM207 374q0 22 -0.5 36.5t-1 28t-2 28.5t-3.5 38q32 -8 73 -11t87 -4q-1 19 -3 39t-5 35h193q-3 -14 -4.5 -33t-3.5 -37q42 2 82.5 5.5t76.5 6.5
q-2 -33 -5.5 -61t-8.5 -62q-109 11 -233 8t-242 -17zM365 206q0 -20 19 -31.5t61 -11.5q43 0 62 11.5t19 31.5t-19 31t-62 11q-42 0 -61 -11t-19 -31z" />
    <glyph glyph-name="uni314F" unicode="&#x314f;" horiz-adv-x="900" 
d="M285 -123q26 198 36.5 400t-6.5 412h215q-12 -72 -22 -146.5t-18 -152.5q32 -8 67 -8.5t69 5.5q-7 -24 -13 -44.5l-12 -41t-13 -42.5t-14 -48q-20 0 -46 -1t-52 -4q-4 -83 -3.5 -164t7.5 -161z" />
    <glyph glyph-name="uni3150" unicode="&#x3150;" horiz-adv-x="900" 
d="M673 689q-33 -197 -39 -401t5 -408l-166 -4q9 81 14 162.5t7 164.5q-22 0 -45 -1.5t-47 -3.5q-1 -79 0 -157.5t4 -158.5l-167 -1q26 195 31.5 395t-11.5 408h169q-14 -151 -21 -304q20 -8 42.5 -8t45.5 4q-1 79 -3 157l-4 156h185z" />
    <glyph glyph-name="uni3151" unicode="&#x3151;" horiz-adv-x="900" 
d="M285 -123q26 198 36.5 400t-6.5 412h215q-6 -33 -11 -66.5t-10 -68.5q28 -8 58 -8t62 5q-14 -49 -28.5 -97t-28.5 -99q-21 0 -43 -1t-43 -5q-6 -60 -9 -120q29 -13 63 -13t69 5q-14 -49 -28.5 -97t-28.5 -99q-19 0 -39 -0.5t-40 -3.5q1 -35 2.5 -70t4.5 -70z" />
    <glyph glyph-name="uni3152" unicode="&#x3152;" horiz-adv-x="900" 
d="M428 684q-4 -42 -7.5 -84t-5.5 -85q18 -4 38 -2.5t40 4.5q-2 44 -2.5 86.5t-2.5 85.5h185q-33 -197 -39 -401t5 -408l-166 -4q5 43 8.5 85.5t5.5 86.5q-18 0 -40.5 -1t-44.5 -3q0 -41 1 -81t3 -81l-167 -1q26 195 31.5 395t-11.5 408h169zM495 355q-20 -1 -43.5 -2
t-45.5 -4q-2 -37 -2.5 -73t-1.5 -73q22 -3 45.5 0t46.5 8q1 36 1 72v72z" />
    <glyph glyph-name="uni3153" unicode="&#x3153;" horiz-adv-x="900" 
d="M400 -123q11 81 19 161.5t13 162.5q-40 14 -88.5 16t-90.5 -7v195q18 -11 40.5 -13.5t47.5 -0.5t50 7t49 10q1 70 -1.5 139.5t-8.5 141.5h215q-16 -95 -29 -196t-21 -204t-9 -206t7 -202z" />
    <glyph glyph-name="uni3154" unicode="&#x3154;" horiz-adv-x="900" 
d="M184 395q28 -16 66 -15.5t77 8.5q-1 74 -4 147.5t-9 148.5h169q-18 -195 -24 -396.5t2 -405.5l-167 -1q11 79 18 159t11 161q-35 7 -71 6.5t-68 -7.5v195zM713 689q-33 -197 -39 -401t5 -408l-166 -4q22 199 22 405.5t-7 407.5h185z" />
    <glyph glyph-name="uni3155" unicode="&#x3155;" horiz-adv-x="900" 
d="M253 242q16 -9 37.5 -12.5t45.5 -2.5t49.5 4.5t48.5 8.5q2 32 3 65l2 66q-21 6 -45 9t-49 3.5t-49 -1t-43 -5.5v175q16 -9 38 -12.5t47 -3t50.5 4.5t49.5 9q-2 35 -3.5 69.5t-4.5 69.5h215q-16 -95 -29 -196t-21 -204t-9 -206t7 -202l-193 -4q6 48 11 94.5t10 94.5
q-40 8 -86.5 8.5t-81.5 -7.5v175z" />
    <glyph glyph-name="uni3156" unicode="&#x3156;" horiz-adv-x="900" 
d="M184 552q25 -14 62.5 -14.5t76.5 4.5q-3 69 -9 142h169q-18 -195 -24 -396.5t2 -405.5l-167 -1q6 48 11 95t9 96q-34 4 -68.5 2.5t-61.5 -7.5v175q25 -14 63 -15t77 5q3 73 3 148q-36 5 -75 4.5t-68 -7.5v175zM713 689q-33 -197 -39 -401t5 -408l-166 -4q22 199 22 405.5
t-7 407.5h185z" />
    <glyph glyph-name="uni3157" unicode="&#x3157;" horiz-adv-x="900" 
d="M839 60q-194 6 -394.5 -1t-404.5 -36l11 167q69 -8 141.5 -10t147.5 0q-1 28 -3 73.5l-4 91t-4.5 83t-5.5 50.5h190q-3 -15 -5.5 -50.5t-5 -78.5t-4 -86.5t-2.5 -73.5q186 15 364 48z" />
    <glyph glyph-name="uni3158" unicode="&#x3158;" horiz-adv-x="900" 
d="M539 -123q10 79 18 159q-11 -25 -22.5 -49.5t-24.5 -54.5q-51 -3 -108.5 -6.5t-117.5 -7.5t-119 -7.5t-112 -7.5q-5 42 -12.5 90t-19.5 111q39 -25 87 -38t101 -18q-2 27 -5.5 53t-6.5 43h190q-4 -20 -7.5 -45.5t-5.5 -51.5q51 4 98 11.5t89 15.5q14 152 17.5 304.5
t-9.5 310.5h215q-12 -72 -22 -146.5t-18 -152.5q32 -8 67 -8.5t69 5.5q-7 -24 -13 -44.5l-12 -41t-13 -42.5t-14 -48q-20 0 -46 -1t-52 -4q-4 -83 -3.5 -164t7.5 -161z" />
    <glyph glyph-name="uni3159" unicode="&#x3159;" horiz-adv-x="900" 
d="M869 689q-6 -49 -11 -113.5t-9 -137t-6.5 -149t-4 -150.5t-2.5 -141t-1 -119l-145 6q3 49 5 133.5t4 184.5q-17 0 -33.5 -0.5t-34.5 -1.5v-159t-1 -158l-146 -1q4 27 7 66.5t6 87.5q-11 -25 -22 -49t-23 -55q-45 0 -94.5 -2t-100.5 -6t-102 -9.5t-98 -12.5q-2 19 -4 35.5
t-4.5 35t-6.5 40.5t-10 54q35 -9 73.5 -14t78.5 -7q-2 24 -5 48t-7 44h160q-5 -20 -7 -43.5t-4 -46.5q45 3 89.5 9.5t88.5 14.5q3 74 5 159t2 168t-2 157t-6 127h151q-8 -77 -11 -154.5t-5 -156.5q17 -2 33.5 0t33.5 5q0 90 -0.5 171.5t-2.5 139.5h172z" />
    <glyph glyph-name="uni315A" unicode="&#x315a;" horiz-adv-x="900" 
d="M621 -123q12 91 21 183q-14 -32 -28 -61t-30 -67q-51 -3 -117 -6.5t-136 -7.5t-138 -7.5t-121 -7.5q-5 42 -12.5 90t-19.5 111q40 -25 93.5 -38.5t114.5 -18.5q-2 28 -5.5 54t-6.5 43h190q-4 -20 -7 -45.5t-6 -52.5q65 4 124 12t106 18q14 151 17.5 303t-9.5 310h215
q-16 -95 -29 -196t-20.5 -204t-8 -206t7.5 -202z" />
    <glyph glyph-name="uni315B" unicode="&#x315b;" horiz-adv-x="900" 
d="M839 60q-194 6 -394.5 -1t-404.5 -36l11 167q39 -5 79.5 -7t82.5 -3q-1 18 -1.5 44.5t-1.5 56.5t-2.5 61.5t-2.5 59t-2.5 48t-3.5 29.5h172q-1 -10 -1.5 -31t-1 -48t-0.5 -57.5t0.5 -60.5t1 -56.5t1.5 -44.5q29 1 57 3t57 4q1 29 1.5 72t0.5 86.5v80.5t-1 52h172
q-3 -14 -5 -47t-3 -73.5t-2 -82t-2 -72.5q54 7 107.5 15t106.5 18z" />
    <glyph glyph-name="uni315C" unicode="&#x315c;" horiz-adv-x="900" 
d="M839 312q-85 2 -170 2.5t-173 -1.5q0 -37 0.5 -83t2 -91.5t4 -86t5.5 -67.5l-180 -4q4 24 7 63t5.5 84.5t5 92t5.5 85.5q-78 -5 -155.5 -12.5t-155.5 -18.5l11 167q95 -10 196 -10.5t204 6t206 20t203 31.5z" />
    <glyph glyph-name="uni315D" unicode="&#x315d;" horiz-adv-x="900" 
d="M479 72q18 -8 37.5 -9.5t40 0.5t41.5 7t41 11q3 33 5.5 66.5t4.5 67.5l-31 -77q-51 -3 -105 -7.5t-111 -11.5q-2 -56 0.5 -115t10.5 -124l-180 -4q8 55 14 110t11 113q-54 -9 -106 -19t-102 -22l-11 177q67 -11 144.5 -13.5t157.5 1.5t159.5 13.5t150.5 22.5
q5 106 4.5 213t-9.5 217h215q-16 -95 -29 -196t-21 -204t-9 -206t7 -202l-193 -4q2 17 4 33l4 32q-36 7 -74 7.5t-71 -7.5v130z" />
    <glyph glyph-name="uni315E" unicode="&#x315e;" horiz-adv-x="900" 
d="M384 63q27 -7 56 -5t58 10q6 70 9 143l-33 -83q-34 -3 -72.5 -7t-79.5 -9q-2 -55 0.5 -112t10.5 -120l-160 -4q8 54 14 107.5t11 110.5q-44 -7 -84 -15t-75 -16l-10 167q55 -10 113.5 -12t119.5 1t123 9t124 14q4 109 1 219t-12 223h149q-5 -198 -6 -398.5t-5 -403.5
l-158 -1q2 16 4 31t4 31q-26 2 -51.5 1t-50.5 -7v126zM869 689q-26 -198 -32 -402t-2 -407l-148 -4q17 197 16 399t-6 414h172z" />
    <glyph glyph-name="uni315F" unicode="&#x315f;" horiz-adv-x="900" 
d="M616 -123q8 66 15.5 132t12.5 133l-38 -86q-57 0 -106.5 -0.5t-98.5 -2.5q0 -82 12 -173l-180 -4q7 42 11.5 83.5t8.5 83.5q-47 -5 -97 -11t-107 -15l-10 168q67 -15 141 -20.5t151.5 -2.5t157 12.5t159.5 23.5q8 121 8.5 243t-10.5 248h215q-16 -95 -29 -196t-21 -204
t-9 -206t7 -202z" />
    <glyph glyph-name="uni3160" unicode="&#x3160;" horiz-adv-x="900" 
d="M839 312q-42 1 -83 1.5t-83 1.5q1 -39 1.5 -86t0 -93t-1.5 -87t-2 -66l-173 -2q4 24 7.5 64.5t6 86.5t5 94t5.5 87q-77 -1 -155 -6q-2 -40 -3.5 -87t-3.5 -92t-4 -83.5t-5 -61.5l-181 -2q7 22 12.5 59t9 80.5t6 89t2.5 84.5q-41 -4 -80.5 -9t-79.5 -10l11 167
q95 -10 196 -10.5t204 6t206 20t203 31.5z" />
    <glyph glyph-name="uni3161" unicode="&#x3161;" horiz-adv-x="900" 
d="M839 211q-194 6 -394.5 -1t-404.5 -36l11 167q95 -10 196 -10.5t204 6t206 20t203 31.5z" />
    <glyph glyph-name="uni3162" unicode="&#x3162;" horiz-adv-x="900" 
d="M622 -123l10 84t9 84q-12 -27 -24.5 -53.5t-26.5 -59.5q-51 -3 -118 -6.5t-138 -7.5t-139.5 -7.5t-121.5 -7.5q-5 42 -12.5 90t-19.5 111q35 -22 82 -35t100.5 -19t110.5 -6t112 4t106 11.5t92 15.5q14 151 17.5 303.5t-9.5 310.5h215q-16 -95 -29 -196t-20.5 -204
t-8 -206t7.5 -202z" />
    <glyph glyph-name="uni3163" unicode="&#x3163;" horiz-adv-x="900" 
d="M326 -123q26 198 36.5 400t-6.5 412h215q-16 -95 -29 -196t-21 -204t-9 -206t7 -202z" />
    <glyph glyph-name="uni3164" unicode="&#x3164;" horiz-adv-x="940" 
 />
    <glyph glyph-name="uni3165" unicode="&#x3165;" horiz-adv-x="940" 
d="M144 68v509h154v-386h150v-123h-304zM489 68v509h154v-386h153v-123h-307z" />
    <glyph glyph-name="uni3166" unicode="&#x3166;" horiz-adv-x="940" 
d="M806 577v-122h-164v-266h169v-122h-322v510h317zM144 68v509h154v-386h150v-123h-304z" />
    <glyph glyph-name="uni3167" unicode="&#x3167;" horiz-adv-x="940" 
d="M742 368q0 -38 12 -70.5t32.5 -58t48 -44.5t58.5 -31l-71 -99q-47 18 -86.5 46.5t-68.5 70.5q-29 -42 -68.5 -70.5t-86.5 -46.5l-71 99q31 12 58.5 31t48 44.5t32.5 58t12 70.5v214h150v-214zM430 68v123h-132v386h-154v-509h286z" />
    <glyph glyph-name="uni3168" unicode="&#x3168;" horiz-adv-x="940" 
d="M392 68l230 525l235 -525h-465zM624 305l-51 -134h101zM86 68v509h154v-386h140v-123h-294z" />
    <glyph glyph-name="uni3169" unicode="&#x3169;" horiz-adv-x="940" 
d="M433 68v387h-104v122h257v-391q51 39 72 94t21 123v179h149v-179q0 -77 28 -138.5t99 -99.5l-72 -99q-50 24 -80 54.5t-50 64.5q-20 -34 -50 -64.5t-79 -54.5l-38 52v-50h-153zM34 68v316h122v71h-122v122h269v-317h-121v-70h150v-122h-298z" />
    <glyph glyph-name="uni316A" unicode="&#x316a;" horiz-adv-x="940" 
d="M114 68v316h180v71h-180v122h332v-317h-179v-70h189v-122h-342zM821 577v-122h-177v-266h188v-122h-341v510h330z" />
    <glyph glyph-name="uni316B" unicode="&#x316b;" horiz-adv-x="940" 
d="M594 577v-385q48 39 66.5 92.5t18.5 118.5v179h149v-179q0 -77 28 -138.5t99 -99.5l-72 -99q-50 24 -80 54.5t-50 64.5q-20 -34 -50 -64.5t-79 -54.5l-30 41v-40h-269v510h121v-155h27v155h121zM34 68v316h122v71h-122v122h269v-317h-121v-70h126v-122h-274zM473 183v122
h-27v-122h27z" />
    <glyph glyph-name="uni316C" unicode="&#x316c;" horiz-adv-x="940" 
d="M422 68l231 524l234 -524h-465zM655 305l-51 -135h101zM96 68v316h167v71h-167v122h320v-317h-166v-70h166v-122h-320z" />
    <glyph glyph-name="uni316D" unicode="&#x316d;" horiz-adv-x="940" 
d="M647 58q-84 0 -130.5 50.5t-46.5 134.5q0 41 12 75.5t35 59t55.5 38.5t74.5 14t74.5 -14t55.5 -38.5t35 -59t12 -75.5q0 -83 -46.5 -134t-130.5 -51zM647 313q-22 0 -30.5 -20.5t-8.5 -49.5q0 -30 8.5 -49.5t30.5 -19.5t30.5 19.5t8.5 49.5q0 29 -8.5 49.5t-30.5 20.5z
M451 455v122h390v-122h-390zM98 68v316h176v71h-176v122h329v-317h-175v-70h181v-122h-335z" />
    <glyph glyph-name="uni316E" unicode="&#x316e;" horiz-adv-x="940" 
d="M111 68v509h337v-509h-337zM634 436h51v141h143v-509h-337v509h143v-141zM303 462h-47v-279h47v279zM685 319h-51v-136h51v136z" />
    <glyph glyph-name="uni316F" unicode="&#x316f;" horiz-adv-x="940" 
d="M432 68v509h-331v-509h331zM742 368q0 -38 12 -70.5t32.5 -58t48 -44.5t58.5 -31l-71 -99q-47 18 -86.5 47t-68.5 71q-29 -42 -68.5 -71t-86.5 -47l-71 99q31 12 58.5 31t48 44.5t32.5 58t12 70.5v214h150v-214zM291 183h-48v279h48v-279z" />
    <glyph glyph-name="uni3170" unicode="&#x3170;" horiz-adv-x="940" 
d="M435 68l228 524l232 -524h-460zM665 304l-52 -134h103zM91 68v509h331v-509h-331zM281 462h-48v-279h48v279z" />
    <glyph glyph-name="uni3171" unicode="&#x3171;" horiz-adv-x="940" 
d="M217 318v359h505v-359h-505zM569 555h-199v-116h199v116zM470 -34q-41 0 -74 11t-56 31.5t-35 48t-12 60.5q0 32 12 59.5t35 48t56 32t74 11.5t74 -11.5t56 -32t35 -48t12 -59.5q0 -33 -12 -60.5t-35 -47.5t-56 -31.5t-74 -11.5zM470 156q-22 0 -33 -11t-11 -28t11 -28.5
t33 -11.5t33 11.5t11 28.5t-11 28t-33 11z" />
    <glyph glyph-name="uni3172" unicode="&#x3172;" horiz-adv-x="940" 
d="M254 436h51v141h143v-509h-337v509h143v-141zM673 68v387h-183v122h336v-509h-153zM305 319h-51v-136h51v136z" />
    <glyph glyph-name="uni3173" unicode="&#x3173;" horiz-adv-x="940" 
d="M254 436h51v141h143v-509h-337v509h143v-141zM821 577v-122h-179v-266h184v-122h-337v510h332zM305 319h-51v-136h51v136z" />
    <glyph glyph-name="uni3174" unicode="&#x3174;" horiz-adv-x="940" 
d="M312 577v-415q65 40 90.5 103t25.5 138v179h145v-180q0 -78 27.5 -140t100.5 -104l-69 -97q-42 22 -72.5 49t-61.5 72q-21 -35 -50.5 -65.5t-77.5 -55.5l-58 81v-75h-277v510h122v-155h33v155h122zM752 68v387h-128v122h281v-509h-153zM190 183v122h-33v-122h33z" />
    <glyph glyph-name="uni3175" unicode="&#x3175;" horiz-adv-x="940" 
d="M305 577v-394q55 40 74.5 95t19.5 125v179h145v-180q0 -34 3.5 -64.5t13.5 -58t27.5 -51t45.5 -44.5v393h281v-122h-132v-266h141v-122h-290v52l-36 -51q-41 22 -69 48t-59 67q-21 -34 -48.5 -62t-75.5 -53l-41 58v-59h-270v510h122v-153h26v153h122zM183 185v120h-26
v-120h26z" />
    <glyph glyph-name="uni3176" unicode="&#x3176;" horiz-adv-x="940" 
d="M240 436h50v141h143v-509h-336v509h143v-141zM852 455h-117v-87q0 -77 37.5 -125.5t99.5 -74.5l-70 -97q-47 20 -80.5 45t-61.5 66q-29 -41 -62 -66t-80 -45l-70 97q62 26 99.5 74.5t37.5 125.5v87h-117v122h384v-122zM290 319h-50v-136h50v136z" />
    <glyph glyph-name="uni3177" unicode="&#x3177;" horiz-adv-x="940" 
d="M254 436h51v141h143v-509h-337v509h143v-141zM811 263h-169v-74h184v-121h-336v509h331v-121h-179v-71h169v-122zM305 319h-51v-136h51v136z" />
    <glyph glyph-name="uni3178" unicode="&#x3178;" horiz-adv-x="940" 
d="M722 687v-369h-505v369h151v-72h203v72h151zM470 -34q-41 0 -74 11t-56 31.5t-35 48t-12 60.5q0 32 12 59.5t35 48t56 32t74 11.5t74 -11.5t56 -32t35 -48t12 -59.5q0 -33 -12 -60.5t-35 -47.5t-56 -31.5t-74 -11.5zM571 439v55h-203v-55h203zM470 156q-22 0 -33 -11
t-11 -28t11 -28.5t33 -11.5t33 11.5t11 28.5t-11 28t-33 11z" />
    <glyph glyph-name="uni3179" unicode="&#x3179;" horiz-adv-x="940" 
d="M278 609h38v78h134v-369h-307v369h135v-78zM624 609h38v78h134v-369h-307v369h135v-78zM470 -34q-41 0 -74 11t-56 31.5t-35 48t-12 60.5q0 32 12 59.5t35 48t56 32t74 11.5t74 -11.5t56 -32t35 -48t12 -59.5q0 -33 -12 -60.5t-35 -47.5t-56 -31.5t-74 -11.5zM470 156
q-22 0 -33 -11t-11 -28t11 -28.5t33 -11.5t33 11.5t11 28.5t-11 28t-33 11zM316 494h-38v-61h38v61zM662 494h-38v-61h38v61z" />
    <glyph glyph-name="uni317A" unicode="&#x317a;" horiz-adv-x="940" 
d="M388 365q0 -75 41 -124t121 -84l-70 -99q-52 20 -94 49.5t-73 71.5q-62 -82 -167 -121l-70 99q80 35 121 84t41 124v217h150v-217zM810 68v509h-352v-122h199v-387h153z" />
    <glyph glyph-name="uni317B" unicode="&#x317b;" horiz-adv-x="940" 
d="M368 368q0 -38 11 -70t30.5 -57.5t45.5 -44t57 -30.5l-71 -99q-47 19 -83 46.5t-65 69.5q-29 -42 -68.5 -71t-86.5 -47l-71 99q31 12 58.5 31t48 44.5t32.5 58t12 70.5v214h150v-214zM862 68v123h-181v386h-154v-509h335z" />
    <glyph glyph-name="uni317C" unicode="&#x317c;" horiz-adv-x="940" 
d="M527 577v-510h330v122h-181v266h176v122h-325zM368 368q0 -38 11 -70t30.5 -57.5t45.5 -44t57 -30.5l-71 -99q-47 19 -83 46.5t-65 69.5q-29 -42 -68.5 -71t-86.5 -47l-71 99q31 12 58.5 31t48 44.5t32.5 58t12 70.5v214h150v-214z" />
    <glyph glyph-name="uni317D" unicode="&#x317d;" horiz-adv-x="940" 
d="M668 577h-141v-509h331v509h-141v-141h-49v141zM368 368q0 -38 11 -70t30.5 -57.5t45.5 -44t57 -30.5l-71 -99q-47 19 -83 46.5t-65 69.5q-29 -42 -68.5 -71t-86.5 -47l-71 99q31 12 58.5 31t48 44.5t32.5 58t12 70.5v214h150v-214zM717 183h-49v136h49v-136z" />
    <glyph glyph-name="uni317E" unicode="&#x317e;" horiz-adv-x="940" 
d="M338 368q0 -39 10 -69t26.5 -53.5t39 -41t47.5 -30.5q25 13 47.5 30.5t39.5 41t27 53.5t10 69v87h-117v122h384v-122h-117v-87q0 -46 13.5 -80t36 -59t51.5 -42t60 -29l-71 -99q-55 20 -95.5 51t-69.5 73q-59 -84 -165 -124l-34 46l-33 -46q-55 20 -95.5 51t-69.5 73
q-59 -84 -165 -124l-71 99q31 12 60 29t51.5 42t36 59t13.5 80v214h150v-214z" />
    <glyph glyph-name="uni317F" unicode="&#x317f;" horiz-adv-x="940" 
d="M134 67l336 547l333 -547h-669zM470 375l-118 -199h229z" />
    <glyph glyph-name="uni3180" unicode="&#x3180;" horiz-adv-x="940" 
d="M96 320q0 49 14.5 86.5t39 62t57 37t68.5 12.5q37 0 69.5 -12.5t56.5 -37t38 -62t14 -86.5q0 -50 -14 -86.5t-38 -61.5t-56.5 -37t-69.5 -12q-36 0 -68.5 12t-57 37t-39 61.5t-14.5 86.5zM318 320q0 36 -10 60t-33 24t-33 -24t-10 -59q0 -37 10 -61.5t33 -24.5t33 24.5
t10 60.5zM485 320q0 49 14.5 86.5t39 62t57 37t68.5 12.5q37 0 69.5 -12.5t56.5 -37t38 -62t14 -86.5q0 -50 -14 -86.5t-38 -61.5t-56.5 -37t-69.5 -12q-36 0 -68.5 12t-57 37t-39 61.5t-14.5 86.5zM707 320q0 36 -10 60t-33 24t-33 -24t-10 -59q0 -37 10 -61.5t33 -24.5
t33 24.5t10 60.5z" />
    <glyph glyph-name="uni3181" unicode="&#x3181;" horiz-adv-x="940" 
d="M191 302q0 50 15.5 90.5t43 71t65 51t81.5 29.5v78h149v-78q44 -9 81.5 -29t65.5 -51t43.5 -71.5t15.5 -90.5q0 -60 -22 -107t-60.5 -78.5t-89.5 -48t-109 -16.5t-108.5 16.5t-88.5 48.5t-60 78.5t-22 106.5zM611 302q0 61 -38 96.5t-103 35.5q-62 0 -100.5 -35.5
t-38.5 -95.5q0 -62 38.5 -97.5t100.5 -35.5q65 0 103 35.5t38 96.5z" />
    <glyph glyph-name="uni3182" unicode="&#x3182;" horiz-adv-x="940" 
d="M62 302q0 93 33.5 155t101.5 84v81h149v-81q68 -22 101.5 -83.5t33.5 -155.5q0 -116 -52.5 -183t-157.5 -67q-104 0 -156.5 67t-52.5 183zM761 368q0 -38 11 -69.5t30.5 -57t45 -44t54.5 -31.5l-71 -99q-47 20 -81.5 47t-63.5 69q-29 -42 -63.5 -69t-81.5 -47l-71 99
q29 13 54.5 31.5t45 44t30.5 57t11 69.5v214h150v-214zM342 302q0 59 -15.5 96.5t-55.5 37.5q-38 0 -54 -37t-16 -96q0 -60 16 -97.5t54 -37.5q40 0 55.5 37.5t15.5 96.5z" />
    <glyph glyph-name="uni3183" unicode="&#x3183;" horiz-adv-x="940" 
d="M42 302q0 93 33.5 155t101.5 84v81h149v-81q68 -22 101.5 -83.5t33.5 -155.5q0 -116 -52.5 -183t-157.5 -67q-104 0 -156.5 67t-52.5 183zM443 68l230 524l233 -524h-463zM322 302q0 59 -15.5 96.5t-55.5 37.5q-38 0 -54 -37t-16 -96q0 -60 16 -97.5t54 -37.5
q40 0 55.5 37.5t15.5 96.5zM675 308l-55 -138h108z" />
    <glyph glyph-name="uni3184" unicode="&#x3184;" horiz-adv-x="940" 
d="M183 318v124h95l-16 83l151 18l18 -101h85l19 101l151 -18l-16 -83h86v-124h-573zM470 -34q-41 0 -74 11t-56 31.5t-35 48t-12 60.5q0 32 12 59.5t35 48t56 32t74 11.5t74 -11.5t56 -32t35 -48t12 -59.5q0 -33 -12 -60.5t-35 -47.5t-56 -31.5t-74 -11.5zM203 563v124h533
v-124h-533zM470 156q-22 0 -33 -11t-11 -28t11 -28.5t33 -11.5t33 11.5t11 28.5t-11 28t-33 11z" />
    <glyph glyph-name="uni3185" unicode="&#x3185;" horiz-adv-x="940" 
d="M135 491v120h245v-120h-245zM52 352v120h407v-120h-407zM258 50q-84 0 -130.5 39t-46.5 105q0 65 46.5 104.5t130.5 39.5t130.5 -39.5t46.5 -104.5q0 -66 -46.5 -105t-130.5 -39zM258 232q-43 0 -43 -38q0 -17 11.5 -28.5t31.5 -11.5t31.5 11.5t11.5 28.5q0 38 -43 38z
M560 491v120h245v-120h-245zM480 352v120h407v-120h-407zM683 50q-84 0 -130.5 39t-46.5 105q0 65 46.5 104.5t130.5 39.5t130.5 -39.5t46.5 -104.5q0 -66 -46.5 -105t-130.5 -39zM683 232q-43 0 -43 -38q0 -17 11.5 -28.5t31.5 -11.5t31.5 11.5t11.5 28.5q0 38 -43 38z" />
    <glyph glyph-name="uni3186" unicode="&#x3186;" horiz-adv-x="940" 
d="M175 455v122h590v-122h-590zM221 238q0 88 65 137t184 49q120 0 185 -48.5t65 -137.5t-65 -137.5t-185 -48.5q-119 0 -184 49t-65 137zM577 238q0 33 -24.5 52.5t-82.5 19.5q-56 0 -81 -19.5t-25 -51.5q0 -34 25 -53.5t81 -19.5q58 0 82.5 19.5t24.5 52.5z" />
    <glyph glyph-name="uni3187" unicode="&#x3187;" horiz-adv-x="940" 
d="M801 570h132v-124h-132v-166h132v-124h-132v-317h-155v935h155v-204zM626 52q-151 -20 -300 -30.5t-300 -10.5l-19 123q32 0 65 0.5t66 1.5v286h154v-279q13 1 25.5 1.5t26.5 1.5v276h154v-262q27 3 53.5 6t53.5 7z" />
    <glyph glyph-name="uni3188" unicode="&#x3188;" horiz-adv-x="940" 
d="M680 570h42v204h150v-938h-150v322h-42v-286h-149v882h149v-184zM512 36q-125 -11 -241.5 -18t-244.5 -9l-19 124q18 0 36.5 0.5t36.5 0.5v288h154v-282q11 1 22.5 1.5t23.5 1.5v279h154v-269q14 2 29 3t30 3zM680 281h42v166h-42v-166z" />
    <glyph glyph-name="uni3189" unicode="&#x3189;" horiz-adv-x="940" 
d="M666 52q-151 -20 -310 -30.5t-310 -10.5l-19 123q33 0 66.5 0.5t67.5 1.5v285h154v-279q20 2 40 2.5t40 2.5v274h154v-260l96 12zM851 -161h-155v935h155v-935z" />
    <glyph glyph-name="uni318A" unicode="&#x318a;" horiz-adv-x="940" 
d="M173 -150v406q-32 -1 -64 -1h-63l-19 123q152 1 311 10t307 29l21 -121q-30 -5 -60 -8t-61 -7v-431h-154v417q-17 -1 -32.5 -1.5t-31.5 -2.5v-413h-154zM696 82v42h-109v124h109v526h155v-935h-155v119h-109v124h109z" />
    <glyph glyph-name="uni318B" unicode="&#x318b;" horiz-adv-x="940" 
d="M98 -111v369q-18 0 -36 -0.5t-36 -0.5l-19 123q119 1 241 6.5t243 16.5l19 -120q-20 -2 -38.5 -3.5t-37.5 -3.5v-387h-152v377q-8 -1 -16 -1t-16 -1v-375h-152zM541 83v42h-66v124h66v505h149v-872h-149v77h-66v124h66zM722 -164v938h150v-938h-150z" />
    <glyph glyph-name="uni318C" unicode="&#x318c;" horiz-adv-x="940" 
d="M173 -150v306q-32 -1 -64 -1h-63l-19 123q152 1 311 10t307 29l21 -121q-30 -5 -60 -8t-61 -7v-331h-154v317q-17 -1 -32.5 -1.5t-31.5 -2.5v-313h-154zM851 -161h-155v935h155v-935z" />
    <glyph glyph-name="uni318D" unicode="&#x318d;" horiz-adv-x="940" 
d="M583 321q0 -24 -8.5 -44.5t-24 -35t-36 -23t-44.5 -8.5t-45 8.5t-36.5 23t-24 35t-8.5 44.5q0 49 32.5 80.5t81.5 31.5q24 0 44.5 -8.5t36 -23.5t24 -35.5t8.5 -44.5z" />
    <glyph glyph-name="uni318E" unicode="&#x318e;" horiz-adv-x="940" 
d="M438 328q0 -42 -28 -69.5t-70 -27.5t-70 27.5t-28 69.5t28 69t70 27t70 -27t28 -69zM706 -161h-155v935h155v-935z" />
    <glyph glyph-name="uni2170" unicode="&#x2170;" horiz-adv-x="940" 
d="M396 477h148v-526h-148v526zM544 530h-148v151h148v-151z" />
    <glyph glyph-name="uni2171" unicode="&#x2171;" horiz-adv-x="940" 
d="M276 477h148v-526h-148v526zM424 530h-148v151h148v-151zM516 477h148v-526h-148v526zM664 530h-148v151h148v-151z" />
    <glyph glyph-name="uni2172" unicode="&#x2172;" horiz-adv-x="940" 
d="M156 477h148v-526h-148v526zM304 530h-148v151h148v-151zM396 477h148v-526h-148v526zM544 530h-148v151h148v-151zM636 477h148v-526h-148v526zM784 530h-148v151h148v-151z" />
    <glyph glyph-name="uni2173" unicode="&#x2173;" horiz-adv-x="940" 
d="M475 477l111 -328l115 328h146l-193 -526h-137l-193 526h151zM143 477h148v-526h-148v526zM291 530h-148v151h148v-151z" />
    <glyph glyph-name="uni2174" unicode="&#x2174;" horiz-adv-x="940" 
d="M359 477l111 -328l115 328h146l-193 -526h-137l-193 526h151z" />
    <glyph glyph-name="uni2175" unicode="&#x2175;" horiz-adv-x="940" 
d="M244 477l111 -328l115 328h146l-193 -526h-137l-193 526h151zM646 477h148v-526h-148v526zM794 530h-148v151h148v-151z" />
    <glyph glyph-name="uni2176" unicode="&#x2176;" horiz-adv-x="940" 
d="M200 478l92 -318l90 317h146l-169 -526h-136l-172 527h149zM719 477h143v-526h-143v526zM549 477h143v-526h-143v526zM862 530h-143v151h143v-151zM692 530h-143v151h143v-151z" />
    <glyph glyph-name="uni2177" unicode="&#x2177;" horiz-adv-x="940" 
d="M173 477l47 -279l49 279h131l-108 -526h-136l-117 526h134zM576 477h136v-526h-136v526zM733 477h136v-526h-136v526zM418 477h136v-526h-136v526zM554 530h-136v151h136v-151zM869 530h-136v151h136v-151zM712 530h-136v151h136v-151z" />
    <glyph glyph-name="uni2178" unicode="&#x2178;" horiz-adv-x="940" 
d="M498 213l-185 264h156l108 -153l108 153h156l-186 -264l186 -262h-158l-106 151l-106 -151h-158zM143 477h148v-526h-148v526zM291 530h-148v151h148v-151z" />
    <glyph glyph-name="uni2179" unicode="&#x2179;" horiz-adv-x="940" 
d="M393 213l-185 264h156l108 -153l108 153h156l-186 -264l186 -262h-158l-106 151l-106 -151h-158z" />
    <glyph glyph-name="uni2160" unicode="&#x2160;" horiz-adv-x="940" 
d="M544 -48h-151v725h151v-725z" />
    <glyph glyph-name="uni2161" unicode="&#x2161;" horiz-adv-x="940" 
d="M424 -48h-151v725h151v-725zM664 -48h-151v725h151v-725z" />
    <glyph glyph-name="uni2162" unicode="&#x2162;" horiz-adv-x="940" 
d="M304 -48h-151v725h151v-725zM545 -48h-151v725h151v-725zM785 -48h-151v725h151v-725z" />
    <glyph glyph-name="uni2163" unicode="&#x2163;" horiz-adv-x="940" 
d="M576 187l147 489h151l-231 -725h-130l-233 725h151zM261 -48h-151v725h151v-725z" />
    <glyph glyph-name="uni2164" unicode="&#x2164;" horiz-adv-x="940" 
d="M468 187l145 489h156l-234 -725h-130l-236 725h156z" />
    <glyph glyph-name="uni2165" unicode="&#x2165;" horiz-adv-x="940" 
d="M358 187l147 489h151l-231 -725h-130l-233 725h151zM827 -50h-151v726h151v-726z" />
    <glyph glyph-name="uni2166" unicode="&#x2166;" horiz-adv-x="940" 
d="M288 233l94 443h145l-172 -725h-133l-172 725h145zM861 -49h-145v725h145v-725zM691 -49h-145v725h145v-725z" />
    <glyph glyph-name="uni2167" unicode="&#x2167;" horiz-adv-x="940" 
d="M208 292l50 384h133l-115 -725h-133l-115 725h132zM864 -49h-138v725h138v-725zM706 -49h-138v725h138v-725zM549 -49h-138v725h138v-725z" />
    <glyph glyph-name="uni2168" unicode="&#x2168;" horiz-adv-x="940" 
d="M500 313l-214 363h162l133 -225l134 225h162l-214 -363l215 -362h-164l-133 224l-132 -224h-164zM271 -49h-151v725h151v-725z" />
    <glyph glyph-name="uni2169" unicode="&#x2169;" horiz-adv-x="940" 
d="M395 314l-239 370h163l150 -244l152 244h163l-240 -370l241 -369h-164l-152 243l-152 -243h-164z" />
    <glyph glyph-name="Alpha" unicode="&#x391;" horiz-adv-x="600" 
d="M231 676h137l240 -725h-146l-55 171h-218l-52 -171h-147zM226 237h148l-75 237z" />
    <glyph glyph-name="Beta" unicode="&#x392;" horiz-adv-x="570" 
d="M275 676q56 0 100.5 -10.5t75.5 -33.5t47.5 -59t16.5 -87q0 -48 -15.5 -84.5t-62.5 -65.5q57 -24 84 -69t27 -102q0 -58 -16.5 -98.5t-47.5 -66t-75 -37.5t-99 -12h-256v725h221zM297 73q50 0 77 20.5t27 72.5q0 48 -31 73t-83 25h-91v-191h101zM264 386q49 0 76.5 22
t27.5 74q0 43 -27 57.5t-68 14.5h-77v-168h68z" />
    <glyph glyph-name="Gamma" unicode="&#x393;" horiz-adv-x="530" 
d="M64 -49v725h443v-124h-290v-601h-153z" />
    <glyph glyph-name="uni0394" unicode="&#x394;" horiz-adv-x="640" 
d="M-1 -49l277 725h104l261 -725h-642zM324 434l-132 -361h255z" />
    <glyph glyph-name="Epsilon" unicode="&#x395;" horiz-adv-x="560" 
d="M205 264v-190h328v-123h-479v725h463v-123h-312v-167h296v-122h-296z" />
    <glyph glyph-name="Zeta" unicode="&#x396;" horiz-adv-x="570" 
d="M361 553h-335v123h523v-83l-347 -519h352v-123h-541v81z" />
    <glyph glyph-name="Eta" unicode="&#x397;" horiz-adv-x="660" 
d="M205 386h249v290h151v-725h-151v313h-249v-313h-151v725h151v-290z" />
    <glyph glyph-name="Theta" unicode="&#x398;" horiz-adv-x="700" 
d="M350 -64q-71 0 -131 24.5t-103 71.5t-67 116t-24 158q0 92 23.5 163t66.5 119t103 73t132 25t132 -25t103 -73t66.5 -119t23.5 -163q0 -89 -24 -158t-67 -116t-103 -71.5t-131 -24.5zM350 567q-46 0 -80 -20t-56 -55t-32.5 -82.5t-10.5 -103.5t11.5 -102t34 -79t56 -51
t77.5 -18t77.5 18t56 51t34 79t11.5 102t-10.5 103.5t-32.5 82.5t-56 55t-80 20zM200 244v122h300v-122h-300z" />
    <glyph glyph-name="Iota" unicode="&#x399;" horiz-adv-x="241" 
d="M195 -49h-151v725h151v-725z" />
    <glyph glyph-name="Kappa" unicode="&#x39a;" horiz-adv-x="593" 
d="M203 418l250 258h177l-303 -310l317 -415h-175l-235 312l-31 -31v-281h-149v725h149v-258z" />
    <glyph glyph-name="Lambda" unicode="&#x39b;" horiz-adv-x="600" 
d="M152 -49h-155l237 725h131l237 -725h-155l-149 482z" />
    <glyph glyph-name="Mu" unicode="&#x39c;" horiz-adv-x="780" 
d="M223 676l167 -533l167 533h168v-725h-137v395l-126 -395h-144l-127 398v-398h-137v725h169z" />
    <glyph glyph-name="Nu" unicode="&#x39d;" horiz-adv-x="665" 
d="M614 -49h-166l-251 490v-491h-143v726h167l250 -487v487h143v-725z" />
    <glyph glyph-name="Xi" unicode="&#x39e;" horiz-adv-x="660" 
d="M63 556v122h532v-122h-532zM137 264v121h385v-121h-385zM63 -50v122h532v-122h-532z" />
    <glyph glyph-name="Omicron" unicode="&#x39f;" horiz-adv-x="700" 
d="M350 -68q-71 0 -131 25t-103 73t-67 117.5t-24 158.5q0 92 23.5 163.5t66.5 120.5t103 74.5t132 25.5t132 -25.5t103 -74.5t66.5 -120.5t23.5 -163.5q0 -89 -24 -158.5t-67 -117.5t-103 -73t-131 -25zM350 571q-46 0 -80 -20.5t-56 -56t-32.5 -84t-10.5 -104.5
t11.5 -102.5t34 -80.5t56 -52.5t77.5 -18.5t77.5 18.5t56 52.5t34 80.5t11.5 102.5t-10.5 104.5t-32.5 84t-56 56t-80 20.5z" />
    <glyph glyph-name="Pi" unicode="&#x3a0;" horiz-adv-x="660" 
d="M595 -51h-151v607h-229v-607h-151v729h531v-729z" />
    <glyph glyph-name="Rho" unicode="&#x3a1;" horiz-adv-x="557" 
d="M300 676q121 0 179.5 -54.5t58.5 -167.5q0 -111 -59 -172t-179 -61h-98v-270h-148v725h246zM296 344q46 0 70 25t24 83t-24 79.5t-70 21.5h-94v-209h94z" />
    <glyph glyph-name="Sigma" unicode="&#x3a3;" horiz-adv-x="570" 
d="M37 -49v65l287 297l-287 275v88h502v-122h-286l252 -233l-241 -247h276v-123h-503z" />
    <glyph glyph-name="Tau" unicode="&#x3a4;" horiz-adv-x="530" 
d="M-3 553v123h536v-123h-196v-602h-151v602h-189z" />
    <glyph glyph-name="Upsilon" unicode="&#x3a5;" horiz-adv-x="600" 
d="M223 266l-239 410h162l153 -275l156 275h160l-241 -409v-316h-151v315z" />
    <glyph glyph-name="Phi" unicode="&#x3a6;" horiz-adv-x="640" 
d="M390 569q46 -10 84.5 -32t66.5 -55.5t43 -77.5t15 -98t-15 -98t-43 -77.5t-66.5 -56t-84.5 -31.5v-92h-142v92q-46 10 -84.5 32t-66 56t-42.5 78t-15 97t15 97t42.5 78t66 56t84.5 32v108h142v-108zM458 306q0 99 -68 136v-272q68 36 68 136zM181 307q0 -99 67 -136v270
q-67 -37 -67 -134z" />
    <glyph glyph-name="Chi" unicode="&#x3a7;" horiz-adv-x="590" 
d="M220 314l-234 361h163l146 -234l147 235h165l-236 -362l236 -363h-163l-149 235l-148 -235h-164z" />
    <glyph glyph-name="Psi" unicode="&#x3a8;" horiz-adv-x="680" 
d="M415 283q33 16 52 51t19 94v249h147v-236q0 -69 -16 -119.5t-45 -85t-69 -54.5t-88 -28v-203h-149v203q-48 8 -88.5 28t-69.5 54.5t-45 85t-16 119.5v236h147v-249q0 -60 19 -94.5t53 -50.5v394h149v-394z" />
    <glyph glyph-name="uni03A9" unicode="&#x3a9;" horiz-adv-x="760" 
d="M380 563q-47 0 -81 -16t-55.5 -44.5t-32 -69.5t-10.5 -90q0 -102 38.5 -180t105.5 -119v-94h-307v122h104q-45 53 -68.5 124t-23.5 146q0 161 84.5 250.5t245.5 89.5t245.5 -89.5t84.5 -250.5q0 -75 -23.5 -146t-68.5 -124h104v-122h-307v94q67 41 105.5 119t38.5 180
q0 49 -10.5 90t-32 69.5t-55.5 44.5t-81 16z" />
    <glyph glyph-name="alpha" unicode="&#x3b1;" horiz-adv-x="623" 
d="M626 58q-11 -35 -23.5 -58.5t-28.5 -37.5t-36 -20t-45 -6q-15 0 -31.5 4.5t-31.5 14.5t-27 25.5t-19 38.5q-35 -49 -76 -65.5t-75 -16.5q-58 0 -98 21t-65 57.5t-35.5 84.5t-8.5 102q2 58 16 110t41.5 91.5t69.5 62.5t101 23q16 0 35 -3t39.5 -13t41 -28.5t38.5 -49.5
l24 84l126 -40l-97 -287q1 -30 5 -50t9.5 -32t11.5 -17t11 -5t10.5 9.5t11.5 40.5zM330 227q2 32 -1.5 59t-13.5 47t-25 31t-36 11q-27 0 -44 -18t-27 -45t-14.5 -58t-5.5 -56q-8 -148 69 -148q25 0 43 17t29.5 43t17.5 57t8 60z" />
    <glyph glyph-name="beta" unicode="&#x3b2;" horiz-adv-x="540" 
d="M508 168q0 -47 -13 -89t-39 -73t-67 -49t-96 -18q-19 0 -45 5t-46 16v-140h-138v663q0 56 14 94t41 61t65 33t86 10q98 0 154.5 -52t56.5 -141q0 -41 -13 -76.5t-48 -67.5q45 -33 66.5 -81.5t21.5 -94.5zM369 168q0 21 -4 41.5t-13 37t-23 27t-35 10.5h-51v108h51
q27 0 38.5 21t11.5 74q0 83 -74 83q-33 0 -50.5 -18.5t-17.5 -73.5v-398q17 -17 37.5 -22.5t43.5 -5.5q47 0 66.5 31.5t19.5 84.5z" />
    <glyph glyph-name="gamma" unicode="&#x3b3;" horiz-adv-x="520" 
d="M327 70q34 -49 56 -92q19 -37 18.5 -72.5t-18 -63t-50.5 -44.5t-78 -17q-42 0 -76 15.5t-53.5 42.5t-21.5 62.5t19 75.5q12 23 28 49t36 53l-184 363l127 56l126 -283l135 278l127 -54zM277 -82q0 7 -6.5 22.5t-14.5 31.5q-11 -17 -17.5 -31.5t-6.5 -23.5q0 -28 23 -28
q22 0 22 29z" />
    <glyph glyph-name="delta" unicode="&#x3b4;" horiz-adv-x="560" 
d="M30 188q0 39 13 74.5t35.5 66.5t53.5 56.5t68 45.5q-40 32 -54.5 66.5t-14.5 64.5q0 24 10 46t30 38t51 25.5t72 9.5q59 0 102 -15.5t74 -40.5l-65 -104q-23 18 -48 33.5t-58 15.5q-10 0 -17.5 -3.5t-7.5 -14.5q0 -26 21 -47t43 -35q53 -34 89.5 -67t59.5 -67t33.5 -69.5
t10.5 -74.5q0 -57 -18 -103.5t-51 -80t-79 -52t-103 -18.5q-54 0 -100 15.5t-79 46.5t-52 78t-19 110zM385 185q0 29 -5.5 50.5t-18 40t-34 37t-52.5 40.5q-40 -23 -70 -64.5t-30 -99.5q0 -39 9.5 -65t24.5 -41.5t35 -22.5t41 -7q42 0 71 31.5t29 100.5z" />
    <glyph glyph-name="epsilon" unicode="&#x3b5;" horiz-adv-x="470" 
d="M449 82q-28 -76 -82 -109.5t-130 -33.5q-42 0 -80.5 8.5t-68 27t-46.5 48.5t-17 72q0 18 6 39.5t20 41.5t36.5 35.5t54.5 22.5q-26 7 -44.5 21t-30.5 30t-17.5 33t-5.5 31q0 41 17.5 68.5t46 44.5t63.5 24.5t70 7.5q64 0 113.5 -26t84.5 -88l-112 -59q-43 62 -86 62
q-55 0 -55 -32q0 -17 10.5 -28.5t28.5 -19t42 -10t50 -1.5v-118q-75 -2 -110.5 -20t-35.5 -57q0 -26 17.5 -34.5t48.5 -8.5q33 0 54.5 17t37.5 61z" />
    <glyph glyph-name="zeta" unicode="&#x3b6;" horiz-adv-x="460" 
d="M439 -89q0 -27 -8.5 -50t-26.5 -40.5t-45.5 -27.5t-65.5 -10q-15 0 -27.5 0.5t-25.5 3t-29 8.5t-38 17l39 108q8 -4 26 -11t35 -9q31 -3 32 13q1 15 -6 24.5t-19 15.5t-27.5 10t-31.5 9q-86 24 -137.5 81.5t-55.5 147.5q-2 45 6.5 87.5t28 85.5t49.5 88t72 95h-120v120
h309v-99q-47 -41 -84.5 -85t-64 -91t-40 -96.5t-10.5 -101.5q3 -56 27 -84.5t72 -39.5q40 -9 71 -21t52 -31.5t32 -47.5t11 -69z" />
    <glyph glyph-name="eta" unicode="&#x3b7;" horiz-adv-x="600" 
d="M495 -36q0 -22 18 -22q10 0 19.5 9.5t17.5 22.5l68 -80q-31 -38 -58 -53.5t-62 -15.5q-64 0 -103.5 30t-39.5 100v347q0 43 -23 58t-53 15q-23 0 -44 -12.5t-38 -44.5v-374h-144v533h144v-21q9 7 21.5 13.5t26.5 11t28 7t26 2.5q43 0 79.5 -12t62 -35.5t40 -58.5
t14.5 -81v-339z" />
    <glyph glyph-name="theta" unicode="&#x3b8;" horiz-adv-x="580" 
d="M290 -61q-63 0 -110.5 25t-79.5 72t-48 115t-16 155q0 180 63 278.5t191 98.5t191 -98.5t63 -278.5q0 -87 -16 -155t-48 -115t-79.5 -72t-110.5 -25zM290 568q-29 0 -49 -15.5t-33 -42.5t-20 -64t-10 -80h223q-2 43 -9 80t-20 64t-33.5 42.5t-48.5 15.5zM290 55
q52 0 78.5 52t32.5 137h-222q6 -85 32 -137t79 -52z" />
    <glyph glyph-name="iota" unicode="&#x3b9;" horiz-adv-x="280" 
d="M187 479v-403q0 -11 1.5 -17t8.5 -6q11 0 18.5 9t16.5 23l64 -76q-29 -38 -57 -55t-63 -17q-61 0 -96 30t-35 100v412h142z" />
    <glyph glyph-name="kappa" unicode="&#x3ba;" horiz-adv-x="482" 
d="M288 257l209 -306h-159l-141 212l-2 -2v-210h-142v526h142v-140l131 139h173z" />
    <glyph glyph-name="lambda" unicode="&#x3bb;" horiz-adv-x="629" 
d="M275 235l-127 -306l-127 48l190 456l-24 76q-8 23 -17.5 33t-22.5 12q-6 1 -14.5 -0.5t-31.5 -7.5l-30 125q33 9 52.5 11.5t38.5 0.5q54 -4 94.5 -33t62.5 -95l143 -441q6 -20 13 -33.5t16 -14.5q8 -1 14.5 9t12.5 34l122 -46q-13 -35 -27 -59t-31 -38.5t-39.5 -20.5
t-53.5 -6q-62 0 -102 36t-61 102z" />
    <glyph glyph-name="uni03BC" unicode="&#x3bc;" horiz-adv-x="540" 
d="M347 477h148v-346q0 -86 -50 -138.5t-145 -52.5q-35 0 -55.5 6.5t-43.5 19.5v-214h-148v725h148v-361q17 -29 33.5 -45t49.5 -16q34 0 48.5 18.5t14.5 56.5v347z" />
    <glyph glyph-name="nu" unicode="&#x3bd;" horiz-adv-x="500" 
d="M329 -49h-105l-140 385q-8 22 -28 32.5t-56 7.5v119q15 2 20.5 1.5t11.5 -0.5q65 0 110.5 -26t65.5 -89l66 -196l90 292h145z" />
    <glyph glyph-name="xi" unicode="&#x3be;" horiz-adv-x="460" 
d="M145 470q0 28 8 47t28 39h-117v121h306l-2 -103q-37 -20 -58.5 -42t-21.5 -59q0 -26 15 -43.5t40 -29.5v-103q-31 -7 -56 -22.5t-43 -35.5t-27 -43t-9 -44q1 -24 17 -43.5t49 -28.5q36 -9 66 -21.5t52.5 -31.5t34.5 -47.5t12 -68.5q0 -27 -8.5 -50t-26 -40.5t-45 -27.5
t-66.5 -10q-15 0 -28 0.5t-26.5 3.5t-29.5 9t-37 17l40 108q10 -5 27 -12t37 -10q10 -2 17.5 1.5t9.5 12.5q3 13 -4 22.5t-20 16.5t-28.5 12t-29.5 8q-66 15 -106 59t-40 113q0 66 35 117.5t110 94.5q-35 19 -55 49.5t-20 64.5z" />
    <glyph glyph-name="omicron" unicode="&#x3bf;" horiz-adv-x="550" 
d="M275 -68q-55 0 -102.5 18t-83 53t-55.5 87t-20 120q0 71 19.5 124.5t54.5 89t83 53.5t104 18t104 -18t83 -53.5t54.5 -89t19.5 -124.5q0 -68 -20.5 -120t-55.5 -87t-82.5 -53t-102.5 -18zM275 383q-31 0 -53 -13.5t-36 -37t-20.5 -55t-6.5 -67.5q0 -81 32 -123.5
t84 -42.5t84 42.5t32 123.5q0 36 -6.5 67.5t-20.5 55t-36 37t-53 13.5z" />
    <glyph glyph-name="pi" unicode="&#x3c0;" horiz-adv-x="620" 
d="M482 81q0 -16 1.5 -21t6.5 -6q12 -1 33 32l65 -78q-29 -38 -57 -53.5t-62 -15.5q-65 0 -98.5 31t-33.5 101v285h-63v-181q0 -64 -9.5 -108.5t-36 -72t-72 -39.5t-117.5 -12v118q32 0 50 4t27 17t11 37t2 64v173h-93v120h540v-120h-94v-275v0z" />
    <glyph glyph-name="rho" unicode="&#x3c1;" horiz-adv-x="570" 
d="M52 194q0 92 23 149.5t58.5 89.5t77.5 43.5t81 11.5q56 0 103 -17t80.5 -52t52.5 -87.5t19 -124.5q0 -63 -17 -113t-47 -84.5t-70.5 -52.5t-87.5 -18q-82 0 -128 40v-227h-145v442zM197 173q0 -24 6.5 -46t19 -38t30.5 -25.5t42 -9.5q30 0 50 12t31 33t16 49.5t5 61.5
q1 77 -21.5 120t-82.5 43q-48 0 -72 -37.5t-24 -116.5v-46z" />
    <glyph glyph-name="sigma" unicode="&#x3c3;" horiz-adv-x="570" 
d="M567 404q-29 -5 -51 -6.5t-46 -0.5q26 -36 41 -82t15 -105q0 -68 -19 -119t-52.5 -85t-79.5 -50.5t-100 -16.5t-100 16.5t-79 50.5t-52 85t-19 119q0 71 18 123.5t51 87t79 51t102 16.5q32 0 62.5 1.5t62.5 4.5t68 8t80 13zM275 374q-30 0 -49.5 -12t-31.5 -34t-17 -52
t-5 -66q0 -81 27.5 -119t75.5 -38q49 0 76.5 38t27.5 119q0 36 -5.5 66t-17.5 52t-32 34t-49 12z" />
    <glyph glyph-name="tau" unicode="&#x3c4;" horiz-adv-x="530" 
d="M331 75q0 -11 2 -17t10 -5q9 1 16.5 10.5t15.5 22.5l66 -76q-29 -38 -56 -54.5t-64 -16.5q-62 0 -96.5 28.5t-34.5 98.5v288h-181v123h512v-123h-190v-279z" />
    <glyph glyph-name="upsilon" unicode="&#x3c5;" horiz-adv-x="555" 
d="M439 491q33 -73 54.5 -149.5t21.5 -154.5q0 -53 -13.5 -98.5t-42 -79t-73 -52.5t-107.5 -19q-49 0 -90 13.5t-71 41.5t-47 69.5t-17 97.5v317h144v-311q0 -56 21 -79.5t56 -23.5q29 0 48 8.5t29.5 24t14.5 38t4 50.5q0 36 -7 73.5t-17.5 74.5t-23 70.5t-23.5 60.5z" />
    <glyph glyph-name="phi" unicode="&#x3c6;" horiz-adv-x="550" 
d="M343 480q82 -19 132 -86.5t50 -183.5q0 -56 -13.5 -100t-37.5 -77t-57.5 -54.5t-73.5 -31.5v-114h-135v114q-81 19 -132 85t-51 178q0 117 50 184t133 86v114h135v-114zM163 210q0 -48 12 -82.5t33 -54.5v280q-23 -23 -34 -60.5t-11 -82.5zM387 210q0 45 -10.5 82
t-33.5 60v-278q20 20 32 54t12 82z" />
    <glyph glyph-name="chi" unicode="&#x3c7;" horiz-adv-x="550" 
d="M191 114l-217 369h165l135 -230l137 231h165l-220 -370l219 -371h-164l-138 233l-138 -233h-164z" />
    <glyph glyph-name="psi" unicode="&#x3c8;" horiz-adv-x="680" 
d="M415 83q33 16 52 51t19 94v249h147v-236q0 -69 -16 -119t-45 -84.5t-69 -55t-88 -28.5v-203h-149v203q-48 8 -88.5 28t-69.5 54.5t-45 85t-16 119.5v236h147v-249q0 -60 19 -94.5t53 -50.5v394h149v-394z" />
    <glyph glyph-name="omega" unicode="&#x3c9;" horiz-adv-x="720" 
d="M485 -60q-30 0 -62 12t-62 38q-27 -25 -60 -38t-67 -13q-57 0 -96 18.5t-63 51t-34.5 75.5t-10.5 93q0 48 5 89.5t18.5 79t35.5 72.5t57 70l109 -69q-25 -26 -41 -53t-25.5 -56.5t-13 -62t-3.5 -69.5q0 -22 2 -42t8.5 -35.5t19 -24.5t33.5 -9q20 0 38 13.5t18 34.5v187
h138v-187q0 -21 17 -34t38 -13q22 0 35 9t19.5 24.5t8 35.5t1.5 41q0 74 -19 130.5t-68 108.5l109 70q35 -35 57.5 -70t36 -72t19 -78.5t5.5 -89.5q0 -50 -11 -93t-35 -75t-62.5 -50.5t-94.5 -18.5z" />
    <glyph glyph-name="SF100000" unicode="&#x2500;" horiz-adv-x="940" 
d="M0 286v29h940v-29h-940z" />
    <glyph glyph-name="SF110000" unicode="&#x2502;" horiz-adv-x="940" 
d="M455 -200v1000h29v-1000h-29z" />
    <glyph glyph-name="SF010000" unicode="&#x250c;" horiz-adv-x="940" 
d="M484 286v-486h-29v515h485v-29h-456z" />
    <glyph glyph-name="SF030000" unicode="&#x2510;" horiz-adv-x="940" 
d="M455 -200v486h-455v29h484v-515h-29z" />
    <glyph glyph-name="SF040000" unicode="&#x2518;" horiz-adv-x="940" 
d="M0 286v29h455v485h29v-514h-484z" />
    <glyph glyph-name="SF020000" unicode="&#x2514;" horiz-adv-x="940" 
d="M455 286v514h29v-485h426v-29h-455z" />
    <glyph glyph-name="SF080000" unicode="&#x251c;" horiz-adv-x="940" 
d="M484 286v-486h-29v1000h29v-485h436v-29h-436z" />
    <glyph glyph-name="SF060000" unicode="&#x252c;" horiz-adv-x="940" 
d="M484 286v-486h-29v486h-455v29h940v-29h-456z" />
    <glyph glyph-name="SF090000" unicode="&#x2524;" horiz-adv-x="940" 
d="M455 -200v486h-455v29h455v485h29v-1000h-29z" />
    <glyph glyph-name="SF070000" unicode="&#x2534;" horiz-adv-x="940" 
d="M0 286v29h455v485h29v-485h436v-29h-920z" />
    <glyph glyph-name="SF050000" unicode="&#x253c;" horiz-adv-x="940" 
d="M484 285v-485h-29v485h-455v29h455v486h29v-486h436v-29h-436z" />
    <glyph glyph-name="uni2501" unicode="&#x2501;" horiz-adv-x="940" 
d="M0 271v54h920v-54h-920z" />
    <glyph glyph-name="uni2503" unicode="&#x2503;" horiz-adv-x="940" 
d="M442 -200v1000h54v-1000h-54z" />
    <glyph glyph-name="uni250F" unicode="&#x250f;" horiz-adv-x="940" 
d="M496 271v-471h-54v525h498v-54h-444z" />
    <glyph glyph-name="uni2513" unicode="&#x2513;" horiz-adv-x="940" 
d="M442 -200v471h-442v54h496v-525h-54z" />
    <glyph glyph-name="uni251B" unicode="&#x251b;" horiz-adv-x="940" 
d="M0 271v54h442v475h54v-529h-496z" />
    <glyph glyph-name="uni2517" unicode="&#x2517;" horiz-adv-x="940" 
d="M442 271v529h54v-475h444v-54h-498z" />
    <glyph glyph-name="uni2523" unicode="&#x2523;" horiz-adv-x="940" 
d="M496 271v-471h-54v1000h54v-475h444v-54h-444z" />
    <glyph glyph-name="uni2533" unicode="&#x2533;" horiz-adv-x="940" 
d="M496 271v-471h-54v471h-442v54h920v-54h-424z" />
    <glyph glyph-name="uni252B" unicode="&#x252b;" horiz-adv-x="940" 
d="M442 -200v471h-442v54h442v475h54v-1000h-54z" />
    <glyph glyph-name="uni253B" unicode="&#x253b;" horiz-adv-x="940" 
d="M0 271v54h442v475h54v-475h444v-54h-940z" />
    <glyph glyph-name="uni254B" unicode="&#x254b;" horiz-adv-x="940" 
d="M496 271v-471h-54v471h-442v54h442v475h54v-475h444v-54h-444z" />
    <glyph glyph-name="uni2520" unicode="&#x2520;" horiz-adv-x="940" 
d="M507 282v-482h-76v1000h76v-482h433v-36h-433z" />
    <glyph glyph-name="uni252F" unicode="&#x252f;" horiz-adv-x="940" 
d="M488 264v-464h-38v464h-450v72h940v-72h-452z" />
    <glyph glyph-name="uni2528" unicode="&#x2528;" horiz-adv-x="940" 
d="M431 -200v482h-431v36h431v482h76v-1000h-76z" />
    <glyph glyph-name="uni2537" unicode="&#x2537;" horiz-adv-x="940" 
d="M0 264v72h450v464h38v-464h452v-72h-940z" />
    <glyph glyph-name="uni253F" unicode="&#x253f;" horiz-adv-x="940" 
d="M488 264v-464h-38v464h-450v72h450v464h38v-464h452v-72h-452z" />
    <glyph glyph-name="uni251D" unicode="&#x251d;" horiz-adv-x="940" 
d="M488 264v-464h-38v1000h38v-464h452v-72h-452z" />
    <glyph glyph-name="uni2530" unicode="&#x2530;" horiz-adv-x="940" 
d="M507 282v-482h-76v482h-431v36h940v-36h-433z" />
    <glyph glyph-name="uni2525" unicode="&#x2525;" horiz-adv-x="940" 
d="M450 -200v464h-450v72h450v464h38v-1000h-38z" />
    <glyph glyph-name="uni2538" unicode="&#x2538;" horiz-adv-x="940" 
d="M0 282v36h431v482h76v-482h433v-36h-940z" />
    <glyph glyph-name="uni2542" unicode="&#x2542;" horiz-adv-x="940" 
d="M507 282v-482h-76v482h-431v36h431v482h76v-482h433v-36h-433z" />
    <glyph glyph-name="uni2512" unicode="&#x2512;" horiz-adv-x="940" 
d="M431 -200v482h-431v36h507v-518h-76z" />
    <glyph glyph-name="uni2511" unicode="&#x2511;" horiz-adv-x="940" 
d="M450 -200v464h-450v72h488v-536h-38z" />
    <glyph glyph-name="uni251A" unicode="&#x251a;" horiz-adv-x="940" 
d="M0 282v36h431v482h76v-518h-507z" />
    <glyph glyph-name="uni2519" unicode="&#x2519;" horiz-adv-x="940" 
d="M0 264v72h450v464h38v-536h-488z" />
    <glyph glyph-name="uni2516" unicode="&#x2516;" horiz-adv-x="940" 
d="M431 282v518h76v-482h433v-36h-509z" />
    <glyph glyph-name="uni2515" unicode="&#x2515;" horiz-adv-x="940" 
d="M450 264v536h38v-464h452v-72h-490z" />
    <glyph glyph-name="uni250E" unicode="&#x250e;" horiz-adv-x="940" 
d="M507 282v-482h-76v518h509v-36h-433z" />
    <glyph glyph-name="uni250D" unicode="&#x250d;" horiz-adv-x="940" 
d="M488 264v-464h-38v536h490v-72h-452z" />
    <glyph glyph-name="uni251E" unicode="&#x251e;" horiz-adv-x="940" 
d="M487 282v-482h-37v500h-19v500h76v-482h433v-36h-453z" />
    <glyph glyph-name="uni251F" unicode="&#x251f;" horiz-adv-x="940" 
d="M507 282v-482h-76v500h19v500h38v-482h452v-36h-433z" />
    <glyph glyph-name="uni2521" unicode="&#x2521;" horiz-adv-x="940" 
d="M488 264v-464h-38v500h-19v500h76v-464h433v-72h-452z" />
    <glyph glyph-name="uni2522" unicode="&#x2522;" horiz-adv-x="940" 
d="M507 264v-464h-76v500h19v500h38v-464h452v-72h-433z" />
    <glyph glyph-name="uni2526" unicode="&#x2526;" horiz-adv-x="940" 
d="M488 300v-500h-38v482h-450v36h431v482h76v-500h-19z" />
    <glyph glyph-name="uni2527" unicode="&#x2527;" horiz-adv-x="940" 
d="M431 -200v482h-431v36h450v482h38v-500h19v-500h-76z" />
    <glyph glyph-name="uni2529" unicode="&#x2529;" horiz-adv-x="940" 
d="M488 300v-500h-38v464h-450v72h431v464h76v-500h-19z" />
    <glyph glyph-name="uni252A" unicode="&#x252a;" horiz-adv-x="940" 
d="M431 -200v464h-431v72h450v464h38v-500h19v-500h-76z" />
    <glyph glyph-name="uni252D" unicode="&#x252d;" horiz-adv-x="940" 
d="M488 282v-482h-38v464h-450v72h469v-18h471v-36h-452z" />
    <glyph glyph-name="uni252E" unicode="&#x252e;" horiz-adv-x="940" 
d="M488 264v-464h-38v482h-450v36h469v18h471v-72h-452z" />
    <glyph glyph-name="uni2531" unicode="&#x2531;" horiz-adv-x="940" 
d="M507 282v-482h-76v464h-431v72h469v-18h471v-36h-433z" />
    <glyph glyph-name="uni2532" unicode="&#x2532;" horiz-adv-x="940" 
d="M507 264v-464h-76v482h-431v36h469v18h471v-72h-433z" />
    <glyph glyph-name="uni2535" unicode="&#x2535;" horiz-adv-x="940" 
d="M469 282v-18h-469v72h450v464h38v-482h452v-36h-471z" />
    <glyph glyph-name="uni2536" unicode="&#x2536;" horiz-adv-x="940" 
d="M469 264v18h-469v36h450v482h38v-464h452v-72h-471z" />
    <glyph glyph-name="uni2539" unicode="&#x2539;" horiz-adv-x="940" 
d="M469 282v-18h-469v72h431v464h76v-482h433v-36h-471z" />
    <glyph glyph-name="uni253A" unicode="&#x253a;" horiz-adv-x="940" 
d="M469 264v18h-469v36h431v482h76v-464h433v-72h-471z" />
    <glyph glyph-name="uni253D" unicode="&#x253d;" horiz-adv-x="940" 
d="M488 282v-482h-38v464h-450v76h450v460h38v-482h452v-36h-452z" />
    <glyph glyph-name="uni253E" unicode="&#x253e;" horiz-adv-x="940" 
d="M488 264v-464h-38v482h-450v36h450v482h38v-464h452v-72h-452z" />
    <glyph glyph-name="uni2540" unicode="&#x2540;" horiz-adv-x="940" 
d="M488 282v-482h-38v482h-450v36h431v482h76v-482h433v-36h-452z" />
    <glyph glyph-name="uni2541" unicode="&#x2541;" horiz-adv-x="940" 
d="M507 282v-482h-76v482h-431v36h450v482h38v-482h452v-36h-433z" />
    <glyph glyph-name="uni2543" unicode="&#x2543;" horiz-adv-x="940" 
d="M488 282v-482h-38v464h-450v72h431v464h76v-482h433v-36h-452z" />
    <glyph glyph-name="uni2544" unicode="&#x2544;" horiz-adv-x="940" 
d="M488 264v-464h-38v482h-450v36h431v482h76v-464h433v-72h-452z" />
    <glyph glyph-name="uni2545" unicode="&#x2545;" horiz-adv-x="940" 
d="M507 282v-482h-76v464h-431v72h450v464h38v-482h452v-36h-433z" />
    <glyph glyph-name="uni2546" unicode="&#x2546;" horiz-adv-x="940" 
d="M507 264v-464h-76v482h-431v36h450v482h38v-464h452v-72h-433z" />
    <glyph glyph-name="uni2547" unicode="&#x2547;" horiz-adv-x="940" 
d="M488 264v-464h-38v464h-450v72h431v464h76v-464h433v-72h-452z" />
    <glyph glyph-name="uni2548" unicode="&#x2548;" horiz-adv-x="940" 
d="M507 264v-464h-76v464h-431v72h450v464h38v-464h452v-72h-433z" />
    <glyph glyph-name="uni2549" unicode="&#x2549;" horiz-adv-x="940" 
d="M507 282v-482h-76v464h-431v72h431v464h76v-482h433v-36h-433z" />
    <glyph glyph-name="uni254A" unicode="&#x254a;" horiz-adv-x="940" 
d="M507 264v-464h-76v482h-431v36h431v482h76v-464h433v-72h-433z" />
    <glyph glyph-name="uni3395" unicode="&#x3395;" horiz-adv-x="940" 
d="M885 526q0 -55 -15 -112.5t-41.5 -113t-62.5 -107t-77 -95.5q5 -23 11.5 -35.5t17.5 -12.5q10 0 20.5 14.5t26.5 56.5l98 -50q-16 -41 -32.5 -66.5t-34.5 -40t-39 -20t-47 -5.5q-32 0 -58.5 21t-45.5 61q-12 -10 -24 -18l-24 -16l-62 87q17 11 37 26t41 34q-4 27 -6 56.5
t-2 62.5q0 98 12 178t35.5 136.5t58.5 87.5t82 31q72 0 101.5 -43.5t29.5 -116.5zM270 157q-10 -29 -2.5 -41.5t18.5 -12.5q26 0 44.5 35.5t38.5 94.5l57 170l121 -40l-74 -235q-8 -26 -6 -32.5t9 -5.5l9 1v-105q-26 -3 -35 -4t-17 -1q-27 0 -44.5 12.5t-27.5 35.5
q-17 -20 -37 -29t-37 -9t-33.5 4t-31.5 13l-76 -222l-116 40l187 571l119 -38zM748 567q-11 0 -21.5 -27.5t-19.5 -71.5t-15 -98.5t-9 -108.5q32 50 53 112.5t25 140.5q3 53 -13 53z" />
    <glyph glyph-name="uni3396" unicode="&#x3396;" horiz-adv-x="940" 
d="M383 317q0 35 -2.5 45t-9.5 10q-9 0 -16 -9t-12 -31v-383h-128v362q0 35 -3 48t-11 13q-21 0 -26 -53v-370h-127v529h112v-16q14 13 30.5 20t29.5 7q26 0 45 -17t34 -44q18 30 42 45.5t48 15.5q64 0 92.5 -38t28.5 -116v-386h-127v368zM895 526q0 -57 -15 -114.5
t-41.5 -113t-62 -107t-77.5 -94.5q5 -22 11.5 -34.5t17.5 -12.5q10 0 20.5 14.5t26.5 56.5l98 -50q-16 -41 -32.5 -66.5t-34.5 -40t-39 -20t-47 -5.5q-33 0 -59.5 21.5t-45.5 61.5q-19 -15 -38 -26l-62 87q15 11 32.5 23.5t36.5 28.5q-5 26 -6.5 55.5t-1.5 62.5q0 98 12 178
t35.5 136.5t58.5 87.5t82 31q72 0 101.5 -43.5t29.5 -116.5zM758 567q-11 0 -21.5 -28t-19.5 -72.5t-15 -99.5t-9 -109q32 49 53 112t25 144q3 53 -13 53z" />
    <glyph glyph-name="uni3397" unicode="&#x3397;" horiz-adv-x="940" 
d="M468 711v-762h-125v25q-17 -20 -41.5 -28.5t-44.5 -8.5q-38 0 -71.5 16.5t-59.5 51.5t-41 88t-15 127q0 126 45.5 198t140.5 72q18 0 37.5 -7.5t36.5 -23.5v252h138zM865 526q0 -55 -15 -112.5t-41.5 -113t-62.5 -107t-77 -95.5q5 -23 11.5 -35.5t17.5 -12.5
q10 0 20.5 14.5t26.5 56.5l98 -50q-16 -41 -32.5 -66.5t-34.5 -40t-39 -20t-47 -5.5q-32 0 -58.5 21t-45.5 61q-12 -10 -24 -18l-24 -16l-62 87q17 11 37 26t41 34q-4 27 -6 56.5t-2 62.5q0 98 12 178t35.5 136.5t58.5 87.5t82 31q72 0 101.5 -43.5t29.5 -116.5zM338 254
q0 24 -3 46.5t-9.5 39t-18 26.5t-27.5 10q-20 0 -33 -12t-21.5 -33.5t-12 -50.5t-3.5 -63q0 -77 17 -121t55 -44q17 0 28 9t17 24t8.5 36t2.5 45v88zM728 567q-11 0 -21.5 -27.5t-19.5 -71.5t-15 -98.5t-9 -108.5q32 50 53 112.5t25 140.5q3 53 -13 53z" />
    <glyph glyph-name="uni2113" unicode="&#x2113;" horiz-adv-x="430" 
d="M399 526q0 -54 -15 -110.5t-41.5 -112t-62.5 -107.5t-77 -97q4 -23 11 -36t18 -13q10 0 20.5 14.5t26.5 56.5l98 -50q-16 -41 -32.5 -66.5t-34.5 -40t-39 -20t-47 -5.5q-32 0 -58.5 21.5t-45.5 60.5q-15 -12 -30.5 -22.5t-30.5 -20.5l-62 87q19 13 42 30.5t49 40.5
q-4 26 -6 55.5t-2 61.5q0 98 12 178t35.5 136.5t58.5 87.5t82 31q72 0 101.5 -43.5t29.5 -116.5zM262 567q-11 0 -21.5 -27t-19 -70.5t-14.5 -97.5t-9 -107q31 51 52 112.5t25 136.5q3 53 -13 53z" />
    <glyph glyph-name="uni3398" unicode="&#x3398;" horiz-adv-x="850" 
d="M804 526q0 -55 -15 -112.5t-41.5 -113t-62.5 -107t-77 -95.5q5 -23 11.5 -35.5t17.5 -12.5q10 0 20.5 14.5t26.5 56.5l98 -50q-16 -41 -32.5 -66.5t-34.5 -40t-39 -20t-47 -5.5q-32 0 -58.5 21t-45.5 61q-12 -10 -24 -18l-24 -16l-62 87q17 11 37 26t41 34q-4 27 -6 56.5
t-2 62.5q0 98 12 178t35.5 136.5t58.5 87.5t82 31q72 0 101.5 -43.5t29.5 -116.5zM188 344l110 136h156l-195 -234l197 -297h-147l-121 185v-184h-124v759h124v-365zM667 567q-11 0 -21.5 -27.5t-19.5 -71.5t-15 -98.5t-9 -108.5q32 50 53 112.5t25 140.5q3 53 -13 53z" />
    <glyph glyph-name="uni33C4" unicode="&#x33c4;" horiz-adv-x="750" 
d="M374 -23q-24 -16 -50 -28t-72 -12q-94 0 -146.5 67.5t-52.5 208.5t54.5 210t154.5 69q38 0 63 -11.5t48 -29.5l-27 -123q-33 26 -50.5 35t-33.5 9q-35 0 -52.5 -41t-17.5 -113q0 -160 72 -160q19 0 38.5 6.5t54.5 28.5zM699 -23q-24 -16 -50 -28t-72 -12
q-94 0 -146.5 67.5t-52.5 208.5t54.5 210t154.5 69q38 0 63 -11.5t48 -29.5l-27 -123q-33 26 -50.5 35t-33.5 9q-35 0 -52.5 -41t-17.5 -113q0 -160 72 -160q19 0 38.5 6.5t54.5 28.5z" />
    <glyph glyph-name="uni33A3" unicode="&#x33a3;" horiz-adv-x="940" 
d="M309 328q0 26 -1.5 38t-9.5 12t-12 -8t-7 -31v-390h-109v362q0 38 -1 52.5t-11 14.5q-11 0 -13.5 -16.5t-4.5 -41.5v-371h-109v529h94v-33q5 15 18 29.5t32 14.5q27 0 41.5 -17.5t23.5 -48.5q12 32 35.5 49t48.5 17q50 0 72 -41.5t22 -116.5v-382h-109v379zM723 328
q0 26 -1.5 38t-9.5 12t-12 -8t-7 -31v-390h-109v362q0 38 -1 52.5t-11 14.5q-11 0 -13.5 -16.5t-4.5 -41.5v-371h-109v529h94v-33q5 15 18 29.5t32 14.5q27 0 41.5 -17.5t23.5 -48.5q12 32 35.5 49t48.5 17q50 0 72 -41.5t22 -116.5v-382h-109v379zM847 641q13 0 17.5 4
t4.5 12q0 14 -13 14q-20 0 -47 -21l-27 54q20 16 39 22.5t41 6.5q39 0 59.5 -20t20.5 -48q0 -12 -4.5 -25t-16.5 -24q29 -18 29 -55q0 -32 -25 -57.5t-71 -25.5q-20 0 -40.5 6.5t-43.5 20.5l33 59q10 -8 25 -13t25 -5q13 0 17.5 4.5t4.5 13.5q0 11 -8 15t-20 4h-27v58h27z
" />
    <glyph glyph-name="uni33A4" unicode="&#x33a4;" horiz-adv-x="940" 
d="M717 317q0 35 -2.5 45t-9.5 10q-9 0 -16 -9t-12 -31v-383h-128v362q0 35 -3 48t-11 13q-21 0 -26 -53v-370h-127v529h112v-16q14 13 30.5 20t29.5 7q26 0 45 -17t34 -44q18 30 42 45.5t48 15.5q64 0 92.5 -38t28.5 -116v-386h-127v368zM367 -23q-24 -16 -50 -28t-72 -12
q-94 0 -146.5 67.5t-52.5 208.5t54.5 210t154.5 69q38 0 63 -11.5t48 -29.5l-27 -123q-33 26 -50.5 35t-33.5 9q-35 0 -52.5 -41t-17.5 -113q0 -160 72 -160q19 0 38.5 6.5t54.5 28.5zM846 641q13 0 17.5 4t4.5 12q0 14 -13 14q-20 0 -47 -21l-27 54q20 16 39 22.5t41 6.5
q39 0 59.5 -20t20.5 -48q0 -12 -4.5 -25t-16.5 -24q29 -18 29 -55q0 -32 -25 -57.5t-71 -25.5q-20 0 -40.5 6.5t-43.5 20.5l33 59q10 -8 25 -13t25 -5q13 0 17.5 4.5t4.5 13.5q0 11 -8 15t-20 4h-27v58h27z" />
    <glyph glyph-name="uni33A5" unicode="&#x33a5;" horiz-adv-x="940" 
d="M605 308q0 35 -8 51.5t-37 16.5q-20 0 -42.5 -15t-40.5 -41v-371h-148v359q0 68 -65 68q-18 0 -35 -14.5t-28 -40.5v-372h-148v531h143v-31q20 20 49 31t54 11q50 0 80.5 -20.5t54.5 -51.5q32 38 70 55t76 17q91 0 132 -49t41 -133v-360h-148v359zM777 641q13 0 17.5 4
t4.5 12q0 14 -13 14q-20 0 -47 -21l-27 54q20 16 39 22.5t41 6.5q39 0 59.5 -20t20.5 -48q0 -12 -4.5 -25t-16.5 -24q29 -18 29 -55q0 -32 -25 -57.5t-71 -25.5q-20 0 -40.5 6.5t-43.5 20.5l33 59q10 -8 25 -13t25 -5q13 0 17.5 4.5t4.5 13.5q0 11 -8 15t-20 4h-27v58h27z
" />
    <glyph glyph-name="uni33A6" unicode="&#x33a6;" horiz-adv-x="940" 
d="M709 317q0 35 -2.5 45t-9.5 10q-9 0 -16 -9t-12 -31v-383h-128v362q0 35 -3 48t-11 13q-21 0 -26 -53v-370h-127v529h112v-16q14 13 30.5 20t29.5 7q26 0 45 -17t34 -44q18 30 42 45.5t48 15.5q64 0 92.5 -38t28.5 -116v-386h-127v368zM157 377l62 101h144l-155 -230
l155 -299h-132l-74 145v-144h-124v759h124v-332zM837 641q13 0 17.5 4t4.5 12q0 14 -13 14q-20 0 -47 -21l-27 54q20 16 39 22.5t41 6.5q39 0 59.5 -20t20.5 -48q0 -12 -4.5 -25t-16.5 -24q29 -18 29 -55q0 -32 -25 -57.5t-71 -25.5q-20 0 -40.5 6.5t-43.5 20.5l33 59
q10 -8 25 -13t25 -5q13 0 17.5 4.5t4.5 13.5q0 11 -8 15t-20 4h-27v58h27z" />
    </font>
</defs>
</svg>
